<?xml version="1.0" encoding="UTF-8" standalone="no"?>
<svg
   xmlns:dc="http://purl.org/dc/elements/1.1/"
   xmlns:cc="http://creativecommons.org/ns#"
   xmlns:rdf="http://www.w3.org/1999/02/22-rdf-syntax-ns#"
   xmlns:svg="http://www.w3.org/2000/svg"
   xmlns="http://www.w3.org/2000/svg"
   xmlns:sodipodi="http://sodipodi.sourceforge.net/DTD/sodipodi-0.dtd"
   xmlns:inkscape="http://www.inkscape.org/namespaces/inkscape"
   id="Capa_1"
   enable-background="new 0 0 497.006 497.006"
   height="512"
   viewBox="0 0 497.006 497.006"
   width="512"
   version="1.1"
   sodipodi:docname="home.svg"
   inkscape:version="0.92.4 (5da689c313, 2019-01-14)">
  <metadata
     id="metadata11">
    <rdf:RDF>
      <cc:Work
         rdf:about="">
        <dc:format>image/svg+xml</dc:format>
        <dc:type
           rdf:resource="http://purl.org/dc/dcmitype/StillImage" />
        <dc:title></dc:title>
      </cc:Work>
    </rdf:RDF>
  </metadata>
  <defs
     id="defs9" />
  <sodipodi:namedview
     pagecolor="#ffffff"
     bordercolor="#666666"
     borderopacity="1"
     objecttolerance="10"
     gridtolerance="10"
     guidetolerance="10"
     inkscape:pageopacity="0"
     inkscape:pageshadow="2"
     inkscape:window-width="1366"
     inkscape:window-height="705"
     id="namedview7"
     showgrid="false"
     inkscape:zoom="0.4609375"
     inkscape:cx="256"
     inkscape:cy="256"
     inkscape:window-x="-8"
     inkscape:window-y="-8"
     inkscape:window-maximized="1"
     inkscape:current-layer="Capa_1" />
  <path
     d="m492.584 237.863-233.47-233.47c-2.77-2.77-6.35-4.23-9.98-4.37l202.87 263.45h29.97c13.36 0 20.06-16.16 10.61-25.61z"
     fill="#6241ea"
     id="path2"
     style="fill:#d4aa00" />
  <path
     d="m462.584 237.863c2.84 3.24 4.14 7.06 4.14 10.74 0 7.72-5.69 14.85-14.72 14.87v226.03c0 4.142-3.358 7.5-7.5 7.5h-120.667c-4.142 0-7.5-3.358-7.5-7.5v-197.5h-135.666v197.5c0 4.142-3.358 7.5-7.5 7.5h-120.667c-4.142 0-7.5-3.358-7.5-7.5v-226.03h-29.972c-13.365 0-20.059-16.159-10.608-25.61l233.47-233.47c2.93-2.93 6.77-4.39 10.61-4.39.21 0 .42.01.63.02 2.96.16 5.87 1.43 8.21 3.84z"
     fill="#725fee"
     id="path4"
     style="fill:#ffcc00" />
</svg>
