<?xml version="1.0" encoding="UTF-8" standalone="no"?>
<svg
   xmlns:dc="http://purl.org/dc/elements/1.1/"
   xmlns:cc="http://creativecommons.org/ns#"
   xmlns:rdf="http://www.w3.org/1999/02/22-rdf-syntax-ns#"
   xmlns:svg="http://www.w3.org/2000/svg"
   xmlns="http://www.w3.org/2000/svg"
   xmlns:sodipodi="http://sodipodi.sourceforge.net/DTD/sodipodi-0.dtd"
   xmlns:inkscape="http://www.inkscape.org/namespaces/inkscape"
   width="1em"
   height="1em"
   viewBox="0 0 16 16"
   class="bi bi-alarm"
   fill="currentColor"
   version="1.1"
   id="svg6797"
   sodipodi:docname="list.svg"
   inkscape:version="0.92.3 (2405546, 2018-03-11)">
  <metadata
     id="metadata6803">
    <rdf:RDF>
      <cc:Work
         rdf:about="">
        <dc:format>image/svg+xml</dc:format>
        <dc:type
           rdf:resource="http://purl.org/dc/dcmitype/StillImage" />
        <dc:title></dc:title>
      </cc:Work>
    </rdf:RDF>
  </metadata>
  <defs
     id="defs6801" />
  <sodipodi:namedview
     pagecolor="#ffffff"
     bordercolor="#666666"
     borderopacity="1"
     objecttolerance="10"
     gridtolerance="10"
     guidetolerance="10"
     inkscape:pageopacity="0"
     inkscape:pageshadow="2"
     inkscape:window-width="1600"
     inkscape:window-height="847"
     id="namedview6799"
     showgrid="true"
     inkscape:zoom="29.5"
     inkscape:cx="15.408334"
     inkscape:cy="8.9797984"
     inkscape:window-x="-8"
     inkscape:window-y="-8"
     inkscape:window-maximized="1"
     inkscape:current-layer="svg6797"
     inkscape:snap-global="false">
    <inkscape:grid
       type="xygrid"
       id="grid8461" />
  </sodipodi:namedview>
  <g
     style="fill:#000000;stroke:#141414;stroke-width:4.5188427;stroke-miterlimit:4;stroke-dasharray:none;stroke-opacity:1"
     id="g7673"
     transform="matrix(0.02130141,0,0,0.0229899,0.05986501,0.01799283)" />
  <g
     style="fill:#000000;stroke:#141414;stroke-width:4.5188427;stroke-miterlimit:4;stroke-dasharray:none;stroke-opacity:1"
     id="g7675"
     transform="matrix(0.02130141,0,0,0.0229899,0.05986501,0.01799283)" />
  <g
     style="fill:#000000;stroke:#141414;stroke-width:4.5188427;stroke-miterlimit:4;stroke-dasharray:none;stroke-opacity:1"
     id="g7677"
     transform="matrix(0.02130141,0,0,0.0229899,0.05986501,0.01799283)" />
  <g
     style="fill:#000000;stroke:#141414;stroke-width:4.5188427;stroke-miterlimit:4;stroke-dasharray:none;stroke-opacity:1"
     id="g7679"
     transform="matrix(0.02130141,0,0,0.0229899,0.05986501,0.01799283)" />
  <g
     style="fill:#000000;stroke:#141414;stroke-width:4.5188427;stroke-miterlimit:4;stroke-dasharray:none;stroke-opacity:1"
     id="g7681"
     transform="matrix(0.02130141,0,0,0.0229899,0.05986501,0.01799283)" />
  <g
     style="fill:#000000;stroke:#141414;stroke-width:4.5188427;stroke-miterlimit:4;stroke-dasharray:none;stroke-opacity:1"
     id="g7683"
     transform="matrix(0.02130141,0,0,0.0229899,0.05986501,0.01799283)" />
  <g
     style="fill:#000000;stroke:#141414;stroke-width:4.5188427;stroke-miterlimit:4;stroke-dasharray:none;stroke-opacity:1"
     id="g7685"
     transform="matrix(0.02130141,0,0,0.0229899,0.05986501,0.01799283)" />
  <g
     style="fill:#000000;stroke:#141414;stroke-width:4.5188427;stroke-miterlimit:4;stroke-dasharray:none;stroke-opacity:1"
     id="g7687"
     transform="matrix(0.02130141,0,0,0.0229899,0.05986501,0.01799283)" />
  <g
     style="fill:#000000;stroke:#141414;stroke-width:4.5188427;stroke-miterlimit:4;stroke-dasharray:none;stroke-opacity:1"
     id="g7689"
     transform="matrix(0.02130141,0,0,0.0229899,0.05986501,0.01799283)" />
  <g
     style="fill:#000000;stroke:#141414;stroke-width:4.5188427;stroke-miterlimit:4;stroke-dasharray:none;stroke-opacity:1"
     id="g7691"
     transform="matrix(0.02130141,0,0,0.0229899,0.05986501,0.01799283)" />
  <g
     style="fill:#000000;stroke:#141414;stroke-width:4.5188427;stroke-miterlimit:4;stroke-dasharray:none;stroke-opacity:1"
     id="g7693"
     transform="matrix(0.02130141,0,0,0.0229899,0.05986501,0.01799283)" />
  <g
     style="fill:#000000;stroke:#141414;stroke-width:4.5188427;stroke-miterlimit:4;stroke-dasharray:none;stroke-opacity:1"
     id="g7695"
     transform="matrix(0.02130141,0,0,0.0229899,0.05986501,0.01799283)" />
  <g
     style="fill:#000000;stroke:#141414;stroke-width:4.5188427;stroke-miterlimit:4;stroke-dasharray:none;stroke-opacity:1"
     id="g7697"
     transform="matrix(0.02130141,0,0,0.0229899,0.05986501,0.01799283)" />
  <g
     style="fill:#000000;stroke:#141414;stroke-width:4.5188427;stroke-miterlimit:4;stroke-dasharray:none;stroke-opacity:1"
     id="g7699"
     transform="matrix(0.02130141,0,0,0.0229899,0.05986501,0.01799283)" />
  <g
     style="fill:#000000;stroke:#141414;stroke-width:4.5188427;stroke-miterlimit:4;stroke-dasharray:none;stroke-opacity:1"
     id="g7701"
     transform="matrix(0.02130141,0,0,0.0229899,0.05986501,0.01799283)" />
  <g
     id="g13148"
     transform="matrix(1,0,0,0.99361817,0,0.10190213)"
     style="stroke-width:1.00320625">
    <path
       id="path12968"
       d="M 13.612209,15.967543 H 2.3538917 c -0.7314917,0 -1.3244947,-0.492026 -1.3244947,-1.09896 V 2.2304207 c 0,-0.6069334 0.593003,-1.0989599 1.3244947,-1.0989599 H 13.612209 c 0.731492,0 1.324495,0.4920265 1.324495,1.0989599 V 14.868583 c 0,0.606934 -0.593003,1.09896 -1.324495,1.09896 z"
       style="fill:#e1c3a0;stroke:#141414;stroke-width:0.20064126;stroke-miterlimit:4;stroke-dasharray:none;stroke-opacity:1"
       inkscape:connector-curvature="0" />
    <path
       id="path12970"
       d="M 13.612209,15.143308 H 2.3538917 c -0.1828635,0 -0.3311424,-0.12303 -0.3311424,-0.274756 V 2.2304207 c 0,-0.1517256 0.1482789,-0.2747556 0.3311424,-0.2747556 H 13.612209 c 0.182864,0 0.331143,0.12303 0.331143,0.2747556 V 14.868583 c 0,0.151726 -0.148279,0.274725 -0.331143,0.274725 z"
       style="fill:#eff2fa;stroke:#141414;stroke-width:0.20064126;stroke-miterlimit:4;stroke-dasharray:none;stroke-opacity:1"
       inkscape:connector-curvature="0" />
    <path
       id="path12972"
       d="M 9.96983,1.1314297 H 8.9764402 V 0.8566742 c 0,-0.4551767 -0.4447616,-0.8242043 -0.9933898,-0.8242043 -0.5486281,0 -0.9933898,0.3690276 -0.9933898,0.8242354 V 1.1314608 H 5.9962709 c -0.3657271,0 -0.6622474,0.2459977 -0.6622474,0.5494799 v 0.54948 H 10.63204 v -0.54948 c 3.7e-5,-0.3035133 -0.296483,-0.549511 -0.66221,-0.549511 z m -1.9867796,0 c -0.1828635,0 -0.3311424,-0.12303 -0.3311424,-0.2747555 0,-0.1517256 0.1482789,-0.2747555 0.3311424,-0.2747555 0.1828636,0 0.3311424,0.1230299 0.3311424,0.2747555 0,0.1517255 -0.1482788,0.2747555 -0.3311424,0.2747555 z"
       style="fill:#c7cfe2;stroke:#141414;stroke-width:0.20064126;stroke-miterlimit:4;stroke-dasharray:none;stroke-opacity:1"
       inkscape:connector-curvature="0" />
    <path
       id="path12974"
       d="M 10.632077,2.5051451 H 5.3340235 c -0.1828635,0 -0.3311424,-0.12303 -0.3311424,-0.2747556 v 0 C 5.0028811,2.078664 5.15116,1.955634 5.3340235,1.955634 H 10.63204 c 0.182863,0 0.331142,0.12303 0.331142,0.2747555 v 0 c 0,0.1517567 -0.148241,0.2747556 -0.331105,0.2747556 z"
       style="fill:#afb9d2;stroke:#141414;stroke-width:0.20064126;stroke-miterlimit:4;stroke-dasharray:none;stroke-opacity:1"
       inkscape:connector-curvature="0" />
    <path
       id="path12976"
       d="m 4.6717762,6.3515356 c -0.084736,0 -0.1694723,-0.026828 -0.2341029,-0.080485 L 3.4442835,5.4468156 c -0.1293361,-0.1073128 -0.1293361,-0.281198 0,-0.3885108 0.1293362,-0.1073127 0.3389071,-0.1073127 0.4682432,0 L 4.6717762,5.6883004 6.0933105,4.5088249 c 0.1293361,-0.1073128 0.338907,-0.1073128 0.4682431,0 0.1293361,0.1073128 0.1293361,0.281198 0,0.3885108 L 4.9059165,6.271051 C 4.8412485,6.324739 4.7565123,6.351536 4.6717762,6.3515356 Z"
       style="fill:#1a1a1a;stroke:none;stroke-width:0.20064126;stroke-miterlimit:4;stroke-dasharray:none;stroke-opacity:1"
       inkscape:connector-curvature="0" />
    <g
       transform="matrix(0.03751047,0,0,0.03112319,-1.6196299,0.03246986)"
       id="g12980"
       style="opacity:0.97000002;fill:#1a1a1a;stroke:none;stroke-width:5.87221479;stroke-miterlimit:4;stroke-dasharray:none;stroke-opacity:1">
	<path
   id="path12978"
   d="m 317.793,167.724 h -70.621 c -4.875,0 -8.828,-3.953 -8.828,-8.828 v 0 c 0,-4.875 3.953,-8.828 8.828,-8.828 h 70.621 c 4.875,0 8.828,3.953 8.828,8.828 v 0 c 0,4.876 -3.953,8.828 -8.828,8.828 z"
   style="fill:#1a1a1a;stroke:none;stroke-width:5.87221479;stroke-miterlimit:4;stroke-dasharray:none;stroke-opacity:1"
   inkscape:connector-curvature="0" />

</g>
    <g
       transform="matrix(0.03751047,0,0,0.03112319,-1.6196299,0.03246986)"
       id="g12984"
       style="opacity:0.97000002;fill:#1a1a1a;stroke:none;stroke-width:5.87221479;stroke-miterlimit:4;stroke-dasharray:none;stroke-opacity:1">
	<path
   id="path12982"
   d="M 361.931,203.034 H 247.172 c -4.875,0 -8.828,-3.953 -8.828,-8.828 v 0 c 0,-4.875 3.953,-8.828 8.828,-8.828 h 114.759 c 4.875,0 8.828,3.953 8.828,8.828 v 0 c 0,4.876 -3.953,8.828 -8.828,8.828 z"
   style="fill:#1a1a1a;stroke:none;stroke-width:5.87221479;stroke-miterlimit:4;stroke-dasharray:none;stroke-opacity:1"
   inkscape:connector-curvature="0" />

</g>
    <path
       id="path12986"
       d="m 4.6717762,12.945388 c -0.084736,0 -0.1694723,-0.02683 -0.2341029,-0.08048 L 3.4442835,12.040637 c -0.1293361,-0.107313 -0.1293361,-0.281198 0,-0.388511 0.1293362,-0.107313 0.3389071,-0.107313 0.4682432,0 l 0.7592495,0.629996 1.4215343,-1.179476 c 0.1293361,-0.107313 0.338907,-0.107313 0.4682431,0 0.1293361,0.107313 0.1293361,0.281198 0,0.388511 l -1.6556371,1.373715 c -0.064668,0.05369 -0.1494042,0.08052 -0.2341403,0.08052 z"
       style="fill:#1a1a1a;stroke:none;stroke-width:0.20064126;stroke-miterlimit:4;stroke-dasharray:none;stroke-opacity:1"
       inkscape:connector-curvature="0" />
    <g
       transform="matrix(0.03751047,0,0,0.03112319,-1.6196299,0.03246986)"
       id="g12990"
       style="opacity:0.97000002;fill:#1a1a1a;stroke:none;stroke-width:5.87221479;stroke-miterlimit:4;stroke-dasharray:none;stroke-opacity:1">
	<path
   id="path12988"
   d="m 317.793,379.586 h -70.621 c -4.875,0 -8.828,-3.953 -8.828,-8.828 v 0 c 0,-4.875 3.953,-8.828 8.828,-8.828 h 70.621 c 4.875,0 8.828,3.953 8.828,8.828 v 0 c 0,4.876 -3.953,8.828 -8.828,8.828 z"
   style="fill:#1a1a1a;stroke:none;stroke-width:5.87221479;stroke-miterlimit:4;stroke-dasharray:none;stroke-opacity:1"
   inkscape:connector-curvature="0" />

</g>
    <g
       transform="matrix(0.03751047,0,0,0.03112319,-1.6196299,0.03246986)"
       id="g12994"
       style="opacity:0.97000002;fill:#1a1a1a;stroke:none;stroke-width:5.87221479;stroke-miterlimit:4;stroke-dasharray:none;stroke-opacity:1">
	<path
   id="path12992"
   d="M 361.931,414.897 H 247.172 c -4.875,0 -8.828,-3.953 -8.828,-8.828 v 0 c 0,-4.875 3.953,-8.828 8.828,-8.828 h 114.759 c 4.875,0 8.828,3.953 8.828,8.828 v 0 c 0,4.875 -3.953,8.828 -8.828,8.828 z"
   style="fill:#1a1a1a;stroke:none;stroke-width:5.87221479;stroke-miterlimit:4;stroke-dasharray:none;stroke-opacity:1"
   inkscape:connector-curvature="0" />

</g>
    <path
       id="path12996"
       d="m 4.6717762,9.6484774 c -0.084736,0 -0.1694723,-0.026828 -0.2341029,-0.080485 L 3.4442835,8.7437262 c -0.1293361,-0.1073127 -0.1293361,-0.281198 0,-0.3885107 0.1293362,-0.1073128 0.3389071,-0.1073128 0.4682432,0 L 4.6717762,8.9852111 6.0933105,7.8057355 c 0.1293361,-0.1073127 0.338907,-0.1073127 0.4682431,0 0.1293361,0.1073128 0.1293361,0.2811981 0,0.3885108 L 4.9059165,9.5679617 c -0.064668,0.053688 -0.1494042,0.080516 -0.2341403,0.080516 z"
       style="fill:#1a1a1a;stroke:none;stroke-width:0.20064126;stroke-miterlimit:4;stroke-dasharray:none;stroke-opacity:1"
       inkscape:connector-curvature="0" />
    <g
       transform="matrix(0.03751047,0,0,0.03112319,-1.6196299,0.03246986)"
       id="g13000"
       style="opacity:0.97000002;fill:#1a1a1a;stroke:none;stroke-width:5.87221479;stroke-miterlimit:4;stroke-dasharray:none;stroke-opacity:1">
	<path
   id="path12998"
   d="m 317.793,273.655 h -70.621 c -4.875,0 -8.828,-3.953 -8.828,-8.828 v 0 c 0,-4.875 3.953,-8.828 8.828,-8.828 h 70.621 c 4.875,0 8.828,3.953 8.828,8.828 v 0 c 0,4.876 -3.953,8.828 -8.828,8.828 z"
   style="fill:#1a1a1a;stroke:none;stroke-width:5.87221479;stroke-miterlimit:4;stroke-dasharray:none;stroke-opacity:1"
   inkscape:connector-curvature="0" />

</g>
    <g
       transform="matrix(0.03751047,0,0,0.03112319,-1.6196299,0.03246986)"
       id="g13004"
       style="opacity:0.97000002;fill:#1a1a1a;stroke:none;stroke-width:5.87221479;stroke-miterlimit:4;stroke-dasharray:none;stroke-opacity:1">
	<path
   id="path13002"
   d="M 361.931,308.966 H 247.172 c -4.875,0 -8.828,-3.953 -8.828,-8.828 v 0 c 0,-4.875 3.953,-8.828 8.828,-8.828 h 114.759 c 4.875,0 8.828,3.953 8.828,8.828 v 0 c 0,4.875 -3.953,8.828 -8.828,8.828 z"
   style="fill:#1a1a1a;stroke:none;stroke-width:5.87221479;stroke-miterlimit:4;stroke-dasharray:none;stroke-opacity:1"
   inkscape:connector-curvature="0" />

</g>
  </g>
  <g
     style="stroke:#141414;stroke-width:5.85344696;stroke-miterlimit:4;stroke-dasharray:none;stroke-opacity:1"
     id="g13006"
     transform="matrix(0.03751047,0,0,0.03112319,-1.6196299,0.03246986)">
</g>
  <g
     style="stroke:#141414;stroke-width:5.85344696;stroke-miterlimit:4;stroke-dasharray:none;stroke-opacity:1"
     id="g13008"
     transform="matrix(0.03751047,0,0,0.03112319,-1.6196299,0.03246986)">
</g>
  <g
     style="stroke:#141414;stroke-width:5.85344696;stroke-miterlimit:4;stroke-dasharray:none;stroke-opacity:1"
     id="g13010"
     transform="matrix(0.03751047,0,0,0.03112319,-1.6196299,0.03246986)">
</g>
  <g
     style="stroke:#141414;stroke-width:5.85344696;stroke-miterlimit:4;stroke-dasharray:none;stroke-opacity:1"
     id="g13012"
     transform="matrix(0.03751047,0,0,0.03112319,-1.6196299,0.03246986)">
</g>
  <g
     style="stroke:#141414;stroke-width:5.85344696;stroke-miterlimit:4;stroke-dasharray:none;stroke-opacity:1"
     id="g13014"
     transform="matrix(0.03751047,0,0,0.03112319,-1.6196299,0.03246986)">
</g>
  <g
     style="stroke:#141414;stroke-width:5.85344696;stroke-miterlimit:4;stroke-dasharray:none;stroke-opacity:1"
     id="g13016"
     transform="matrix(0.03751047,0,0,0.03112319,-1.6196299,0.03246986)">
</g>
  <g
     style="stroke:#141414;stroke-width:5.85344696;stroke-miterlimit:4;stroke-dasharray:none;stroke-opacity:1"
     id="g13018"
     transform="matrix(0.03751047,0,0,0.03112319,-1.6196299,0.03246986)">
</g>
  <g
     style="stroke:#141414;stroke-width:5.85344696;stroke-miterlimit:4;stroke-dasharray:none;stroke-opacity:1"
     id="g13020"
     transform="matrix(0.03751047,0,0,0.03112319,-1.6196299,0.03246986)">
</g>
  <g
     style="stroke:#141414;stroke-width:5.85344696;stroke-miterlimit:4;stroke-dasharray:none;stroke-opacity:1"
     id="g13022"
     transform="matrix(0.03751047,0,0,0.03112319,-1.6196299,0.03246986)">
</g>
  <g
     style="stroke:#141414;stroke-width:5.85344696;stroke-miterlimit:4;stroke-dasharray:none;stroke-opacity:1"
     id="g13024"
     transform="matrix(0.03751047,0,0,0.03112319,-1.6196299,0.03246986)">
</g>
  <g
     style="stroke:#141414;stroke-width:5.85344696;stroke-miterlimit:4;stroke-dasharray:none;stroke-opacity:1"
     id="g13026"
     transform="matrix(0.03751047,0,0,0.03112319,-1.6196299,0.03246986)">
</g>
  <g
     style="stroke:#141414;stroke-width:5.85344696;stroke-miterlimit:4;stroke-dasharray:none;stroke-opacity:1"
     id="g13028"
     transform="matrix(0.03751047,0,0,0.03112319,-1.6196299,0.03246986)">
</g>
  <g
     style="stroke:#141414;stroke-width:5.85344696;stroke-miterlimit:4;stroke-dasharray:none;stroke-opacity:1"
     id="g13030"
     transform="matrix(0.03751047,0,0,0.03112319,-1.6196299,0.03246986)">
</g>
  <g
     style="stroke:#141414;stroke-width:5.85344696;stroke-miterlimit:4;stroke-dasharray:none;stroke-opacity:1"
     id="g13032"
     transform="matrix(0.03751047,0,0,0.03112319,-1.6196299,0.03246986)">
</g>
  <g
     style="stroke:#141414;stroke-width:5.85344696;stroke-miterlimit:4;stroke-dasharray:none;stroke-opacity:1"
     id="g13034"
     transform="matrix(0.03751047,0,0,0.03112319,-1.6196299,0.03246986)">
</g>
</svg>
