<?xml version="1.0" encoding="UTF-8" standalone="no"?>
<svg
   xmlns:dc="http://purl.org/dc/elements/1.1/"
   xmlns:cc="http://creativecommons.org/ns#"
   xmlns:rdf="http://www.w3.org/1999/02/22-rdf-syntax-ns#"
   xmlns:svg="http://www.w3.org/2000/svg"
   xmlns="http://www.w3.org/2000/svg"
   xmlns:sodipodi="http://sodipodi.sourceforge.net/DTD/sodipodi-0.dtd"
   xmlns:inkscape="http://www.inkscape.org/namespaces/inkscape"
   width="512"
   height="512"
   viewBox="0 0 135.46666 135.46667"
   version="1.1"
   id="svg896"
   sodipodi:docname="logo.svg"
   inkscape:version="1.0.1 (3bc2e813f5, 2020-09-07)">
  <sodipodi:namedview
     pagecolor="#ffffff"
     bordercolor="#666666"
     borderopacity="1"
     objecttolerance="10"
     gridtolerance="10"
     guidetolerance="10"
     inkscape:pageopacity="0"
     inkscape:pageshadow="2"
     inkscape:window-width="1550"
     inkscape:window-height="836"
     id="namedview88"
     showgrid="false"
     inkscape:zoom="1.2597656"
     inkscape:cx="256"
     inkscape:cy="256"
     inkscape:window-x="50"
     inkscape:window-y="27"
     inkscape:window-maximized="1"
     inkscape:current-layer="svg896" />
  <title
     id="title1469">UNOLET - LOGO</title>
  <defs
     id="defs890" />
  <metadata
     id="metadata893">
    <rdf:RDF>
      <cc:Work
         rdf:about="">
        <dc:format>image/svg+xml</dc:format>
        <dc:type
           rdf:resource="http://purl.org/dc/dcmitype/StillImage" />
        <dc:title>UNOLET - LOGO</dc:title>
        <dc:creator>
          <cc:Agent>
            <dc:title>Unolet - Wilmer Martinez</dc:title>
          </cc:Agent>
        </dc:creator>
        <dc:source>https://www.unolet.com</dc:source>
        <dc:subject>
          <rdf:Bag>
            <rdf:li>Unolet</rdf:li>
          </rdf:Bag>
        </dc:subject>
        <dc:description>Unolet Software</dc:description>
        <dc:contributor>
          <cc:Agent>
            <dc:title>Wilmer Martinez</dc:title>
          </cc:Agent>
        </dc:contributor>
        <cc:license
           rdf:resource="https://www.unolet.com" />
      </cc:Work>
    </rdf:RDF>
  </metadata>
  <g
     id="g154">
    <g
       id="g142">
      <rect
         y="-0.40975434"
         x="-0.24707307"
         height="68.185272"
         width="136.13606"
         id="rect1453-9"
         style="fill:#ffffff;fill-opacity:1;stroke:#000000;stroke-width:0;stroke-miterlimit:4;stroke-dasharray:none;stroke-opacity:1;paint-order:markers fill stroke" />
      <rect
         y="67.77552"
         x="-0.24707307"
         height="68.185272"
         width="136.13606"
         id="rect1453"
         style="fill:#2d2d2d;fill-opacity:1;stroke:#000000;stroke-width:0;stroke-miterlimit:4;stroke-dasharray:none;stroke-opacity:1;paint-order:markers fill stroke" />
    </g>
    <g
       aria-label="UNOLET"
       transform="scale(0.95464109,1.0475141)"
       id="text1443"
       style="font-style:normal;font-variant:normal;font-weight:bold;font-stretch:normal;font-size:67.7333px;line-height:0.7;font-family:'Courier New';-inkscape-font-specification:'Courier New, Bold';font-variant-ligatures:normal;font-variant-caps:normal;font-variant-numeric:normal;font-variant-east-asian:normal;text-align:center;letter-spacing:0px;word-spacing:0px;text-anchor:middle;fill:#000000;fill-opacity:1;stroke:none;stroke-width:0.264583">
      <path
         d="m 47.924987,28.17264 v 19.215355 q 0,6.283851 -4.530987,10.682547 -4.497915,4.398696 -10.847912,4.398696 -3.141925,0 -5.920049,-1.091406 -2.74505,-1.124479 -4.960935,-3.274217 -2.182811,-2.149739 -3.406508,-4.464842 -1.223698,-2.348175 -1.223698,-6.250778 V 28.17264 q -2.149738,0 -3.174998,-0.959114 -1.02526,-0.959114 -1.02526,-2.447394 0,-1.521354 1.02526,-2.447395 1.02526,-0.926041 3.505727,-0.926041 l 8.89661,-0.03307 q 2.447395,0 3.472655,0.959114 1.058333,0.926041 1.058333,2.447395 0,1.521353 -1.058333,2.480467 -1.02526,0.926041 -3.472655,0.926041 h -2.447394 v 19.810668 q 0,3.042706 2.51354,5.390882 2.546614,2.315103 6.118487,2.315103 2.381249,0 4.464841,-1.124478 2.083593,-1.124479 3.406509,-3.274217 0.826822,-1.355989 0.826822,-3.30729 V 28.17264 h -2.447394 q -2.447395,0 -3.505728,-0.926041 -1.025259,-0.959114 -1.025259,-2.480467 0,-1.521354 1.025259,-2.447395 1.058333,-0.959114 3.505728,-0.959114 l 8.89661,0.03307 q 2.447395,0 3.472654,0.926041 1.058333,0.926041 1.058333,2.447395 0,1.48828 -1.02526,2.447394 -1.02526,0.959114 -3.174998,0.959114 z"
         style="font-style:normal;font-variant:normal;font-weight:bold;font-stretch:normal;font-size:67.7333px;font-family:'Courier New';-inkscape-font-specification:'Courier New, Bold';font-variant-ligatures:normal;font-variant-caps:normal;font-variant-numeric:normal;font-variant-east-asian:normal;text-align:center;text-anchor:middle;fill:#2d2d2d;fill-opacity:1;stroke-width:0.264583"
         id="path127" />
      <path
         d="m 62.472571,34.191908 v 20.505198 h 2.447394 q 2.447395,0 3.472655,0.959114 1.058333,0.926042 1.058333,2.447395 0,1.48828 -1.058333,2.447395 -1.02526,0.926041 -3.472655,0.926041 h -8.89661 q -2.447394,0 -3.505727,-0.926041 -1.02526,-0.959115 -1.02526,-2.480468 0,-1.455208 1.02526,-2.414322 1.02526,-0.959114 3.174998,-0.959114 V 28.17264 h -1.058332 q -2.447395,0 -3.505728,-0.926041 -1.02526,-0.959114 -1.02526,-2.480467 0,-1.521354 1.02526,-2.447395 1.058333,-0.959114 3.505728,-0.959114 l 7.838277,0.03307 L 79.80277,48.57862 V 28.17264 h -2.447394 q -2.447395,0 -3.505728,-0.926041 -1.025259,-0.959114 -1.025259,-2.480467 0,-1.521354 1.025259,-2.447395 1.058333,-0.959114 3.505728,-0.959114 l 8.89661,0.03307 q 2.447395,0 3.472654,0.926041 1.058333,0.926041 1.058333,2.447395 0,1.48828 -1.02526,2.447394 -1.02526,0.959114 -3.141925,0.959114 v 33.304411 h -6.713799 z"
         style="font-style:normal;font-variant:normal;font-weight:bold;font-stretch:normal;font-size:67.7333px;font-family:'Courier New';-inkscape-font-specification:'Courier New, Bold';font-variant-ligatures:normal;font-variant-caps:normal;font-variant-numeric:normal;font-variant-east-asian:normal;text-align:center;text-anchor:middle;fill:#2d2d2d;fill-opacity:1;stroke-width:0.264583"
         id="path129" />
      <path
         d="m 128.51466,41.434873 q 0,9.028902 -5.75468,15.04817 -5.72162,5.986195 -13.26224,5.986195 -6.77994,0 -12.23697,-4.994008 -6.746872,-6.184632 -6.746872,-16.040357 0,-9.855724 6.746872,-16.073429 5.45703,-4.994008 12.23697,-4.994008 7.54062,0 13.26224,6.019268 5.75468,5.986195 5.75468,15.048169 z m -6.77994,0 q 0,-6.184632 -3.73724,-10.219526 -3.73724,-4.067966 -8.49974,-4.067966 -4.72942,0 -8.46666,4.067966 -3.737238,4.067967 -3.737238,10.219526 0,6.15156 3.737238,10.219526 3.73724,4.034894 8.46666,4.034894 4.7625,0 8.49974,-4.034894 3.73724,-4.034893 3.73724,-10.219526 z"
         style="font-style:normal;font-variant:normal;font-weight:bold;font-stretch:normal;font-size:67.7333px;font-family:'Courier New';-inkscape-font-specification:'Courier New, Bold';font-variant-ligatures:normal;font-variant-caps:normal;font-variant-numeric:normal;font-variant-east-asian:normal;text-align:center;text-anchor:middle;fill:#ff0000;fill-opacity:1;stroke-width:0.264583"
         id="path131" />
      <path
         d="m 27.481443,75.585963 v 26.524467 h 14.618222 v -6.416144 q 0,-2.447394 0.926041,-3.472654 0.959114,-1.058333 2.480467,-1.058333 1.488281,0 2.414322,1.058333 0.959114,1.02526 0.959114,3.472654 V 108.89037 H 16.765823 q -2.447394,0 -3.505727,-0.92604 -1.02526,-0.95911 -1.02526,-2.48047 0,-1.48828 1.02526,-2.41432 1.058333,-0.95911 3.505727,-0.95911 h 3.935675 V 75.585963 h -3.935675 q -2.447394,0 -3.505727,-0.926041 -1.02526,-0.959114 -1.02526,-2.480468 0,-1.521353 1.02526,-2.447394 1.058333,-0.959115 3.505727,-0.959115 l 14.684368,0.03307 q 2.447395,0 3.472654,0.926042 1.058333,0.926041 1.058333,2.447394 0,1.521354 -1.058333,2.480468 -1.025259,0.926041 -3.472654,0.926041 z"
         style="font-style:normal;font-variant:normal;font-weight:bold;font-stretch:normal;font-size:67.7333px;font-family:'Courier New';-inkscape-font-specification:'Courier New, Bold';font-variant-ligatures:normal;font-variant-caps:normal;font-variant-numeric:normal;font-variant-east-asian:normal;text-align:center;letter-spacing:-2.12116px;text-anchor:middle;fill:#ffffff;stroke-width:0.264583"
         id="path133" />
      <path
         d="m 61.872767,92.155486 v 9.954944 h 17.297127 v -3.671093 q 0,-2.447395 0.926041,-3.472655 0.959114,-1.058332 2.480467,-1.058332 1.488281,0 2.414322,1.058332 0.959114,1.02526 0.959114,3.472655 V 108.89037 H 54.03449 q -2.447395,0 -3.505728,-0.92604 -1.02526,-0.95911 -1.02526,-2.48047 0,-1.48828 1.058333,-2.41432 1.058333,-0.95911 3.472655,-0.95911 h 1.058332 V 75.585963 H 54.03449 q -2.447395,0 -3.505728,-0.926041 -1.02526,-0.959114 -1.02526,-2.480468 0,-1.521353 1.02526,-2.447394 1.058333,-0.959115 3.505728,-0.959115 l 30.427068,0.03307 v 10.318745 q 0,2.414322 -0.926042,3.472655 -0.926041,1.02526 -2.447394,1.02526 -1.521354,0 -2.480468,-1.02526 -0.926041,-1.02526 -0.926041,-3.472655 v -3.5388 H 61.872767 v 9.789578 h 5.953122 q 0,-2.645832 0.496093,-3.406508 1.02526,-1.620572 2.910416,-1.620572 1.48828,0 2.414321,1.058332 0.959114,1.02526 0.959114,3.472655 v 7.805204 q 0,2.215885 -0.529166,2.976561 -1.058333,1.554427 -2.844269,1.554427 -1.885156,0 -2.910416,-1.620573 -0.496093,-0.760676 -0.496093,-3.439581 z"
         style="font-style:normal;font-variant:normal;font-weight:bold;font-stretch:normal;font-size:67.7333px;font-family:'Courier New';-inkscape-font-specification:'Courier New, Bold';font-variant-ligatures:normal;font-variant-caps:normal;font-variant-numeric:normal;font-variant-east-asian:normal;text-align:center;letter-spacing:-2.12116px;text-anchor:middle;fill:#ffffff;stroke-width:0.264583"
         id="path135" />
      <path
         d="m 110.6508,75.585963 v 26.524467 h 4.56406 q 2.4474,0 3.47266,0.95911 1.05833,0.92604 1.05833,2.4474 0,1.48828 -1.05833,2.44739 -1.02526,0.92604 -3.47266,0.92604 H 99.33987 q -2.447394,0 -3.505727,-0.92604 -1.02526,-0.95911 -1.02526,-2.48047 0,-1.48828 1.02526,-2.41432 1.058333,-0.95911 3.505727,-0.95911 h 4.53099 V 75.585963 h -7.342186 v 6.416143 q 0,2.447394 -0.959114,3.505727 -0.926041,1.02526 -2.447395,1.02526 -1.48828,0 -2.447394,-1.02526 Q 89.748729,84.4495 89.748729,82.002106 V 68.772945 l 35.123421,0.03307 v 13.196088 q 0,2.447394 -0.95911,3.505727 -0.92605,1.02526 -2.4474,1.02526 -1.48828,0 -2.44739,-1.02526 -0.92605,-1.058333 -0.92605,-3.505727 v -6.416143 z"
         style="font-style:normal;font-variant:normal;font-weight:bold;font-stretch:normal;font-size:67.7333px;font-family:'Courier New';-inkscape-font-specification:'Courier New, Bold';font-variant-ligatures:normal;font-variant-caps:normal;font-variant-numeric:normal;font-variant-east-asian:normal;text-align:center;letter-spacing:-2.12116px;text-anchor:middle;fill:#ffffff;stroke-width:0.264583"
         id="path137" />
    </g>
  </g>
  <flowRoot
     xml:space="preserve"
     id="flowRoot1457"
     style="font-style:normal;font-weight:normal;font-size:40px;line-height:1.25;font-family:sans-serif;letter-spacing:0px;word-spacing:0px;fill:#000000;fill-opacity:1;stroke:none"
     transform="translate(0,-161.53332)"><flowRegion
       id="flowRegion1459"><rect
         id="rect1461"
         width="28.014345"
         height="82.175415"
         x="170.88751"
         y="336.44342" /></flowRegion><flowPara
       id="flowPara1463" /></flowRoot>
</svg>
