<?xml version="1.0" encoding="UTF-8" standalone="no"?>
<!-- Generator: Adobe Illustrator 19.0.0, SVG Export Plug-In . SVG Version: 6.00 Build 0)  -->

<svg
   xmlns:dc="http://purl.org/dc/elements/1.1/"
   xmlns:cc="http://creativecommons.org/ns#"
   xmlns:rdf="http://www.w3.org/1999/02/22-rdf-syntax-ns#"
   xmlns:svg="http://www.w3.org/2000/svg"
   xmlns="http://www.w3.org/2000/svg"
   xmlns:sodipodi="http://sodipodi.sourceforge.net/DTD/sodipodi-0.dtd"
   xmlns:inkscape="http://www.inkscape.org/namespaces/inkscape"
   version="1.1"
   id="Capa_1"
   x="0px"
   y="0px"
   viewBox="0 0 512 512"
   style="enable-background:new 0 0 512 512;"
   xml:space="preserve"
   sodipodi:docname="reporte.svg"
   inkscape:version="0.92.4 (5da689c313, 2019-01-14)"><metadata
   id="metadata83"><rdf:RDF><cc:Work
       rdf:about=""><dc:format>image/svg+xml</dc:format><dc:type
         rdf:resource="http://purl.org/dc/dcmitype/StillImage" /></cc:Work></rdf:RDF></metadata><defs
   id="defs81" /><sodipodi:namedview
   pagecolor="#ffffff"
   bordercolor="#666666"
   borderopacity="1"
   objecttolerance="10"
   gridtolerance="10"
   guidetolerance="10"
   inkscape:pageopacity="0"
   inkscape:pageshadow="2"
   inkscape:window-width="1366"
   inkscape:window-height="705"
   id="namedview79"
   showgrid="false"
   inkscape:zoom="0.4609375"
   inkscape:cx="256"
   inkscape:cy="256"
   inkscape:window-x="-8"
   inkscape:window-y="-8"
   inkscape:window-maximized="1"
   inkscape:current-layer="Capa_1" />
<path
   style="fill:#e6e6e6"
   d="m 440.03269,474.52051 v 35.31 H 86.928695 V 33.140508 h 114.758995 123.586 114.759 V 245.00251 Z"
   id="path2"
   inkscape:connector-curvature="0" />
<path
   style="fill:#8c6239"
   d="m 325.27369,33.140508 v 26.483 c 0,4.873 -3.955,8.828 -8.828,8.828 h -105.931 c -4.873,0 -8.828,-3.955 -8.828,-8.828 V 6.6585085 c 0,-4.873 3.955,-8.828 8.828,-8.828 h 105.931 c 4.873,0 8.828,3.955 8.828,8.828 z"
   id="path4"
   inkscape:connector-curvature="0" />



<path
   style="fill:#f8cf26"
   d="m 204.84769,149.36451 c -4.97,-6.471 -12.659,-10.275 -20.815,-10.293 v -35.31 c 19.068,0 37.058,8.819 48.728,23.887 z"
   id="path12"
   inkscape:connector-curvature="0" />
<path
   style="fill:#ed1c24"
   d="m 204.84769,149.36451 c 3.655,4.608 5.65,10.311 5.667,16.19 h 35.31 c 0,-13.736 -4.599,-27.083 -13.065,-37.906 z"
   id="path14"
   inkscape:connector-curvature="0" />
<path
   style="fill:#39b54a"
   d="m 162.52869,150.19451 c 4.943,-6.965 12.959,-11.114 21.504,-11.123 v -35.31 c -19.95,0 -38.674,9.649 -50.238,25.909 z"
   id="path16"
   inkscape:connector-curvature="0" />
<path
   style="fill:#06aae9"
   d="m 162.52869,150.19451 c -8.536,11.873 -5.826,28.425 6.047,36.961 11.873,8.536 28.425,5.826 36.961,-6.047 3.257,-4.529 4.996,-9.975 4.979,-15.554 h 35.31 c 0.053,34.127 -27.569,61.837 -61.696,61.89 -34.127,0.053 -61.837,-27.569 -61.89,-61.696 -0.018,-12.941 4.025,-25.556 11.555,-36.078 z"
   id="path18"
   inkscape:connector-curvature="0" />
<g
   id="g28"
   transform="translate(78.101695,-2.1694915)">
	<path
   style="fill:#29485a"
   d="M 211.862,105.931 H 326.62 v 17.655 H 211.862 Z"
   id="path20"
   inkscape:connector-curvature="0" />
	<path
   style="fill:#29485a"
   d="M 211.862,141.241 H 326.62 v 17.655 H 211.862 Z"
   id="path22"
   inkscape:connector-curvature="0" />
	<path
   style="fill:#29485a"
   d="M 211.862,176.552 H 326.62 v 17.655 H 211.862 Z"
   id="path24"
   inkscape:connector-curvature="0" />
	<path
   style="fill:#29485a"
   d="m 211.862,211.862 h 61.793 v 17.655 h -61.793 v -17.655 z"
   id="path26"
   inkscape:connector-curvature="0" />
</g>
<path
   style="fill:#ed1c24"
   d="m 122.23969,430.38251 h 26.482 v 44.138 h -26.482 z"
   id="path30"
   inkscape:connector-curvature="0" />
<g
   id="g38"
   transform="translate(78.101695,-2.1694915)">
	<path
   style="fill:#0071bc"
   d="m 97.103,397.241 h 26.483 v 79.448 H 97.103 Z"
   id="path32"
   inkscape:connector-curvature="0" />
	<path
   style="fill:#0071bc"
   d="m 150.069,353.103 h 26.483 V 476.69 h -26.483 z"
   id="path34"
   inkscape:connector-curvature="0" />
	<path
   style="fill:#0071bc"
   d="m 203.034,308.966 h 26.483 V 476.69 h -26.483 z"
   id="path36"
   inkscape:connector-curvature="0" />
</g>
<g
   id="g46"
   transform="translate(78.101695,-2.1694915)">
	<path
   style="fill:#29485a"
   d="m 35.31,256 h 70.621 v 17.655 H 35.31 Z"
   id="path40"
   inkscape:connector-curvature="0" />
	<path
   style="fill:#29485a"
   d="m 35.31,282.483 h 70.621 v 17.655 H 35.31 Z"
   id="path42"
   inkscape:connector-curvature="0" />
	<path
   style="fill:#29485a"
   d="m 35.31,308.966 h 35.31 v 17.655 H 35.31 Z"
   id="path44"
   inkscape:connector-curvature="0" />
</g>
<g
   id="g48">
</g>
<g
   id="g50">
</g>
<g
   id="g52">
</g>
<g
   id="g54">
</g>
<g
   id="g56">
</g>
<g
   id="g58">
</g>
<g
   id="g60">
</g>
<g
   id="g62">
</g>
<g
   id="g64">
</g>
<g
   id="g66">
</g>
<g
   id="g68">
</g>
<g
   id="g70">
</g>
<g
   id="g72">
</g>
<g
   id="g74">
</g>
<g
   id="g76">
</g>
</svg>