<?xml version="1.0" encoding="iso-8859-1"?>
<!-- Generator: Adobe Illustrator 19.0.0, SVG Export Plug-In . SVG Version: 6.00 Build 0)  -->
<svg version="1.1" id="Layer_1" xmlns="http://www.w3.org/2000/svg" xmlns:xlink="http://www.w3.org/1999/xlink" x="0px" y="0px"
	 viewBox="0 0 496.159 496.159" style="enable-background:new 0 0 496.159 496.159;" xml:space="preserve">
<path style="fill:#D61E1E;" d="M248.083,0.003C111.071,0.003,0,111.063,0,248.085c0,137.001,111.07,248.07,248.083,248.07
	c137.006,0,248.076-111.069,248.076-248.07C496.159,111.062,385.089,0.003,248.083,0.003z"/>
<path style="fill:#F4EDED;" d="M248.082,39.002C132.609,39.002,39,132.602,39,248.084c0,115.463,93.609,209.072,209.082,209.072
	c115.468,0,209.077-93.609,209.077-209.072C457.159,132.602,363.55,39.002,248.082,39.002z"/>
<path style="fill:#5B5147;" d="M367.084,145.289c-5.992-12.249-13.903-21.775-23.728-28.575c-9.83-6.797-22.012-11.41-36.553-13.833
	c-10.368-1.884-25.378-2.828-45.033-2.828H150.094v296.051h39.178V275.746h75.931c41.869,0,70.813-8.715,86.837-26.152
	c16.019-17.434,24.031-38.739,24.031-63.915C376.071,171.005,373.073,157.541,367.084,145.289z M319.727,226.673
	c-10.636,9.426-28.61,14.136-53.919,14.136h-76.537V134.99H265c17.771,0,29.954,0.877,36.552,2.625
	c10.23,2.827,18.478,8.652,24.738,17.468c6.26,8.819,9.39,19.422,9.39,31.807C335.681,203.989,330.362,217.251,319.727,226.673z"/>
<path style="fill:#D61E1E;" d="M85.851,60.394c-9.086,7.86-17.596,16.37-25.457,25.456l349.914,349.914
	c9.086-7.861,17.596-16.37,25.456-25.456L85.851,60.394z"/>
<g>
</g>
<g>
</g>
<g>
</g>
<g>
</g>
<g>
</g>
<g>
</g>
<g>
</g>
<g>
</g>
<g>
</g>
<g>
</g>
<g>
</g>
<g>
</g>
<g>
</g>
<g>
</g>
<g>
</g>
</svg>
