<svg height="480pt" viewBox="0 0 480.05401 480" width="480pt" xmlns="http://www.w3.org/2000/svg"><path d="m64 320.03125v-72h-56v224h464v-56h-312c-53.019531 0-96-42.980469-96-96zm0 0" fill="#cff09e"/><path d="m64 280.03125h32v160h-32zm0 0" fill="#a8dba8"/><path d="m128 280.03125h32v160h-32zm0 0" fill="#a8dba8"/><path d="m192 280.03125h32v160h-32zm0 0" fill="#a8dba8"/><path d="m256 280.03125h32v160h-32zm0 0" fill="#a8dba8"/><path d="m320 280.03125h32v160h-32zm0 0" fill="#a8dba8"/><path d="m384 280.03125h32v160h-32zm0 0" fill="#a8dba8"/><path d="m256 72.03125c-9.992188.019531-19.332031-4.96875-24.878906-13.28125l-11.359375-17.121094c-6.929688-10.128906-6.929688-23.46875 0-33.597656h-3.761719l-24 32 32 48h32l12.558594-18.800781c-3.941406 1.8125-8.222656 2.765625-12.558594 2.800781zm0 0" fill="#cff09e"/><g fill="#3b8686"><path d="m480 248.03125c.039062-.613281.039062-1.226562 0-1.839844.070312-.398437.070312-.804687 0-1.199218-.191406-.449219-.460938-.855469-.800781-1.203126-.199219-.484374-.5-.917968-.878907-1.277343-.300781-.242188-.621093-.457031-.960937-.640625-.515625-.4375-1.078125-.8125-1.679687-1.121094l-214.238282-80.71875c6.785156-6.125 10.628906-14.859375 10.558594-24-.011719-14.582031-9.878906-27.316406-24-30.960938v-9.039062h8c2.675781-.015625 5.167969-1.367188 6.640625-3.601562l32-48c1.9375-2.757813 1.9375-6.4375 0-9.199219l-24-32c-1.5625-2.082031-4.039063-3.277344-6.640625-3.199219h-48c-2.519531 0-4.890625 1.183594-6.398438 3.199219l-24 32c-1.941406 2.761719-1.941406 6.441406 0 9.199219l32 48c1.421876 2.167968 3.808594 3.507812 6.398438 3.601562h8v16c0 4.417969 3.582031 8 8 8 8.835938 0 16 7.164062 16 16s-7.164062 16-16 16-16-7.164062-16-16c0-4.417969-3.582031-8-8-8s-8 3.582031-8 8c-.070312 9.140625 3.773438 17.875 10.558594 24l-213.359375 80.558594c-.589844.328125-1.152344.703125-1.679688 1.121094-.335937.183593-.660156.398437-.960937.640624-.378906.359376-.679688.792969-.878906 1.277344-.339844.347656-.609376.753906-.800782 1.203125-.035156.398438-.035156.800781 0 1.199219-.339844.644531-.632812 1.3125-.878906 2v224c0 4.417969 3.582031 8 8 8h464c4.417969 0 8-3.582031 8-8zm-278.238281-208 18.238281-24h40l18.238281 24-26.558593 40h-23.359376zm184.476562 200-68.878906-42.082031 111.039063 42.082031zm-334.636719 0 111.039063-42.082031-68.878906 42.082031zm188.398438-70.640625 115.601562 70.640625h-231.203124zm224 294.640625h-448v-208h448zm0 0"/><path d="m96 272.03125h-32c-4.417969 0-8 3.582031-8 8v160c0 4.417969 3.582031 8 8 8h32c4.417969 0 8-3.582031 8-8v-160c0-4.417969-3.582031-8-8-8zm-8 160h-16v-144h16zm0 0"/><path d="m160 272.03125h-32c-4.417969 0-8 3.582031-8 8v160c0 4.417969 3.582031 8 8 8h32c4.417969 0 8-3.582031 8-8v-160c0-4.417969-3.582031-8-8-8zm-8 160h-16v-144h16zm0 0"/><path d="m224 272.03125h-32c-4.417969 0-8 3.582031-8 8v160c0 4.417969 3.582031 8 8 8h32c4.417969 0 8-3.582031 8-8v-160c0-4.417969-3.582031-8-8-8zm-8 160h-16v-144h16zm0 0"/><path d="m288 272.03125h-32c-4.417969 0-8 3.582031-8 8v160c0 4.417969 3.582031 8 8 8h32c4.417969 0 8-3.582031 8-8v-160c0-4.417969-3.582031-8-8-8zm-8 160h-16v-144h16zm0 0"/><path d="m352 272.03125h-32c-4.417969 0-8 3.582031-8 8v160c0 4.417969 3.582031 8 8 8h32c4.417969 0 8-3.582031 8-8v-160c0-4.417969-3.582031-8-8-8zm-8 160h-16v-144h16zm0 0"/><path d="m376 280.03125v160c0 4.417969 3.582031 8 8 8h32c4.417969 0 8-3.582031 8-8v-160c0-4.417969-3.582031-8-8-8h-32c-4.417969 0-8 3.582031-8 8zm16 8h16v144h-16zm0 0"/></g></svg>