<?xml version="1.0" encoding="UTF-8" standalone="no"?>
<svg
   xmlns:dc="http://purl.org/dc/elements/1.1/"
   xmlns:cc="http://creativecommons.org/ns#"
   xmlns:rdf="http://www.w3.org/1999/02/22-rdf-syntax-ns#"
   xmlns:svg="http://www.w3.org/2000/svg"
   xmlns="http://www.w3.org/2000/svg"
   xmlns:sodipodi="http://sodipodi.sourceforge.net/DTD/sodipodi-0.dtd"
   xmlns:inkscape="http://www.inkscape.org/namespaces/inkscape"
   width="1em"
   height="1em"
   viewBox="0 0 16 16"
   class="bi bi-alarm"
   fill="currentColor"
   version="1.1"
   id="svg6797"
   sodipodi:docname="cliente.svg"
   inkscape:version="0.92.3 (2405546, 2018-03-11)">
  <metadata
     id="metadata6803">
    <rdf:RDF>
      <cc:Work
         rdf:about="">
        <dc:format>image/svg+xml</dc:format>
        <dc:type
           rdf:resource="http://purl.org/dc/dcmitype/StillImage" />
        <dc:title></dc:title>
      </cc:Work>
    </rdf:RDF>
  </metadata>
  <defs
     id="defs6801" />
  <sodipodi:namedview
     pagecolor="#ffffff"
     bordercolor="#666666"
     borderopacity="1"
     objecttolerance="10"
     gridtolerance="10"
     guidetolerance="10"
     inkscape:pageopacity="0"
     inkscape:pageshadow="2"
     inkscape:window-width="1600"
     inkscape:window-height="847"
     id="namedview6799"
     showgrid="true"
     inkscape:zoom="41.7193"
     inkscape:cx="7.8496093"
     inkscape:cy="7.8824215"
     inkscape:window-x="-8"
     inkscape:window-y="-8"
     inkscape:window-maximized="1"
     inkscape:current-layer="svg6797"
     inkscape:snap-global="false"
     showguides="false">
    <inkscape:grid
       type="xygrid"
       id="grid8461" />
  </sodipodi:namedview>
  <polygon
     style="fill:#e6af78;stroke-width:3.02433542;stroke:#141414;stroke-opacity:1;stroke-miterlimit:4;stroke-dasharray:none"
     points="335.446,361.939 335.446,300.15 176.558,300.15 176.558,361.939 256.002,432.556 "
     id="polygon13225"
     transform="matrix(0.03484422,0,0,0.03137685,-0.92637169,-0.00538878)" />
  <path
     inkscape:connector-curvature="0"
     style="fill:#d29b6e;stroke-width:1.00000012"
     d="M 5.2256541,9.4123727 V 11.457924 C 8.712794,12.589279 10.761983,9.7577691 10.761983,9.7577691 V 9.4123414 H 5.2256541 Z"
     id="path13229" />
  <path
     inkscape:connector-curvature="0"
     style="fill:#f0c087;stroke-width:0.1;stroke:#141414;stroke-opacity:1;stroke-miterlimit:4;stroke-dasharray:none"
     d="M 12.587994,6.5246044 12.240771,7.775317 c -0.04115,0.1482556 -0.18903,0.2522071 -0.358756,0.2522071 v 0 c -0.186521,0 -0.343808,-0.1250368 -0.366944,-0.2916792 L 11.33747,6.4566107 C 11.28994,6.1141952 11.586397,5.8117851 11.969614,5.8117851 h 2.78e-4 c 0.414507,3.14e-5 0.718627,0.3507304 0.618102,0.7128193 z"
     id="path13253" />
  <path
     inkscape:connector-curvature="0"
     style="fill:#e6af78;stroke-width:0.1;stroke:#141414;stroke-opacity:1;stroke-miterlimit:4;stroke-dasharray:none"
     d="M 3.3996428,6.5246044 3.7468654,7.775317 c 0.041151,0.1482556 0.1890299,0.2522071 0.3587561,0.2522071 v 0 c 0.1865211,0 0.3438079,-0.1250368 0.3669445,-0.2916792 L 4.650167,6.4566107 C 4.6976945,6.1141952 4.4012399,5.8117851 4.0180231,5.8117851 H 4.0177444 C 3.6032375,5.8118165 3.2991172,6.1625155 3.3996428,6.5246044 Z"
     id="path13259" />
  <path
     inkscape:connector-curvature="0"
     style="fill:#f0c087;stroke-width:0.1;stroke:#141414;stroke-opacity:1;stroke-miterlimit:4;stroke-dasharray:none"
     d="m 3.9953395,3.0421505 0.2680218,5.3098416 c 0.025018,0.4960366 0.2951305,0.9560526 0.7362583,1.2539758 L 6.271364,10.464878 c 0.3194518,0.215716 0.7079649,0.332375 1.1072796,0.332375 h 1.2303146 c 0.3993147,0 0.7878278,-0.116628 1.1072796,-0.332375 L 10.987982,9.6059679 c 0.441128,-0.2979546 0.71124,-0.7579078 0.736259,-1.2539758 l 0.268021,-5.3098416 c -3.5e-5,0 -7.9969225,0 -7.9969225,0 z"
     id="path13231" />
  <path
     inkscape:connector-curvature="0"
     style="fill:#e6af78;stroke-width:1.00000012"
     d="m 7.0711085,4.1500043 c 1.2303146,0 3.0757345,-0.2769634 3.5134475,-1.1078851 H 3.9953395 l 0.2680218,5.3098415 c 0.025018,0.4960366 0.2951305,0.9560213 0.7362932,1.2539758 l 1.2717443,0.8589095 c 0.3194518,0.215716 0.7079649,0.332375 1.1072797,0.332375 h 0.6151398 c -0.6151398,0 -1.8454544,-1.1078848 -1.8454544,-2.4927021 0,-0.6773007 0,-2.4927024 0,-3.3236242 0,-0.2769634 0.3075699,-0.8308904 0.9227446,-0.8308904 z"
     id="path13233" />
  <g
     style="fill:#000000;stroke:#141414;stroke-width:4.5188427;stroke-miterlimit:4;stroke-dasharray:none;stroke-opacity:1"
     id="g7673"
     transform="matrix(0.02130141,0,0,0.0229899,0.05986501,0.01799283)" />
  <g
     style="fill:#000000;stroke:#141414;stroke-width:4.5188427;stroke-miterlimit:4;stroke-dasharray:none;stroke-opacity:1"
     id="g7675"
     transform="matrix(0.02130141,0,0,0.0229899,0.05986501,0.01799283)" />
  <g
     style="fill:#000000;stroke:#141414;stroke-width:4.5188427;stroke-miterlimit:4;stroke-dasharray:none;stroke-opacity:1"
     id="g7677"
     transform="matrix(0.02130141,0,0,0.0229899,0.05986501,0.01799283)" />
  <g
     style="fill:#000000;stroke:#141414;stroke-width:4.5188427;stroke-miterlimit:4;stroke-dasharray:none;stroke-opacity:1"
     id="g7679"
     transform="matrix(0.02130141,0,0,0.0229899,0.05986501,0.01799283)" />
  <g
     style="fill:#000000;stroke:#141414;stroke-width:4.5188427;stroke-miterlimit:4;stroke-dasharray:none;stroke-opacity:1"
     id="g7681"
     transform="matrix(0.02130141,0,0,0.0229899,0.05986501,0.01799283)" />
  <g
     style="fill:#000000;stroke:#141414;stroke-width:4.5188427;stroke-miterlimit:4;stroke-dasharray:none;stroke-opacity:1"
     id="g7683"
     transform="matrix(0.02130141,0,0,0.0229899,0.05986501,0.01799283)" />
  <g
     style="fill:#000000;stroke:#141414;stroke-width:4.5188427;stroke-miterlimit:4;stroke-dasharray:none;stroke-opacity:1"
     id="g7685"
     transform="matrix(0.02130141,0,0,0.0229899,0.05986501,0.01799283)" />
  <g
     style="fill:#000000;stroke:#141414;stroke-width:4.5188427;stroke-miterlimit:4;stroke-dasharray:none;stroke-opacity:1"
     id="g7687"
     transform="matrix(0.02130141,0,0,0.0229899,0.05986501,0.01799283)" />
  <g
     style="fill:#000000;stroke:#141414;stroke-width:4.5188427;stroke-miterlimit:4;stroke-dasharray:none;stroke-opacity:1"
     id="g7689"
     transform="matrix(0.02130141,0,0,0.0229899,0.05986501,0.01799283)" />
  <g
     style="fill:#000000;stroke:#141414;stroke-width:4.5188427;stroke-miterlimit:4;stroke-dasharray:none;stroke-opacity:1"
     id="g7691"
     transform="matrix(0.02130141,0,0,0.0229899,0.05986501,0.01799283)" />
  <g
     style="fill:#000000;stroke:#141414;stroke-width:4.5188427;stroke-miterlimit:4;stroke-dasharray:none;stroke-opacity:1"
     id="g7693"
     transform="matrix(0.02130141,0,0,0.0229899,0.05986501,0.01799283)" />
  <g
     style="fill:#000000;stroke:#141414;stroke-width:4.5188427;stroke-miterlimit:4;stroke-dasharray:none;stroke-opacity:1"
     id="g7695"
     transform="matrix(0.02130141,0,0,0.0229899,0.05986501,0.01799283)" />
  <g
     style="fill:#000000;stroke:#141414;stroke-width:4.5188427;stroke-miterlimit:4;stroke-dasharray:none;stroke-opacity:1"
     id="g7697"
     transform="matrix(0.02130141,0,0,0.0229899,0.05986501,0.01799283)" />
  <g
     style="fill:#000000;stroke:#141414;stroke-width:4.5188427;stroke-miterlimit:4;stroke-dasharray:none;stroke-opacity:1"
     id="g7699"
     transform="matrix(0.02130141,0,0,0.0229899,0.05986501,0.01799283)" />
  <g
     style="fill:#000000;stroke:#141414;stroke-width:4.5188427;stroke-miterlimit:4;stroke-dasharray:none;stroke-opacity:1"
     id="g7701"
     transform="matrix(0.02130141,0,0,0.0229899,0.05986501,0.01799283)" />
  <g
     style="stroke:#141414;stroke-width:5.85344696;stroke-miterlimit:4;stroke-dasharray:none;stroke-opacity:1"
     id="g13006"
     transform="matrix(0.03751047,0,0,0.03112319,-1.6196299,0.03246986)">
</g>
  <g
     style="stroke:#141414;stroke-width:5.85344696;stroke-miterlimit:4;stroke-dasharray:none;stroke-opacity:1"
     id="g13008"
     transform="matrix(0.03751047,0,0,0.03112319,-1.6196299,0.03246986)">
</g>
  <g
     style="stroke:#141414;stroke-width:5.85344696;stroke-miterlimit:4;stroke-dasharray:none;stroke-opacity:1"
     id="g13010"
     transform="matrix(0.03751047,0,0,0.03112319,-1.6196299,0.03246986)">
</g>
  <g
     style="stroke:#141414;stroke-width:5.85344696;stroke-miterlimit:4;stroke-dasharray:none;stroke-opacity:1"
     id="g13012"
     transform="matrix(0.03751047,0,0,0.03112319,-1.6196299,0.03246986)">
</g>
  <g
     style="stroke:#141414;stroke-width:5.85344696;stroke-miterlimit:4;stroke-dasharray:none;stroke-opacity:1"
     id="g13014"
     transform="matrix(0.03751047,0,0,0.03112319,-1.6196299,0.03246986)">
</g>
  <g
     style="stroke:#141414;stroke-width:5.85344696;stroke-miterlimit:4;stroke-dasharray:none;stroke-opacity:1"
     id="g13016"
     transform="matrix(0.03751047,0,0,0.03112319,-1.6196299,0.03246986)">
</g>
  <g
     style="stroke:#141414;stroke-width:5.85344696;stroke-miterlimit:4;stroke-dasharray:none;stroke-opacity:1"
     id="g13018"
     transform="matrix(0.03751047,0,0,0.03112319,-1.6196299,0.03246986)">
</g>
  <g
     style="stroke:#141414;stroke-width:5.85344696;stroke-miterlimit:4;stroke-dasharray:none;stroke-opacity:1"
     id="g13020"
     transform="matrix(0.03751047,0,0,0.03112319,-1.6196299,0.03246986)">
</g>
  <g
     style="stroke:#141414;stroke-width:5.85344696;stroke-miterlimit:4;stroke-dasharray:none;stroke-opacity:1"
     id="g13022"
     transform="matrix(0.03751047,0,0,0.03112319,-1.6196299,0.03246986)">
</g>
  <g
     style="stroke:#141414;stroke-width:5.85344696;stroke-miterlimit:4;stroke-dasharray:none;stroke-opacity:1"
     id="g13024"
     transform="matrix(0.03751047,0,0,0.03112319,-1.6196299,0.03246986)">
</g>
  <g
     style="stroke:#141414;stroke-width:5.85344696;stroke-miterlimit:4;stroke-dasharray:none;stroke-opacity:1"
     id="g13026"
     transform="matrix(0.03751047,0,0,0.03112319,-1.6196299,0.03246986)">
</g>
  <g
     style="stroke:#141414;stroke-width:5.85344696;stroke-miterlimit:4;stroke-dasharray:none;stroke-opacity:1"
     id="g13028"
     transform="matrix(0.03751047,0,0,0.03112319,-1.6196299,0.03246986)">
</g>
  <g
     style="stroke:#141414;stroke-width:5.85344696;stroke-miterlimit:4;stroke-dasharray:none;stroke-opacity:1"
     id="g13030"
     transform="matrix(0.03751047,0,0,0.03112319,-1.6196299,0.03246986)">
</g>
  <g
     style="stroke:#141414;stroke-width:5.85344696;stroke-miterlimit:4;stroke-dasharray:none;stroke-opacity:1"
     id="g13032"
     transform="matrix(0.03751047,0,0,0.03112319,-1.6196299,0.03246986)">
</g>
  <g
     style="stroke:#141414;stroke-width:5.85344696;stroke-miterlimit:4;stroke-dasharray:none;stroke-opacity:1"
     id="g13034"
     transform="matrix(0.03751047,0,0,0.03112319,-1.6196299,0.03246986)">
</g>
  <path
     inkscape:connector-curvature="0"
     style="fill:#eff2fa;stroke-width:0.1;stroke:#141414;stroke-opacity:1;stroke-miterlimit:4;stroke-dasharray:none"
     d="m 15.042247,12.258033 -3.806,-0.806416 c -0.05749,-0.01217 -0.110351,-0.03285 -0.15983,-0.05792 L 7.9937835,13.01296 5.0313627,11.315379 c -0.076692,0.06501 -0.1718865,0.113333 -0.2800081,0.136269 l -3.80599932,0.806417 c -0.55576531,0.117757 -0.94852936,0.564312 -0.94852936,1.078422 v 2.169207 c 0,0.305956 0.27540871,0.553927 0.61513986,0.553927 H 15.375531 c 0.339766,0 0.61514,-0.248002 0.61514,-0.553927 v -2.169207 c 7e-5,-0.514141 -0.392694,-0.960728 -0.948424,-1.078454 z"
     id="path13227" />
  <g
     style="stroke-width:30.24335861"
     id="g13239"
     transform="matrix(0.03484422,0,0,0.03137685,-0.92637169,-0.00538878)">
	<path
   inkscape:connector-curvature="0"
   style="fill:#e4eaf6;stroke-width:30.24335861"
   d="M 91.3,454.714 34.101,403.332 c -4.793,6.069 -7.603,13.706 -7.603,21.882 v 69.134 c 0,9.751 7.904,17.654 17.654,17.654 h 61.79 V 487.548 C 105.941,475.021 100.618,463.084 91.3,454.714 Z"
   id="path13235" />

	<path
   inkscape:connector-curvature="0"
   style="fill:#e4eaf6;stroke-width:30.24335861"
   d="m 420.705,454.714 57.199,-51.382 c 4.793,6.069 7.603,13.706 7.603,21.882 v 69.134 c 0,9.751 -7.904,17.654 -17.654,17.654 h -61.79 v -24.454 c 0,-12.527 5.323,-24.464 14.642,-32.834 z"
   id="path13237" />

</g>
  <polygon
     style="fill:#5b5d6e;stroke-width:3.02433542;stroke:#141414;stroke-opacity:1;stroke-miterlimit:4;stroke-dasharray:none"
     points="233.934,512.001 239.451,432.556 272.553,432.556 278.07,512.001 "
     id="polygon13241"
     transform="matrix(0.03484422,0,0,0.03137685,-0.92637169,-0.00538878)" />
  <path
     inkscape:connector-curvature="0"
     style="fill:#515262;stroke-width:0.1;stroke:#141414;stroke-opacity:1;stroke-miterlimit:4;stroke-dasharray:none"
     d="M 8.7627606,13.012929 H 7.2248761 v 0.521264 c 0,0.171035 0.1539417,0.309658 0.3438776,0.309658 h 0.8500944 c 0.1899359,0 0.3438776,-0.138623 0.3438776,-0.309658 v -0.521264 z"
     id="path13243" />
  <g
     style="stroke-width:3.02433542;stroke:#141414;stroke-opacity:1;stroke-miterlimit:4;stroke-dasharray:none"
     id="g13249"
     transform="matrix(0.03484422,0,0,0.03137685,-0.92637169,-0.00538878)">
	<path
   inkscape:connector-curvature="0"
   style="fill:#e4eaf6;stroke-width:3.02433542;stroke:#141414;stroke-opacity:1;stroke-miterlimit:4;stroke-dasharray:none"
   d="m 175.319,342.287 80.684,72.615 c 0,0 -22.596,11.407 -50.48,34.398 -5.752,4.742 -14.453,2.821 -17.538,-3.966 L 150.078,361.94 162.07,343.953 c 2.984,-4.48 9.248,-5.266 13.249,-1.666 z"
   id="path13245" />

	<path
   inkscape:connector-curvature="0"
   style="fill:#e4eaf6;stroke-width:3.02433542;stroke:#141414;stroke-opacity:1;stroke-miterlimit:4;stroke-dasharray:none"
   d="m 336.686,342.287 -80.684,72.615 c 0,0 22.596,11.407 50.48,34.398 5.752,4.742 14.453,2.821 17.538,-3.966 l 37.907,-83.394 -11.992,-17.987 c -2.985,-4.48 -9.249,-5.266 -13.249,-1.666 z"
   id="path13247" />

</g>
  <path
     inkscape:connector-curvature="0"
     style="fill:#785550;stroke-width:0.1;stroke:#141414;stroke-opacity:1;stroke-miterlimit:4;stroke-dasharray:none"
     d="m 9.8584719,1.2072323 0.2883361,1.8349182 c 1.31624,0.2370521 1.505932,2.0971346 1.53325,2.6284074 0.0049,0.096421 0.03913,0.1895162 0.09721,0.2706253 l 0.50221,0.7015236 c 0,0 -0.171886,-1.1598139 0.61514,-1.9387755 3.5e-5,0 0.270287,-4.60458415 -3.0361511,-3.496699 z"
     id="path13251" />
  <path
     inkscape:connector-curvature="0"
     style="fill:#694b4b;stroke-width:0.1;stroke-miterlimit:4;stroke-dasharray:none;stroke:#141414;stroke-opacity:1"
     d="M 4.2901216,0.71097608 4.7450478,0.99082621 C 2.6881586,2.3583548 3.0725949,4.7039313 3.0725949,4.7039313 3.6877348,5.2578582 3.6877348,6.6427068 3.6877348,6.6427068 L 4.3028746,6.0887799 c 0,0 -0.2373936,-1.6001566 0.9227098,-2.215739 1.0765122,-0.5712469 2.018456,-0.2769635 2.9796338,-0.2769635 2.5759288,0 3.2968208,-0.8741904 3.1718698,-1.9387755 -0.06467,-0.550852 -0.99996,-1.6983034 -3.3833045,-1.66181213 C 7.0319436,0.01020551 5.2256541,0.27245323 4.2901216,0.71097608 Z"
     id="path13255" />
  <path
     inkscape:connector-curvature="0"
     style="fill:#5a4146;stroke-width:1.00000012"
     d="m 4.1106739,3.3537227 c 0,0 -0.3268039,-1.1598139 0.6343739,-2.36286512 C 2.6881586,2.3583862 3.0725949,4.7039626 3.0725949,4.7039626 3.6877348,5.2578895 3.6877348,6.6427382 3.6877348,6.6427382 L 4.3028746,6.0888113 c 0,0 -0.2373936,-1.6001566 0.9227098,-2.215739 1.0765122,-0.571247 2.018456,-0.2769635 2.9796338,-0.2769635 0.4189321,0 0.783995,-0.025258 1.1091612,-0.068558 -1.9837511,0.059867 -3.153158,-1.29326 -5.2037055,-0.1738281 z"
     id="path13257" />
  <path
     inkscape:connector-curvature="0"
     style="fill:#e4eaf6;stroke-width:1.00000012"
     d="M 11.992297,15.505632 H 9.8392727 c -0.1698655,0 -0.3075699,0.124001 -0.3075699,0.276963 v 0.276963 h 2.7681642 v -0.276963 c 0,-0.152931 -0.137739,-0.276963 -0.30757,-0.276963 z"
     id="path13261" />
  <g
     style="stroke-width:30.24335861"
     id="g13263"
     transform="matrix(0.03484422,0,0,0.03137685,-0.92637169,-0.00538878)">
</g>
  <g
     style="stroke-width:30.24335861"
     id="g13265"
     transform="matrix(0.03484422,0,0,0.03137685,-0.92637169,-0.00538878)">
</g>
  <g
     style="stroke-width:30.24335861"
     id="g13267"
     transform="matrix(0.03484422,0,0,0.03137685,-0.92637169,-0.00538878)">
</g>
  <g
     style="stroke-width:30.24335861"
     id="g13269"
     transform="matrix(0.03484422,0,0,0.03137685,-0.92637169,-0.00538878)">
</g>
  <g
     style="stroke-width:30.24335861"
     id="g13271"
     transform="matrix(0.03484422,0,0,0.03137685,-0.92637169,-0.00538878)">
</g>
  <g
     style="stroke-width:30.24335861"
     id="g13273"
     transform="matrix(0.03484422,0,0,0.03137685,-0.92637169,-0.00538878)">
</g>
  <g
     style="stroke-width:30.24335861"
     id="g13275"
     transform="matrix(0.03484422,0,0,0.03137685,-0.92637169,-0.00538878)">
</g>
  <g
     style="stroke-width:30.24335861"
     id="g13277"
     transform="matrix(0.03484422,0,0,0.03137685,-0.92637169,-0.00538878)">
</g>
  <g
     style="stroke-width:30.24335861"
     id="g13279"
     transform="matrix(0.03484422,0,0,0.03137685,-0.92637169,-0.00538878)">
</g>
  <g
     style="stroke-width:30.24335861"
     id="g13281"
     transform="matrix(0.03484422,0,0,0.03137685,-0.92637169,-0.00538878)">
</g>
  <g
     style="stroke-width:30.24335861"
     id="g13283"
     transform="matrix(0.03484422,0,0,0.03137685,-0.92637169,-0.00538878)">
</g>
  <g
     style="stroke-width:30.24335861"
     id="g13285"
     transform="matrix(0.03484422,0,0,0.03137685,-0.92637169,-0.00538878)">
</g>
  <g
     style="stroke-width:30.24335861"
     id="g13287"
     transform="matrix(0.03484422,0,0,0.03137685,-0.92637169,-0.00538878)">
</g>
  <g
     style="stroke-width:30.24335861"
     id="g13289"
     transform="matrix(0.03484422,0,0,0.03137685,-0.92637169,-0.00538878)">
</g>
  <g
     style="stroke-width:30.24335861"
     id="g13291"
     transform="matrix(0.03484422,0,0,0.03137685,-0.92637169,-0.00538878)">
</g>
</svg>
