<svg height="464pt" viewBox="0 0 464 464" width="464pt" xmlns="http://www.w3.org/2000/svg"><path d="m32 0h400c17.671875 0 32 14.328125 32 32v320c0 17.671875-14.328125 32-32 32h-400c-17.671875 0-32-14.328125-32-32v-320c0-17.671875 14.328125-32 32-32zm0 0" fill="#ebebeb"/><path d="m432 384h-400c-17.671875 0-32-14.328125-32-32v-16h464v16c0 17.671875-14.328125 32-32 32zm0 0" fill="#dbdbdb"/><path d="m120 432h224c8.835938 0 16 7.164062 16 16v16h-256v-16c0-8.835938 7.164062-16 16-16zm0 0" fill="#b9b9b9"/><path d="m280 432h-96l16-48h64zm0 0" fill="#b9b9b9"/><path d="m48 240h32v64h-32zm0 0" fill="#e0e0e0"/><path d="m360 240h56v64h-56zm0 0" fill="#e0e0e0"/><path d="m80 240h280v64h-280zm0 0" fill="#e6e6e6"/><path d="m416 232h-368c-4.417969 0-8 3.582031-8 8v64c0 4.417969 3.582031 8 8 8h368c4.417969 0 8-3.582031 8-8v-64c0-4.417969-3.582031-8-8-8zm-8 16v16h-40v-16zm-320 16v-16h264v16zm264 16v16h-264v-16zm-296-32h16v16h-16zm0 48v-16h16v16zm352 0h-40v-16h40zm0 0" fill="#d9d9d9"/><path d="m80 152c-.238281 0-.480469 0-.71875 0-2.75-.261719-5.167969-1.921875-6.402344-4.390625l-32-64 14.320313-7.152344 26.207031 52.414063 16.195312-21.671875c1.386719-1.863281 3.515626-3.03125 5.832032-3.199219 2.3125-.183594 4.589844.667969 6.222656 2.320312l15.265625 15.28125 16.933594-44.457031c.933593-2.429687 2.988281-4.25 5.511719-4.886719 2.519531-.636718 5.195312-.007812 7.167968 1.6875l10.890625 9.335938 11.414063-22.832031c1.410156-2.773438 4.28125-4.5 7.390625-4.449219 3.117187.089844 5.894531 1.984375 7.121093 4.847656l18.550782 43.289063 15.699218-20.9375c1.386719-1.863281 3.515626-3.03125 5.832032-3.199219 2.316406-.195312 4.597656.65625 6.222656 2.320312l16.75 16.800782 18.738281-31.199219c1.269531-2.113281 3.4375-3.519531 5.882813-3.820313 2.441406-.300781 4.886718.542969 6.628906 2.28125l17.105469 17.105469 26.582031-39.886719 13.3125 8.878907-32 48c-1.328125 1.988281-3.476562 3.28125-5.855469 3.519531-2.386719.226562-4.746093-.617188-6.449219-2.304688l-16.75-16.800781-18.738281 31.203125c-1.269531 2.109375-3.4375 3.515625-5.878906 3.816406-2.445313.300782-4.890625-.542968-6.632813-2.28125l-17.480468-17.480468-18.472656 24.648437c-1.703126 2.296875-4.511719 3.5-7.351563 3.144531-2.835937-.34375-5.277344-2.171874-6.398437-4.800781l-17.207032-40.136719-8.242187 16.566407c-1.097657 2.207031-3.15625 3.785156-5.570313 4.273437-2.417968.488282-4.925781-.164062-6.796875-1.769531l-10.03125-8.597656-17.28125 45.367187c-.964843 2.535156-3.148437 4.410156-5.804687 4.976563-2.652344.566406-5.414063-.25-7.332032-2.167969l-17.480468-17.480469-18.503906 24.625c-1.507813 2.011719-3.878907 3.199219-6.398438 3.199219zm0 0" fill="#85bc94"/><path d="m400 80c-4.417969 0-8-3.582031-8-8s3.582031-8 8-8 8 3.582031 8 8h16c-.042969-10.132812-6.445312-19.148438-16-22.527344v-9.472656h-16v9.472656c-11.011719 3.878906-17.621094 15.132813-15.644531 26.640625 1.980469 11.507813 11.96875 19.910157 23.644531 19.886719 4.417969 0 8 3.582031 8 8s-3.582031 8-8 8-8-3.582031-8-8h-16c.042969 10.132812 6.445312 19.148438 16 22.527344v9.472656h16v-9.472656c11.011719-3.878906 17.621094-15.132813 15.644531-26.640625-1.980469-11.507813-11.96875-19.910157-23.644531-19.886719zm0 0" fill="#85bc94"/><g fill="#d9d9d9"><path d="m72 168h32v16h-32zm0 0"/><path d="m120 168h32v16h-32zm0 0"/><path d="m168 168h32v16h-32zm0 0"/><path d="m216 168h32v16h-32zm0 0"/><path d="m264 168h32v16h-32zm0 0"/><path d="m312 168h32v16h-32zm0 0"/><path d="m360 168h32v16h-32zm0 0"/></g><path d="m356 48c0 11.046875-8.953125 20-20 20s-20-8.953125-20-20 8.953125-20 20-20 20 8.953125 20 20zm0 0" fill="#fd9226"/><path d="m424 216h-376c-4.417969 0-8-3.582031-8-8v-184h16v176h368zm0 0" fill="#d9d9d9"/><path d="m269.335938 400-5.335938-16h-64l-5.335938 16zm0 0" fill="#a8a8a8"/></svg>