<?xml version="1.0" encoding="UTF-8" standalone="no"?>
<svg
   xmlns:dc="http://purl.org/dc/elements/1.1/"
   xmlns:cc="http://creativecommons.org/ns#"
   xmlns:rdf="http://www.w3.org/1999/02/22-rdf-syntax-ns#"
   xmlns:svg="http://www.w3.org/2000/svg"
   xmlns="http://www.w3.org/2000/svg"
   xmlns:sodipodi="http://sodipodi.sourceforge.net/DTD/sodipodi-0.dtd"
   xmlns:inkscape="http://www.inkscape.org/namespaces/inkscape"
   width="1em"
   height="1em"
   viewBox="0 0 16 16"
   class="bi bi-align-middle"
   fill="currentColor"
   version="1.1"
   id="svg4"
   sodipodi:docname="inventario.svg"
   inkscape:version="0.92.3 (2405546, 2018-03-11)">
  <metadata
     id="metadata10">
    <rdf:RDF>
      <cc:Work
         rdf:about="">
        <dc:format>image/svg+xml</dc:format>
        <dc:type
           rdf:resource="http://purl.org/dc/dcmitype/StillImage" />
        <dc:title></dc:title>
      </cc:Work>
    </rdf:RDF>
  </metadata>
  <defs
     id="defs8" />
  <sodipodi:namedview
     pagecolor="#ffffff"
     bordercolor="#666666"
     borderopacity="1"
     objecttolerance="10"
     gridtolerance="10"
     guidetolerance="10"
     inkscape:pageopacity="0"
     inkscape:pageshadow="2"
     inkscape:window-width="1600"
     inkscape:window-height="847"
     id="namedview6"
     showgrid="false"
     inkscape:zoom="5.2149125"
     inkscape:cx="12.592384"
     inkscape:cy="-4.6375913"
     inkscape:window-x="-8"
     inkscape:window-y="-8"
     inkscape:window-maximized="1"
     inkscape:current-layer="svg4" />
  <g
     id="g879"
     transform="matrix(0.12783342,0,0,0.10167949,-0.4650927,1.8001892)"
     style="stroke-width:35.08497238">
    <path
       id="path853"
       d="m 99.733,25.567 -56.397,12.163 9.906,45.931 0.029,0.019 a 19.181,19.181 0 0 1 12.666,8.172 l 0.028,0.018 45.935,-9.906 z"
       inkscape:connector-curvature="0"
       style="fill:#f2da30;stroke-width:35.08497238" />
    <circle
       id="circle855"
       r="19.145"
       cy="102.545"
       cx="50.068001"
       style="fill:#6d7a84;stroke-width:35.08497238" />
    <circle
       id="circle857"
       r="9.276"
       cy="102.545"
       cx="50.068001"
       style="fill:#dfeef4;stroke-width:35.08497238" />
    <path
       id="path859"
       d="m 78.4,30.168 6.081,28.199 -8.043,-5.45 -5.687,8.411 -6.082,-28.199 z"
       inkscape:connector-curvature="0"
       style="fill:#fc883a;stroke-width:35.08497238" />
    <g
       id="g865"
       style="fill:#f45858;stroke-width:35.08497238">
      <path
         id="path861"
         d="M 68.783,98.509 121.693,87.1 120.2,80.173 65.965,91.87 65.937,91.852 a 19.081,19.081 0 0 1 2.846,6.657 z"
         inkscape:connector-curvature="0"
         style="stroke-width:35.08497238" />
      <path
         id="path863"
         d="M 53.271,83.68 53.242,83.661 36.559,6.306 H 6.307 V 13.39 H 30.84 l 15.192,70.441 a 19.057,19.057 0 0 1 7.239,-0.151 z"
         inkscape:connector-curvature="0"
         style="stroke-width:35.08497238" />
    </g>
    <g
       id="g877"
       style="stroke-width:35.08497238">
      <path
         id="path867"
         d="m 105.585,61 0.948,4.394 a 1.75,1.75 0 0 0 3.421,-0.738 l -0.948,-4.394 A 1.75,1.75 0 0 0 105.585,61 Z"
         inkscape:connector-curvature="0"
         style="stroke-width:35.08497238" />
      <path
         id="path869"
         d="m 84.719,77.774 -3.194,0.689 a 1.75,1.75 0 1 0 0.738,3.421 l 3.195,-0.689 a 1.75,1.75 0 1 0 -0.739,-3.421 z"
         inkscape:connector-curvature="0"
         style="stroke-width:35.08497238" />
      <path
         id="path871"
         d="m 75.436,79.776 -8.855,1.91 a 1.75,1.75 0 1 0 0.738,3.421 l 8.855,-1.91 a 1.75,1.75 0 0 0 -0.738,-3.421 z"
         inkscape:connector-curvature="0"
         style="stroke-width:35.08497238" />
      <path
         id="path873"
         d="m 47.744,91.767 a 11.026,11.026 0 1 0 13.1,8.454 11.037,11.037 0 0 0 -13.1,-8.454 z m 3.911,18.133 a 7.526,7.526 0 1 1 5.769,-8.944 7.536,7.536 0 0 1 -5.769,8.944 z"
         inkscape:connector-curvature="0"
         style="stroke-width:35.08497238" />
      <path
         id="path875"
         d="m 123.4,86.729 -1.493,-6.924 a 1.75,1.75 0 0 0 -2.08,-1.342 l -6.593,1.422 -1.549,-7.179 a 1.7492548,1.7492548 0 1 0 -3.42,0.737 l 1.548,7.18 -43.127,9.3 A 21,21 0 0 0 54.717,82.2 L 48.5,53.386 66.412,49.523 69.041,61.7 a 1.747,1.747 0 0 0 1.377,1.349 1.722,1.722 0 0 0 0.333,0.032 1.751,1.751 0 0 0 1.45,-0.77 l 4.706,-6.96 6.593,4.464 A 1.75,1.75 0 0 0 86.192,58 l -2.626,-12.177 17.912,-3.863 2.284,10.587 a 1.75,1.75 0 1 0 3.421,-0.738 L 101.443,25.2 A 1.751,1.751 0 0 0 99.364,23.859 L 64.3,31.419 44.678,35.651 38.27,5.938 A 1.751,1.751 0 0 0 36.559,4.557 H 6.307 a 1.749,1.749 0 0 0 -1.75,1.75 v 7.083 a 1.75,1.75 0 0 0 1.75,1.75 h 23.12 l 2.229,10.335 a 1.75,1.75 0 0 0 3.421,-0.738 L 32.551,13.021 A 1.75,1.75 0 0 0 30.84,11.64 H 8.057 V 8.057 h 27.089 l 6.479,30.043 9.4,43.592 a 20.76,20.76 0 0 0 -3.635,0.143 l -10.7,-49.6 a 1.75,1.75 0 0 0 -3.421,0.738 l 10.7,49.6 a 20.887,20.887 0 1 0 26.8,17.293 L 122.056,88.805 A 1.75,1.75 0 0 0 123.4,86.729 Z M 77.419,51.468 a 1.751,1.751 0 0 0 -2.431,0.469 l -3.388,5.015 -4.851,-22.481 10.309,-2.223 2.718,12.6 2.075,9.62 z M 100.74,38.539 82.828,42.4 80.479,31.51 98.391,27.647 Z M 63.328,35.209 65.677,46.1 47.765,49.965 45.416,39.072 Z m -9.593,84.34 A 17.4,17.4 0 1 1 67.072,98.878 17.417,17.417 0 0 1 53.735,119.549 Z m 16.3,-23.1 a 20.739,20.739 0 0 0 -1.369,-3.371 l 50.189,-10.824 0.756,3.5 z"
         inkscape:connector-curvature="0"
         style="stroke-width:35.08497238" />
    </g>
  </g>
</svg>
