<?xml version="1.0" encoding="UTF-8" standalone="no"?>
<svg
   xmlns:dc="http://purl.org/dc/elements/1.1/"
   xmlns:cc="http://creativecommons.org/ns#"
   xmlns:rdf="http://www.w3.org/1999/02/22-rdf-syntax-ns#"
   xmlns:svg="http://www.w3.org/2000/svg"
   xmlns="http://www.w3.org/2000/svg"
   xmlns:sodipodi="http://sodipodi.sourceforge.net/DTD/sodipodi-0.dtd"
   xmlns:inkscape="http://www.inkscape.org/namespaces/inkscape"
   version="1.1"
   id="Capa_1"
   x="0px"
   y="0px"
   width="371.244px"
   height="371.244px"
   viewBox="0 0 371.244 371.244"
   style="enable-background:new 0 0 371.244 371.244;"
   xml:space="preserve"
   sodipodi:docname="calendar-fill.svg"
   inkscape:version="1.0.1 (3bc2e813f5, 2020-09-07)"><metadata
   id="metadata142"><rdf:RDF><cc:Work
       rdf:about=""><dc:format>image/svg+xml</dc:format><dc:type
         rdf:resource="http://purl.org/dc/dcmitype/StillImage" /><dc:title></dc:title></cc:Work></rdf:RDF></metadata><defs
   id="defs140">
	
</defs><sodipodi:namedview
   pagecolor="#ffffff"
   bordercolor="#666666"
   borderopacity="1"
   objecttolerance="10"
   gridtolerance="10"
   guidetolerance="10"
   inkscape:pageopacity="0"
   inkscape:pageshadow="2"
   inkscape:window-width="1600"
   inkscape:window-height="792"
   id="namedview138"
   showgrid="false"
   inkscape:zoom="1.6188814"
   inkscape:cx="185.62199"
   inkscape:cy="185.62199"
   inkscape:window-x="0"
   inkscape:window-y="27"
   inkscape:window-maximized="1"
   inkscape:current-layer="Capa_1" />
<path
   d="m 371.244,288.456 -2.436,-11.479 -52.093,-244.641 -2.686,-12.583 -12.495,3.075 -16.148,3.964 c -2.776,-7.25 -7.143,-13.686 -13.42,-18.25 -5.956,-4.335 -13.184,-4.646 -18.883,0.25 -6.57,5.642 -7.234,16.581 -7.027,25.288 0.024,0.819 0.049,1.593 0.073,2.366 l -10.717,2.637 c -0.322,-0.834 -0.779,-1.596 -1.15,-2.409 -2.789,-6.153 -6.698,-11.664 -12.19,-15.655 -5.956,-4.333 -13.184,-4.646 -18.883,0.249 -6.187,5.325 -7.131,15.351 -7.045,23.781 0.018,1.09 0.03,2.153 0.066,3.179 0.013,0.171 0.013,0.326 0.024,0.493 l -10.793,2.658 c -0.101,-0.244 -0.237,-0.469 -0.335,-0.713 -0.414,-0.992 -0.91,-1.933 -1.379,-2.886 -2.75,-5.587 -6.448,-10.596 -11.53,-14.285 -5.961,-4.333 -13.192,-4.646 -18.886,0.25 -5.818,5.005 -7.015,14.185 -7.066,22.271 -0.006,1.093 0.015,2.146 0.045,3.188 0.019,0.618 0.031,1.203 0.055,1.796 l -10.875,2.673 c -0.262,-0.655 -0.615,-1.251 -0.901,-1.894 -0.438,-0.98 -0.88,-1.952 -1.379,-2.887 -2.688,-5.032 -6.205,-9.523 -10.875,-12.915 -5.961,-4.332 -13.192,-4.646 -18.886,0.25 -5.456,4.694 -6.829,13.049 -7.015,20.746 -0.024,1.09 -0.037,2.143 -0.024,3.197 0.012,1.065 0.03,2.101 0.067,3.105 l -2.819,0.694 -8.223,1.809 c -0.405,-0.999 -0.91,-1.928 -1.376,-2.89 -0.469,-0.959 -0.85,-1.97 -1.379,-2.893 -2.6,-4.49 -5.961,-8.455 -10.221,-11.548 -5.961,-4.333 -13.192,-4.646 -18.885,0.25 -5.1,4.384 -6.628,11.965 -6.966,19.217 -0.049,1.084 -0.091,2.156 -0.101,3.218 -0.006,1.084 0.015,2.15 0.046,3.185 L 22.402,89.617 0,316.337 l 77.99,-22.858 0.661,3.032 0.643,3.051 0.928,4.408 -63.15,20.016 -16.779,5.327 16.386,6.431 75.271,29.532 1.291,0.506 0.013,0.061 0.088,-0.024 0.554,0.22 2.016,-0.561 152.077,-42.582 5.943,-1.662 -0.024,-0.121 106.049,-29.521 z M 261.444,18.07 c 0.597,-0.679 0.633,-0.597 0.889,-0.548 1.583,0.304 2.911,1.397 4.5,2.957 2.283,2.256 4.074,4.938 5.541,7.83 0.256,0.506 0.524,0.987 0.755,1.504 l -14.656,3.602 c -0.024,-0.667 -0.024,-1.358 -0.024,-2.049 -0.013,-5.028 0.51,-10.428 2.995,-13.296 z m -49.566,12.47 c 0.584,-0.679 0.463,-0.597 0.718,-0.548 1.584,0.305 2.838,1.397 4.421,2.957 1.925,1.894 3.398,4.128 4.737,6.485 0.5,0.877 1.023,1.732 1.438,2.661 l -7.331,1.952 -6.017,1.635 c 0,-0.058 0,-0.119 0,-0.176 0,-1.042 -0.651,-2.113 -0.633,-3.191 0.11,-4.565 0.426,-9.193 2.667,-11.775 z m -53.116,22.715 c 0.21,-4.04 0.935,-7.949 2.917,-10.245 0.594,-0.679 0.63,-0.597 0.886,-0.548 1.583,0.305 2.911,1.397 4.497,2.957 1.559,1.535 2.85,3.292 4.016,5.136 0.579,0.916 1.121,1.86 1.607,2.837 0.167,0.338 0.381,0.643 0.536,0.987 l -14.523,3.571 c -0.012,-0.487 -0.012,-0.983 -0.012,-1.477 -0.006,-1.071 0.019,-2.145 0.076,-3.218 z m -46.81,2.226 c 0.593,-0.679 0.557,-0.597 0.813,-0.548 1.583,0.305 2.874,1.397 4.451,2.956 1.184,1.167 2.201,2.457 3.154,3.809 0.63,0.892 1.142,1.867 1.678,2.826 0.405,0.715 0.862,1.397 1.215,2.143 0.033,0.07 0.058,0.143 0.082,0.219 l -13.262,3.325 c 0,-0.917 -0.654,-1.848 -0.636,-2.795 0.018,-1.084 -0.231,-2.165 -0.137,-3.23 0.316,-3.471 0.916,-6.707 2.642,-8.705 z m -52.96,22.877 c 0.055,-1.102 0.143,-2.195 0.286,-3.254 0.393,-2.868 1.166,-5.456 2.637,-7.152 0.594,-0.679 0.63,-0.597 0.886,-0.548 1.583,0.305 2.911,1.397 4.497,2.956 0.785,0.773 1.422,1.672 2.106,2.524 0.704,0.886 1.392,1.79 1.994,2.755 0.576,0.926 1.124,1.86 1.611,2.838 L 58.928,81.57 c -0.012,-1.066 0.006,-2.131 0.064,-3.212 z m 191.674,230.74 -3.002,0.834 -3.002,0.834 -141.926,39.531 -9.258,-43.965 -0.648,-3.057 -0.648,-3.068 -0.874,-4.141 -0.639,-3.062 -0.643,-3.057 L 49.508,97.664 76.787,90.935 c 1.053,7.052 0.679,14.38 -0.767,20.67 -1.803,7.828 10.217,11.149 12.026,3.318 1.897,-8.229 2.235,-17.765 0.725,-26.929 L 126.7,78.665 c 1.017,6.99 0.643,14.233 -0.792,20.469 -1.802,7.828 10.218,11.149 12.026,3.318 1.884,-8.174 2.229,-17.634 0.755,-26.731 l 37.917,-9.323 c 0.98,6.93 0.605,14.1 -0.816,20.271 -1.802,7.828 10.218,11.149 12.026,3.319 1.872,-8.12 2.223,-17.498 0.785,-26.531 l 37.914,-9.323 c 0.95,6.866 0.572,13.954 -0.84,20.07 -1.803,7.827 10.224,11.149 12.032,3.318 1.863,-8.056 2.216,-17.36 0.815,-26.339 l 31.907,-7.843 3.203,-0.785 2.789,-0.688 c 0.085,0.658 0.17,1.304 0.231,1.967 0.597,6.178 0.17,12.432 -1.097,17.905 -1.802,7.828 10.224,11.149 12.032,3.319 1.852,-8.001 2.204,-17.223 0.853,-26.138 l 16.1,-3.961 52.1,244.636 z m -109.331,-68.924 -38.048,9.121 -9.131,-38.051 38.048,-9.127 z m 8.01,-2.411 -9.127,-38.052 38.048,-9.127 9.127,38.045 z m 36.913,-49.602 38.042,-9.134 9.134,38.046 -38.046,9.133 z m 84.1,-20.661 9.134,38.045 -16.977,4.074 -3.19,0.767 -3.203,0.768 -14.687,3.52 -9.122,-38.052 27.304,-6.555 3.203,-0.764 3.19,-0.767 z m 8.008,-2.408 38.051,-9.128 9.128,38.048 -38.051,9.128 z m -94.918,15.183 -9.131,-38.048 38.048,-9.127 9.134,38.048 z m 46.028,-11.548 -9.122,-38.048 38.058,-9.128 3.945,16.462 2.302,9.627 2.314,9.627 0.56,2.332 -0.779,0.186 -3.19,0.767 -3.19,0.767 z m 74.982,-58.718 9.128,38.048 -38.052,9.127 -6.32,-26.323 -2.302,-9.63 -0.512,-2.095 0.707,-0.167 3.19,-0.767 z m -151.626,174.22 0.457,1.9 -26.439,6.339 -11.609,2.782 -0.53,-2.21 -0.868,-3.604 -0.731,-3.026 -0.728,-3.032 -6.275,-26.172 38.048,-9.127 5.824,24.283 0.73,3.026 0.728,3.038 0.661,2.771 z m 46.1,-11.338 0.402,1.688 -23.614,5.668 -14.44,3.459 -0.481,-1.997 -0.728,-3.044 -0.618,-2.595 -0.731,-3.032 -0.728,-3.026 -5.831,-24.356 38.055,-9.121 5.376,22.444 0.731,3.032 0.73,3.026 0.414,1.766 0.73,3.038 z m 43.739,-21.215 2.733,11.357 -6.813,1.638 -3.026,0.725 -3.032,0.73 -25.185,6.04 -0.427,-1.802 -0.73,-3.045 -0.73,-3.026 -0.378,-1.596 -0.73,-3.032 -0.719,-3.032 -5.401,-22.512 38.045,-9.127 4.951,20.623 0.725,3.033 z"
   id="path103" />
<g
   id="g107">
</g>
<g
   id="g109">
</g>
<g
   id="g111">
</g>
<g
   id="g113">
</g>
<g
   id="g115">
</g>
<g
   id="g117">
</g>
<g
   id="g119">
</g>
<g
   id="g121">
</g>
<g
   id="g123">
</g>
<g
   id="g125">
</g>
<g
   id="g127">
</g>
<g
   id="g129">
</g>
<g
   id="g131">
</g>
<g
   id="g133">
</g>
<g
   id="g135">
</g>
</svg>
