<?xml version="1.0" encoding="UTF-8" standalone="no"?>
<svg
   xmlns:dc=""
   xmlns:cc="http://creativecommons.org/ns#"
   xmlns:rdf="http://www.w3.org/1999/02/22-rdf-syntax-ns#"
   xmlns:svg="http://www.w3.org/2000/svg"
   xmlns="http://www.w3.org/2000/svg"
   xmlns:sodipodi=""
   xmlns:inkscape=""
   version="1.1"
   id="Capa_1"
   x="0px"
   y="0px"
   width="612px"
   height="612px"
   viewBox="0 0 612 612"
   style="enable-background:new 0 0 612 612;"
   xml:space="preserve"
   sodipodi:docname="call-center-worker.svg"
   inkscape:version="1.0.1 (3bc2e813f5, 2020-09-07)"><metadata
   id="metadata337"><rdf:RDF><cc:Work
       rdf:about=""><dc:format>image/svg+xml</dc:format><dc:type
         rdf:resource="" /><dc:title></dc:title></cc:Work></rdf:RDF></metadata><defs
   id="defs335">
	
</defs><sodipodi:namedview
   pagecolor="#ffffff"
   bordercolor="#666666"
   borderopacity="1"
   objecttolerance="10"
   gridtolerance="10"
   guidetolerance="10"
   inkscape:pageopacity="0"
   inkscape:pageshadow="2"
   inkscape:window-width="1600"
   inkscape:window-height="792"
   id="namedview333"
   showgrid="false"
   inkscape:zoom="1.0424837"
   inkscape:cx="306"
   inkscape:cy="382.73981"
   inkscape:window-x="0"
   inkscape:window-y="27"
   inkscape:window-maximized="1"
   inkscape:current-layer="Capa_1" />
<g id="g588"><g id="g583"><g id="g579"><path
         d="m 257.938,336.072 c 0,17.355 -14.068,31.424 -31.423,31.424 -17.354,0 -31.422,-14.068 -31.422,-31.424 0,-17.354 14.068,-31.423 31.422,-31.423 17.355,10e-4 31.423,14.07 31.423,31.423 z M 385.485,304.65 c -17.354,0 -31.423,14.068 -31.423,31.424 0,17.354 14.069,31.422 31.423,31.422 17.354,0 31.424,-14.068 31.424,-31.422 C 416.908,318.719 402.84,304.65 385.485,304.65 Z M 612,318.557 v 59.719 c 0,29.982 -24.305,54.287 -54.288,54.287 H 518.318 C 479.283,540.947 379.604,606.412 306,606.412 c -73.604,0 -173.283,-65.465 -212.318,-173.85 H 54.288 C 24.305,432.562 0,408.258 0,378.275 V 318.556 C 0,297.925 11.511,279.983 28.46,270.798 29.029,186.013 53.74,119.796 102.013,74.019 149.895,28.613 218.526,5.588 306,5.588 c 87.474,0 156.105,23.025 203.987,68.43 48.272,45.777 72.982,111.995 73.553,196.779 16.949,9.186 28.46,27.128 28.46,47.76 z m -114.901,17.714 c 0,-13.969 -0.715,-27.094 -1.771,-39.812 -24.093,-22.043 -67.832,-38.769 -123.033,-44.984 7.248,8.15 13.509,18.871 17.306,32.983 -33.812,-26.637 -100.181,-20.297 -150.382,-79.905 -2.878,-3.329 -5.367,-6.51 -7.519,-9.417 -0.025,-0.035 -0.053,-0.062 -0.078,-0.096 l 0.006,0.002 c -8.931,-12.078 -11.976,-19.262 -12.146,-11.31 -1.473,68.513 -50.034,121.925 -103.958,129.46 -0.341,7.535 -0.62,15.143 -0.62,23.08 0,28.959 4.729,55.352 12.769,79.137 30.29,36.537 80.312,46.854 124.586,49.59 8.219,-13.076 26.66,-22.205 48.136,-22.205 29.117,0 52.72,16.754 52.72,37.424 0,20.668 -23.604,37.422 -52.72,37.422 -22.397,0 -41.483,-9.93 -49.122,-23.912 -30.943,-1.799 -64.959,-7.074 -95.276,-21.391 42.634,62.843 108.728,96.073 150.003,96.073 64.859,0 191.099,-81.935 191.099,-232.139 z m 53.756,-72.002 C 547.4,116.318 462.951,38.162 306,38.162 149.049,38.162 64.601,116.318 61.145,264.269 H 82.032 C 89.669,214.402 105.81,173.391 130.317,141.857 169.37,91.609 228.478,66.13 306,66.13 c 77.522,0 136.63,25.479 175.685,75.727 24.505,31.533 40.647,72.545 48.284,122.412 z"
         id="path298" /></g></g></g>
<g
   id="g302">
</g>
<g
   id="g304">
</g>
<g
   id="g306">
</g>
<g
   id="g308">
</g>
<g
   id="g310">
</g>
<g
   id="g312">
</g>
<g
   id="g314">
</g>
<g
   id="g316">
</g>
<g
   id="g318">
</g>
<g
   id="g320">
</g>
<g
   id="g322">
</g>
<g
   id="g324">
</g>
<g
   id="g326">
</g>
<g
   id="g328">
</g>
<g
   id="g330">
</g>
</svg>
