<?xml version="1.0" encoding="UTF-8" standalone="no"?>
<svg
   xmlns:dc="http://purl.org/dc/elements/1.1/"
   xmlns:cc="http://creativecommons.org/ns#"
   xmlns:rdf="http://www.w3.org/1999/02/22-rdf-syntax-ns#"
   xmlns:svg="http://www.w3.org/2000/svg"
   xmlns="http://www.w3.org/2000/svg"
   xmlns:sodipodi="http://sodipodi.sourceforge.net/DTD/sodipodi-0.dtd"
   xmlns:inkscape="http://www.inkscape.org/namespaces/inkscape"
   width="1em"
   height="1em"
   viewBox="0 0 16 16"
   class="bi bi-house"
   fill="currentColor"
   version="1.1"
   id="svg5444"
   sodipodi:docname="almacen_add.svg"
   inkscape:version="0.92.3 (2405546, 2018-03-11)">
  <metadata
     id="metadata5450">
    <rdf:RDF>
      <cc:Work
         rdf:about="">
        <dc:format>image/svg+xml</dc:format>
        <dc:type
           rdf:resource="http://purl.org/dc/dcmitype/StillImage" />
        <dc:title></dc:title>
      </cc:Work>
    </rdf:RDF>
  </metadata>
  <defs
     id="defs5448" />
  <sodipodi:namedview
     pagecolor="#ffffff"
     bordercolor="#666666"
     borderopacity="1"
     objecttolerance="10"
     gridtolerance="10"
     guidetolerance="10"
     inkscape:pageopacity="0"
     inkscape:pageshadow="2"
     inkscape:window-width="1600"
     inkscape:window-height="847"
     id="namedview5446"
     showgrid="true"
     showguides="true"
     inkscape:zoom="29.96365"
     inkscape:cx="6.0882639"
     inkscape:cy="8.6251762"
     inkscape:window-x="-8"
     inkscape:window-y="-8"
     inkscape:window-maximized="1"
     inkscape:current-layer="g5910"
     inkscape:snap-global="true"
     inkscape:snap-nodes="false"
     inkscape:snap-bbox="true">
    <inkscape:grid
       type="xygrid"
       id="grid5456" />
  </sodipodi:namedview>
  <g
     id="g5670"
     transform="matrix(1.0790221,0,0,1.176922,-2.1398345,-2.9164385)"
     style="stroke-width:0.88738269">
    <rect
       transform="scale(1,-1)"
       y="-15.433334"
       x="3.9836383"
       height="5.7547703"
       width="8.3340931"
       id="rect5495"
       style="opacity:1;fill:#e6e6e6;fill-opacity:1;stroke:#000000;stroke-width:0;stroke-miterlimit:4;stroke-dasharray:none;stroke-opacity:1;paint-order:markers fill stroke" />
    <path
       transform="matrix(1.0905693,0,0,0.64677603,-0.66182471,3.9952655)"
       inkscape:transform-center-y="-0.79974702"
       inkscape:transform-center-x="-0.0012301509"
       d="M 11.997734,9.2940107 3.9999999,9.2979353 7.9954682,2.369732 Z"
       inkscape:randomized="0"
       inkscape:rounded="0"
       inkscape:flatsided="true"
       sodipodi:arg2="1.5703056"
       sodipodi:arg1="0.52310806"
       sodipodi:r2="2.3087473"
       sodipodi:r1="4.6174946"
       sodipodi:cy="6.987226"
       sodipodi:cx="7.9977341"
       sodipodi:sides="3"
       id="path5497"
       style="opacity:1;fill:#e6e6e6;fill-opacity:1;stroke:#000000;stroke-width:0;stroke-miterlimit:4;stroke-dasharray:none;stroke-opacity:1;paint-order:markers fill stroke"
       sodipodi:type="star" />
    <path
       style="fill:#4d4d4d;fill-opacity:1;fill-rule:evenodd;stroke-width:0.88738269"
       id="path5440"
       d="M 3.1975504,14.879631 V 9.6600072 h 0.8021641 v 5.2196238 a 0.40108207,0.40150951 0 0 0 0.4010821,0.401509 h 7.2194774 a 0.40108207,0.40150951 0 0 0 0.401082,-0.401509 V 9.6600072 h 0.802164 v 5.2196238 a 1.2032462,1.2045285 0 0 1 -1.203246,1.204528 H 4.4007966 A 1.2032462,1.2045285 0 0 1 3.1975504,14.879631 Z M 12.021356,6.0464216 V 8.8569882 L 10.417028,7.2509501 V 6.0464216 A 0.40108207,0.40150951 0 0 1 10.81811,5.6449121 h 0.802164 a 0.40108207,0.40150951 0 0 1 0.401082,0.4015095 z"
       inkscape:connector-curvature="0" />
    <path
       style="fill:#4d4d4d;fill-opacity:1;fill-rule:evenodd;stroke-width:0.88738269"
       id="path5442"
       d="m 7.4434051,5.2434025 a 0.80216413,0.80301903 0 0 1 1.1342601,0 L 13.90965,10.580267 a 0.40158871,0.4020167 0 0 1 -0.567932,0.568537 L 8.0105351,5.811137 2.6793523,11.148804 A 0.40158871,0.4020167 0 1 1 2.1114201,10.580267 Z"
       inkscape:connector-curvature="0" />
    <rect
       y="11.00607"
       x="6.5259614"
       height="4.2789812"
       width="3.0099387"
       id="rect5458"
       style="opacity:1;fill:#ff0000;fill-opacity:1;stroke:#000000;stroke-width:0;stroke-miterlimit:4;stroke-dasharray:none;stroke-opacity:1;paint-order:markers fill stroke" />
  </g>
  <g
     style="stroke-width:1.19846916"
     id="g8"
     transform="matrix(0.82378649,0,0,0.8451457,20.329343,5.5969906)">
</g>
  <g
     style="stroke-width:1.19846916"
     id="g10"
     transform="matrix(0.82378649,0,0,0.8451457,20.329343,5.5969906)">
</g>
  <g
     style="stroke-width:1.19846916"
     id="g12"
     transform="matrix(0.82378649,0,0,0.8451457,20.329343,5.5969906)">
</g>
  <g
     style="stroke-width:1.19846916"
     id="g14"
     transform="matrix(0.82378649,0,0,0.8451457,20.329343,5.5969906)">
</g>
  <g
     style="stroke-width:1.19846916"
     id="g16"
     transform="matrix(0.82378649,0,0,0.8451457,20.329343,5.5969906)">
</g>
  <g
     style="stroke-width:1.19846916"
     id="g18"
     transform="matrix(0.82378649,0,0,0.8451457,20.329343,5.5969906)">
</g>
  <g
     style="stroke-width:1.19846916"
     id="g20"
     transform="matrix(0.82378649,0,0,0.8451457,20.329343,5.5969906)">
</g>
  <g
     style="stroke-width:1.19846916"
     id="g22"
     transform="matrix(0.82378649,0,0,0.8451457,20.329343,5.5969906)">
</g>
  <g
     style="stroke-width:1.19846916"
     id="g24"
     transform="matrix(0.82378649,0,0,0.8451457,20.329343,5.5969906)">
</g>
  <g
     style="stroke-width:1.19846916"
     id="g26"
     transform="matrix(0.82378649,0,0,0.8451457,20.329343,5.5969906)">
</g>
  <g
     style="stroke-width:1.19846916"
     id="g28"
     transform="matrix(0.82378649,0,0,0.8451457,20.329343,5.5969906)">
</g>
  <g
     style="stroke-width:1.19846916"
     id="g30"
     transform="matrix(0.82378649,0,0,0.8451457,20.329343,5.5969906)">
</g>
  <g
     style="stroke-width:1.19846916"
     id="g32"
     transform="matrix(0.82378649,0,0,0.8451457,20.329343,5.5969906)">
</g>
  <g
     style="stroke-width:1.19846916"
     id="g34"
     transform="matrix(0.82378649,0,0,0.8451457,20.329343,5.5969906)">
</g>
  <g
     style="stroke-width:1.19846916"
     id="g36"
     transform="matrix(0.82378649,0,0,0.8451457,20.329343,5.5969906)">
</g>
  <g
     id="g5868"
     transform="matrix(0.52681226,0,0,0.46927082,58.709392,4.9243615)"
     style="stroke-width:2.01122308">
    <ellipse
       ry="21.128643"
       rx="20.594662"
       id="circle2"
       cy="26.725634"
       cx="40.924004"
       style="fill:#43b05c;stroke-width:2.01122308" />
    <line
       id="line4"
       y2="37.712528"
       x2="40.924004"
       y1="16.583885"
       x1="40.924004"
       style="fill:none;stroke:#ffffff;stroke-width:9.85294056;stroke-linecap:round;stroke-linejoin:round;stroke-miterlimit:10" />
    <line
       id="line6"
       y2="26.725634"
       x2="30.626675"
       y1="26.725634"
       x1="51.221336"
       style="fill:none;stroke:#ffffff;stroke-width:9.85294056;stroke-linecap:round;stroke-linejoin:round;stroke-miterlimit:10" />
  </g>
  <g
     id="g5910"
     transform="translate(16.987249,0.03337377)">
    <circle
       r="4.9999995"
       cy="4.9711828"
       cx="-6.0084915"
       id="path5896"
       style="opacity:0.696;fill:#43b05c;fill-opacity:1;stroke:#000000;stroke-width:0;stroke-miterlimit:4;stroke-dasharray:none;stroke-opacity:1;paint-order:markers fill stroke" />
    <g
       style="stroke-width:0.84576511"
       transform="matrix(1.2047619,0,0,1.1603773,0.29543713,-12.357461)"
       id="g5904">
      <rect
         style="opacity:1;fill:#ffffff;fill-opacity:1;stroke:#000000;stroke-width:0;stroke-miterlimit:4;stroke-dasharray:none;stroke-opacity:1;paint-order:markers fill stroke"
         id="rect5898"
         width="1.168082"
         height="7.0752397"
         x="-5.8070364"
         y="11.294298" />
      <rect
         style="opacity:1;fill:#ffffff;fill-opacity:1;stroke:#000000;stroke-width:0;stroke-miterlimit:4;stroke-dasharray:none;stroke-opacity:1;paint-order:markers fill stroke"
         id="rect5900"
         width="7.008492"
         height="1.1013345"
         x="-8.7773018"
         y="14.364685" />
    </g>
  </g>
</svg>
