<?xml version="1.0" encoding="UTF-8" standalone="no"?>
<svg
   xmlns:dc="http://purl.org/dc/elements/1.1/"
   xmlns:cc="http://creativecommons.org/ns#"
   xmlns:rdf="http://www.w3.org/1999/02/22-rdf-syntax-ns#"
   xmlns:svg="http://www.w3.org/2000/svg"
   xmlns="http://www.w3.org/2000/svg"
   xmlns:sodipodi="http://sodipodi.sourceforge.net/DTD/sodipodi-0.dtd"
   xmlns:inkscape="http://www.inkscape.org/namespaces/inkscape"
   width="1em"
   height="1em"
   viewBox="0 0 16 16"
   class="bi bi-alarm"
   fill="currentColor"
   version="1.1"
   id="svg6797"
   sodipodi:docname="articulo_familia.svg"
   inkscape:version="0.92.3 (2405546, 2018-03-11)">
  <metadata
     id="metadata6803">
    <rdf:RDF>
      <cc:Work
         rdf:about="">
        <dc:format>image/svg+xml</dc:format>
        <dc:type
           rdf:resource="http://purl.org/dc/dcmitype/StillImage" />
        <dc:title></dc:title>
      </cc:Work>
    </rdf:RDF>
  </metadata>
  <defs
     id="defs6801" />
  <sodipodi:namedview
     pagecolor="#ffffff"
     bordercolor="#666666"
     borderopacity="1"
     objecttolerance="10"
     gridtolerance="10"
     guidetolerance="10"
     inkscape:pageopacity="0"
     inkscape:pageshadow="2"
     inkscape:window-width="1600"
     inkscape:window-height="847"
     id="namedview6799"
     showgrid="true"
     inkscape:zoom="41.7193"
     inkscape:cx="10.54701"
     inkscape:cy="9.03008"
     inkscape:window-x="-8"
     inkscape:window-y="-8"
     inkscape:window-maximized="1"
     inkscape:current-layer="svg6797"
     inkscape:snap-global="false">
    <inkscape:grid
       type="xygrid"
       id="grid8461" />
  </sodipodi:namedview>
  <g
     style="fill:#000000;stroke:#141414;stroke-width:4.5188427;stroke-miterlimit:4;stroke-dasharray:none;stroke-opacity:1"
     id="g7673"
     transform="matrix(0.02130141,0,0,0.0229899,0.05986501,0.01799283)" />
  <g
     style="fill:#000000;stroke:#141414;stroke-width:4.5188427;stroke-miterlimit:4;stroke-dasharray:none;stroke-opacity:1"
     id="g7675"
     transform="matrix(0.02130141,0,0,0.0229899,0.05986501,0.01799283)" />
  <g
     style="fill:#000000;stroke:#141414;stroke-width:4.5188427;stroke-miterlimit:4;stroke-dasharray:none;stroke-opacity:1"
     id="g7677"
     transform="matrix(0.02130141,0,0,0.0229899,0.05986501,0.01799283)" />
  <g
     style="fill:#000000;stroke:#141414;stroke-width:4.5188427;stroke-miterlimit:4;stroke-dasharray:none;stroke-opacity:1"
     id="g7679"
     transform="matrix(0.02130141,0,0,0.0229899,0.05986501,0.01799283)" />
  <g
     style="fill:#000000;stroke:#141414;stroke-width:4.5188427;stroke-miterlimit:4;stroke-dasharray:none;stroke-opacity:1"
     id="g7681"
     transform="matrix(0.02130141,0,0,0.0229899,0.05986501,0.01799283)" />
  <g
     style="fill:#000000;stroke:#141414;stroke-width:4.5188427;stroke-miterlimit:4;stroke-dasharray:none;stroke-opacity:1"
     id="g7683"
     transform="matrix(0.02130141,0,0,0.0229899,0.05986501,0.01799283)" />
  <g
     style="fill:#000000;stroke:#141414;stroke-width:4.5188427;stroke-miterlimit:4;stroke-dasharray:none;stroke-opacity:1"
     id="g7685"
     transform="matrix(0.02130141,0,0,0.0229899,0.05986501,0.01799283)" />
  <g
     style="fill:#000000;stroke:#141414;stroke-width:4.5188427;stroke-miterlimit:4;stroke-dasharray:none;stroke-opacity:1"
     id="g7687"
     transform="matrix(0.02130141,0,0,0.0229899,0.05986501,0.01799283)" />
  <g
     style="fill:#000000;stroke:#141414;stroke-width:4.5188427;stroke-miterlimit:4;stroke-dasharray:none;stroke-opacity:1"
     id="g7689"
     transform="matrix(0.02130141,0,0,0.0229899,0.05986501,0.01799283)" />
  <g
     style="fill:#000000;stroke:#141414;stroke-width:4.5188427;stroke-miterlimit:4;stroke-dasharray:none;stroke-opacity:1"
     id="g7691"
     transform="matrix(0.02130141,0,0,0.0229899,0.05986501,0.01799283)" />
  <g
     style="fill:#000000;stroke:#141414;stroke-width:4.5188427;stroke-miterlimit:4;stroke-dasharray:none;stroke-opacity:1"
     id="g7693"
     transform="matrix(0.02130141,0,0,0.0229899,0.05986501,0.01799283)" />
  <g
     style="fill:#000000;stroke:#141414;stroke-width:4.5188427;stroke-miterlimit:4;stroke-dasharray:none;stroke-opacity:1"
     id="g7695"
     transform="matrix(0.02130141,0,0,0.0229899,0.05986501,0.01799283)" />
  <g
     style="fill:#000000;stroke:#141414;stroke-width:4.5188427;stroke-miterlimit:4;stroke-dasharray:none;stroke-opacity:1"
     id="g7697"
     transform="matrix(0.02130141,0,0,0.0229899,0.05986501,0.01799283)" />
  <g
     style="fill:#000000;stroke:#141414;stroke-width:4.5188427;stroke-miterlimit:4;stroke-dasharray:none;stroke-opacity:1"
     id="g7699"
     transform="matrix(0.02130141,0,0,0.0229899,0.05986501,0.01799283)" />
  <g
     style="fill:#000000;stroke:#141414;stroke-width:4.5188427;stroke-miterlimit:4;stroke-dasharray:none;stroke-opacity:1"
     id="g7701"
     transform="matrix(0.02130141,0,0,0.0229899,0.05986501,0.01799283)" />
  <g
     id="g10074">
    <path
       id="path7661"
       d="M 0.05986501,2.9290199 5.429141,0.04967291 10.798417,2.928997 V 3.3092959 L 5.429141,6.1886199 0.05986501,3.3183769 Z"
       style="fill:#efc75e;stroke:#141414;stroke-width:0.09999999;stroke-miterlimit:4;stroke-dasharray:none;stroke-opacity:1"
       inkscape:connector-curvature="0" />
    <path
       id="path7663"
       d="M 0.05986501,2.9290199 5.429141,5.808344 10.798417,2.9290199 V 8.6967261 L 5.4123555,11.57605 0.05986501,8.696749 Z"
       style="fill:#e7bf55;stroke:#141414;stroke-width:0.09999999;stroke-miterlimit:4;stroke-dasharray:none;stroke-opacity:1"
       inkscape:connector-curvature="0" />
    <path
       id="path7665"
       d="M 5.429141,11.567015 V 5.808367 L 0.09341473,2.947113 H 0.05986501 V 8.6967031 L 5.4123555,11.576027 Z"
       style="fill:#dbb551;stroke:#141414;stroke-width:0.09999999;stroke-miterlimit:4;stroke-dasharray:none;stroke-opacity:1"
       inkscape:connector-curvature="0" />
    <path
       id="path7667"
       d="M 2.2495221,1.7609721 7.6104054,4.6402961 8.7010376,4.0608127 3.3233688,1.1815117 Z"
       style="fill:#4d4d4d;stroke:#141414;stroke-width:0.09999999;stroke-miterlimit:4;stroke-dasharray:none;stroke-opacity:1"
       inkscape:connector-curvature="0" />
    <path
       id="path7669"
       d="M 7.6104054,4.6403191 8.7010376,4.0608357 V 5.8717271 L 8.4073977,5.817402 8.0969935,6.224852 7.6104054,6.1886429 c 0,-2.3e-5 0,-1.5483238 0,-1.5483238 z"
       style="fill:#4d4d4d;stroke:#141414;stroke-width:0.09999999;stroke-miterlimit:4;stroke-dasharray:none;stroke-opacity:1"
       inkscape:connector-curvature="0" />
    <path
       id="path7671"
       d="M 4.3217233,8.1081846 2.5095911,7.1303092 C 2.4089206,7.0759841 2.3250143,7.1393672 2.3250143,7.2751916 v 1.3129072 c 0,0.1358243 0.083885,0.2897417 0.1845768,0.3440668 L 4.3301161,9.910041 C 4.4307865,9.9643662 4.5146928,9.900983 4.5146928,9.7651587 V 8.4431934 C 4.5062787,8.3073691 4.4223938,8.1625327 4.3217233,8.1081846 Z M 3.9106274,9.1856753 2.7528745,8.5609247 c -0.050335,-0.027174 -0.092278,-0.1086502 -0.092278,-0.1810914 0,-0.072441 0.041942,-0.1086503 0.092278,-0.081499 l 1.1577529,0.6247505 c 0.050335,0.027174 0.092278,0.1086503 0.092278,0.1810915 0,0.072441 -0.041943,0.1086502 -0.092278,0.081499 z M 4.0784186,8.7329352 2.7528745,8.0085694 c -0.050335,-0.027174 -0.092278,-0.1086503 -0.092278,-0.1810915 0,-0.072441 0.041942,-0.1086502 0.092278,-0.081499 l 1.3255441,0.7243658 c 0.050335,0.027174 0.092278,0.1086503 0.092278,0.1810915 2.13e-5,0.081499 -0.041943,0.1086502 -0.092278,0.081499 z"
       style="fill:#4d4d4d;stroke:#141414;stroke-width:0.09999999;stroke-miterlimit:4;stroke-dasharray:none;stroke-opacity:1"
       inkscape:connector-curvature="0" />
    <g
       id="g10019">
      <ellipse
         style="opacity:0.8;fill:none;fill-opacity:1;stroke:#141414;stroke-width:0.8;stroke-miterlimit:4;stroke-dasharray:9.6,0.8;stroke-opacity:1;paint-order:markers fill stroke;stroke-dashoffset:4"
         id="path10002"
         cx="10.79836"
         cy="10.930404"
         rx="4.7819595"
         ry="4.6381412" />
      <text
         xml:space="preserve"
         style="font-style:normal;font-weight:normal;font-size:8.36770344px;line-height:1.25;font-family:sans-serif;letter-spacing:0px;word-spacing:0px;opacity:0.8;fill:#141414;fill-opacity:1;stroke:none;stroke-width:1"
         x="7.3463049"
         y="14.150944"
         id="text10006"
         transform="scale(1.044878,0.95704952)"><tspan
           sodipodi:role="line"
           id="tspan10004"
           x="7.3463049"
           y="14.150944"
           style="font-style:normal;font-variant:normal;font-weight:bold;font-stretch:normal;font-family:Arial;-inkscape-font-specification:'Arial Bold';fill:#141414;fill-opacity:1;stroke-width:1">R</tspan></text>
    </g>
  </g>
</svg>
