<?xml version="1.0" encoding="UTF-8" standalone="no"?>
<svg
   xmlns:dc="http://purl.org/dc/elements/1.1/"
   xmlns:cc="http://creativecommons.org/ns#"
   xmlns:rdf="http://www.w3.org/1999/02/22-rdf-syntax-ns#"
   xmlns:svg="http://www.w3.org/2000/svg"
   xmlns="http://www.w3.org/2000/svg"
   xmlns:sodipodi="http://sodipodi.sourceforge.net/DTD/sodipodi-0.dtd"
   xmlns:inkscape="http://www.inkscape.org/namespaces/inkscape"
   width="1em"
   height="1em"
   viewBox="0 0 16 16"
   class="bi bi-alarm"
   fill="currentColor"
   version="1.1"
   id="svg6797"
   sodipodi:docname="articulo_grupo_list.svg"
   inkscape:version="0.92.3 (2405546, 2018-03-11)">
  <metadata
     id="metadata6803">
    <rdf:RDF>
      <cc:Work
         rdf:about="">
        <dc:format>image/svg+xml</dc:format>
        <dc:type
           rdf:resource="http://purl.org/dc/dcmitype/StillImage" />
        <dc:title></dc:title>
      </cc:Work>
    </rdf:RDF>
  </metadata>
  <defs
     id="defs6801">
    <filter
       inkscape:collect="always"
       style="color-interpolation-filters:sRGB"
       id="filter13091"
       x="-0.024029566"
       width="1.0480591"
       y="-0.023972018"
       height="1.047944">
      <feGaussianBlur
         inkscape:collect="always"
         stdDeviation="0.1580287"
         id="feGaussianBlur13093" />
    </filter>
  </defs>
  <sodipodi:namedview
     pagecolor="#ffffff"
     bordercolor="#666666"
     borderopacity="1"
     objecttolerance="10"
     gridtolerance="10"
     guidetolerance="10"
     inkscape:pageopacity="0"
     inkscape:pageshadow="2"
     inkscape:window-width="1600"
     inkscape:window-height="847"
     id="namedview6799"
     showgrid="true"
     inkscape:zoom="29.5"
     inkscape:cx="15.84199"
     inkscape:cy="8.9797984"
     inkscape:window-x="-8"
     inkscape:window-y="-8"
     inkscape:window-maximized="1"
     inkscape:current-layer="svg6797"
     inkscape:snap-global="false">
    <inkscape:grid
       type="xygrid"
       id="grid8461" />
  </sodipodi:namedview>
  <g
     style="fill:#000000;stroke:#141414;stroke-width:4.5188427;stroke-miterlimit:4;stroke-dasharray:none;stroke-opacity:1"
     id="g7673"
     transform="matrix(0.02130141,0,0,0.0229899,0.05986501,0.01799283)" />
  <g
     style="fill:#000000;stroke:#141414;stroke-width:4.5188427;stroke-miterlimit:4;stroke-dasharray:none;stroke-opacity:1"
     id="g7675"
     transform="matrix(0.02130141,0,0,0.0229899,0.05986501,0.01799283)" />
  <g
     style="fill:#000000;stroke:#141414;stroke-width:4.5188427;stroke-miterlimit:4;stroke-dasharray:none;stroke-opacity:1"
     id="g7677"
     transform="matrix(0.02130141,0,0,0.0229899,0.05986501,0.01799283)" />
  <g
     style="fill:#000000;stroke:#141414;stroke-width:4.5188427;stroke-miterlimit:4;stroke-dasharray:none;stroke-opacity:1"
     id="g7679"
     transform="matrix(0.02130141,0,0,0.0229899,0.05986501,0.01799283)" />
  <g
     style="fill:#000000;stroke:#141414;stroke-width:4.5188427;stroke-miterlimit:4;stroke-dasharray:none;stroke-opacity:1"
     id="g7681"
     transform="matrix(0.02130141,0,0,0.0229899,0.05986501,0.01799283)" />
  <g
     style="fill:#000000;stroke:#141414;stroke-width:4.5188427;stroke-miterlimit:4;stroke-dasharray:none;stroke-opacity:1"
     id="g7683"
     transform="matrix(0.02130141,0,0,0.0229899,0.05986501,0.01799283)" />
  <g
     style="fill:#000000;stroke:#141414;stroke-width:4.5188427;stroke-miterlimit:4;stroke-dasharray:none;stroke-opacity:1"
     id="g7685"
     transform="matrix(0.02130141,0,0,0.0229899,0.05986501,0.01799283)" />
  <g
     style="fill:#000000;stroke:#141414;stroke-width:4.5188427;stroke-miterlimit:4;stroke-dasharray:none;stroke-opacity:1"
     id="g7687"
     transform="matrix(0.02130141,0,0,0.0229899,0.05986501,0.01799283)" />
  <g
     style="fill:#000000;stroke:#141414;stroke-width:4.5188427;stroke-miterlimit:4;stroke-dasharray:none;stroke-opacity:1"
     id="g7689"
     transform="matrix(0.02130141,0,0,0.0229899,0.05986501,0.01799283)" />
  <g
     style="fill:#000000;stroke:#141414;stroke-width:4.5188427;stroke-miterlimit:4;stroke-dasharray:none;stroke-opacity:1"
     id="g7691"
     transform="matrix(0.02130141,0,0,0.0229899,0.05986501,0.01799283)" />
  <g
     style="fill:#000000;stroke:#141414;stroke-width:4.5188427;stroke-miterlimit:4;stroke-dasharray:none;stroke-opacity:1"
     id="g7693"
     transform="matrix(0.02130141,0,0,0.0229899,0.05986501,0.01799283)" />
  <g
     style="fill:#000000;stroke:#141414;stroke-width:4.5188427;stroke-miterlimit:4;stroke-dasharray:none;stroke-opacity:1"
     id="g7695"
     transform="matrix(0.02130141,0,0,0.0229899,0.05986501,0.01799283)" />
  <g
     style="fill:#000000;stroke:#141414;stroke-width:4.5188427;stroke-miterlimit:4;stroke-dasharray:none;stroke-opacity:1"
     id="g7697"
     transform="matrix(0.02130141,0,0,0.0229899,0.05986501,0.01799283)" />
  <g
     style="fill:#000000;stroke:#141414;stroke-width:4.5188427;stroke-miterlimit:4;stroke-dasharray:none;stroke-opacity:1"
     id="g7699"
     transform="matrix(0.02130141,0,0,0.0229899,0.05986501,0.01799283)" />
  <g
     style="fill:#000000;stroke:#141414;stroke-width:4.5188427;stroke-miterlimit:4;stroke-dasharray:none;stroke-opacity:1"
     id="g7701"
     transform="matrix(0.02130141,0,0,0.0229899,0.05986501,0.01799283)" />
  <g
     id="g12891"
     transform="matrix(0.81100086,0,0,0.82216673,0.02222286,2.8356267)"
     style="stroke-width:1.22464263;filter:url(#filter13091)">
    <path
       id="path12765"
       d="M 7.7438137,6.2920792 H 3.0771385 V 2.1241595 c 0,-0.069738 0.078026,-0.1262559 0.1742331,-0.1262559 h 4.318209 c 0.096239,0 0.1742331,0.05654 0.1742331,0.1262559 z"
       inkscape:connector-curvature="0"
       style="fill:#c8b7b7;stroke:#141414;stroke-width:0.24492854;stroke-miterlimit:4;stroke-dasharray:none;stroke-opacity:1" />
    <path
       id="path12771"
       d="M 13.101653,11.432596 H 5.9501033 V 4.8220324 H 12.92742 c 0.09624,0 0.174233,0.070378 0.174233,0.1571567 z"
       inkscape:connector-curvature="0"
       style="fill:#f1cb86;stroke:#141414;stroke-width:0.24492852;stroke-miterlimit:4;stroke-dasharray:none;stroke-opacity:1" />
    <path
       id="path12777"
       d="M 8.5460445,15.945415 H 0.11759006 v -5.59378 c 0,-0.09635 0.0780256,-0.174438 0.17423307,-0.174438 H 8.5460445 Z"
       inkscape:connector-curvature="0"
       style="fill:#ff7f2a;stroke:#141414;stroke-width:0.24492854;stroke-miterlimit:4;stroke-dasharray:none;stroke-opacity:1" />
    <path
       id="path12783"
       d="M 15.901016,15.945415 H 8.5460441 v -4.512818 h 7.1757509 c 0.09898,0 0.179188,0.07812 0.179188,0.174438 v 4.33838 z"
       inkscape:connector-curvature="0"
       style="fill:#ff8080;stroke:#141414;stroke-width:0.24492852;stroke-miterlimit:4;stroke-dasharray:none;stroke-opacity:1" />
    <path
       id="path12789"
       d="M 5.9501033,10.177197 H 1.2834282 V 6.4665484 c 0,-0.096352 0.078026,-0.1744378 0.174233,-0.1744378 h 4.4924421 z"
       inkscape:connector-curvature="0"
       style="fill:#ffcc00;stroke:#141414;stroke-width:0.24492854;stroke-miterlimit:4;stroke-dasharray:none;stroke-opacity:1" />
    <path
       id="path12765-8"
       d="M 11.214693,4.8250538 H 7.7005603 V 0.2623146 c 0,-0.0763441 0.058758,-0.1382159 0.1312022,-0.1382159 H 11.08349 c 0.07247,0 0.131203,0.061896 0.131203,0.1382159 z"
       inkscape:connector-curvature="0"
       style="fill:#afe9c6;stroke:#141414;stroke-width:0.24492854;stroke-miterlimit:4;stroke-dasharray:none;stroke-opacity:1" />
  </g>
  <g
     id="g13077"
     transform="matrix(0.02435331,0,0,0.02138507,5.240128,0.03390233)"
     style="stroke-width:4.3819323;stroke:#141414;stroke-opacity:1;stroke-miterlimit:4;stroke-dasharray:none">
    <path
       id="path12968"
       d="M 406.069,512 H 105.931 C 86.43,512 70.621,496.191 70.621,476.69 V 70.621 c 0,-19.501 15.809,-35.31 35.31,-35.31 h 300.138 c 19.501,0 35.31,15.809 35.31,35.31 V 476.69 c 0,19.501 -15.809,35.31 -35.31,35.31 z"
       style="fill:#e1c3a0;stroke-width:4.3819323;stroke:#141414;stroke-opacity:1;stroke-miterlimit:4;stroke-dasharray:none"
       inkscape:connector-curvature="0" />
    <path
       id="path12970"
       d="M 406.069,485.517 H 105.931 c -4.875,0 -8.828,-3.953 -8.828,-8.828 V 70.621 c 0,-4.875 3.953,-8.828 8.828,-8.828 h 300.138 c 4.875,0 8.828,3.953 8.828,8.828 V 476.69 c 0,4.875 -3.953,8.827 -8.828,8.827 z"
       style="fill:#eff2fa;stroke-width:4.3819323;stroke:#141414;stroke-opacity:1;stroke-miterlimit:4;stroke-dasharray:none"
       inkscape:connector-curvature="0" />
    <path
       id="path12972"
       d="M 308.966,35.31 H 282.483 V 26.482 C 282.483,11.857 270.626,0 256,0 241.374,0 229.517,11.857 229.517,26.483 v 8.828 h -26.483 c -9.75,0 -17.655,7.904 -17.655,17.655 V 70.621 H 326.62 V 52.966 C 326.621,43.214 318.716,35.31 308.966,35.31 Z m -52.966,0 c -4.875,0 -8.828,-3.953 -8.828,-8.828 0,-4.875 3.953,-8.828 8.828,-8.828 4.875,0 8.828,3.953 8.828,8.828 0,4.875 -3.953,8.828 -8.828,8.828 z"
       style="fill:#c7cfe2;stroke-width:4.3819323;stroke:#141414;stroke-opacity:1;stroke-miterlimit:4;stroke-dasharray:none"
       inkscape:connector-curvature="0" />
    <path
       id="path12974"
       d="M 326.621,79.448 H 185.379 c -4.875,0 -8.828,-3.953 -8.828,-8.828 v 0 c 0,-4.875 3.953,-8.828 8.828,-8.828 H 326.62 c 4.875,0 8.828,3.953 8.828,8.828 v 0 c 0,4.876 -3.952,8.828 -8.827,8.828 z"
       style="fill:#afb9d2;stroke-width:4.3819323;stroke:#141414;stroke-opacity:1;stroke-miterlimit:4;stroke-dasharray:none"
       inkscape:connector-curvature="0" />
    <path
       id="path12976"
       d="m 167.724,203.034 c -2.259,0 -4.518,-0.862 -6.241,-2.586 L 135,173.965 c -3.448,-3.448 -3.448,-9.035 0,-12.483 3.448,-3.448 9.035,-3.448 12.483,0 l 20.241,20.242 37.897,-37.897 c 3.448,-3.448 9.035,-3.448 12.483,0 3.448,3.448 3.448,9.035 0,12.483 l -44.138,44.138 c -1.724,1.725 -3.983,2.586 -6.242,2.586 z"
       style="fill:#82889d;stroke-width:4.3819323;stroke:#141414;stroke-opacity:1;stroke-miterlimit:4;stroke-dasharray:none"
       inkscape:connector-curvature="0" />
    <g
       id="g12980"
       style="opacity:0.97000002;stroke-width:4.3819323;stroke:#141414;stroke-opacity:1;stroke-miterlimit:4;stroke-dasharray:none">
	<path
   id="path12978"
   d="m 317.793,167.724 h -70.621 c -4.875,0 -8.828,-3.953 -8.828,-8.828 v 0 c 0,-4.875 3.953,-8.828 8.828,-8.828 h 70.621 c 4.875,0 8.828,3.953 8.828,8.828 v 0 c 0,4.876 -3.953,8.828 -8.828,8.828 z"
   style="fill:#afb9d2;stroke-width:4.3819323;stroke:#141414;stroke-opacity:1;stroke-miterlimit:4;stroke-dasharray:none"
   inkscape:connector-curvature="0" />

</g>
    <g
       id="g12984"
       style="opacity:0.97000002;stroke-width:4.3819323;stroke:#141414;stroke-opacity:1;stroke-miterlimit:4;stroke-dasharray:none">
	<path
   id="path12982"
   d="M 361.931,203.034 H 247.172 c -4.875,0 -8.828,-3.953 -8.828,-8.828 v 0 c 0,-4.875 3.953,-8.828 8.828,-8.828 h 114.759 c 4.875,0 8.828,3.953 8.828,8.828 v 0 c 0,4.876 -3.953,8.828 -8.828,8.828 z"
   style="fill:#c7cfe2;stroke-width:4.3819323;stroke:#141414;stroke-opacity:1;stroke-miterlimit:4;stroke-dasharray:none"
   inkscape:connector-curvature="0" />

</g>
    <path
       id="path12986"
       d="m 167.724,414.897 c -2.259,0 -4.518,-0.862 -6.241,-2.586 L 135,385.827 c -3.448,-3.448 -3.448,-9.035 0,-12.483 3.448,-3.448 9.035,-3.448 12.483,0 l 20.241,20.242 37.897,-37.897 c 3.448,-3.448 9.035,-3.448 12.483,0 3.448,3.448 3.448,9.035 0,12.483 l -44.138,44.138 c -1.724,1.725 -3.983,2.587 -6.242,2.587 z"
       style="fill:#82889d;stroke-width:4.3819323;stroke:#141414;stroke-opacity:1;stroke-miterlimit:4;stroke-dasharray:none"
       inkscape:connector-curvature="0" />
    <g
       id="g12990"
       style="opacity:0.97000002;stroke-width:4.3819323;stroke:#141414;stroke-opacity:1;stroke-miterlimit:4;stroke-dasharray:none">
	<path
   id="path12988"
   d="m 317.793,379.586 h -70.621 c -4.875,0 -8.828,-3.953 -8.828,-8.828 v 0 c 0,-4.875 3.953,-8.828 8.828,-8.828 h 70.621 c 4.875,0 8.828,3.953 8.828,8.828 v 0 c 0,4.876 -3.953,8.828 -8.828,8.828 z"
   style="fill:#afb9d2;stroke-width:4.3819323;stroke:#141414;stroke-opacity:1;stroke-miterlimit:4;stroke-dasharray:none"
   inkscape:connector-curvature="0" />

</g>
    <g
       id="g12994"
       style="opacity:0.97000002;stroke-width:4.3819323;stroke:#141414;stroke-opacity:1;stroke-miterlimit:4;stroke-dasharray:none">
	<path
   id="path12992"
   d="M 361.931,414.897 H 247.172 c -4.875,0 -8.828,-3.953 -8.828,-8.828 v 0 c 0,-4.875 3.953,-8.828 8.828,-8.828 h 114.759 c 4.875,0 8.828,3.953 8.828,8.828 v 0 c 0,4.875 -3.953,8.828 -8.828,8.828 z"
   style="fill:#c7cfe2;stroke-width:4.3819323;stroke:#141414;stroke-opacity:1;stroke-miterlimit:4;stroke-dasharray:none"
   inkscape:connector-curvature="0" />

</g>
    <path
       id="path12996"
       d="m 167.724,308.966 c -2.259,0 -4.518,-0.862 -6.241,-2.586 L 135,279.896 c -3.448,-3.448 -3.448,-9.035 0,-12.483 3.448,-3.448 9.035,-3.448 12.483,0 l 20.241,20.242 37.897,-37.897 c 3.448,-3.448 9.035,-3.448 12.483,0 3.448,3.448 3.448,9.035 0,12.483 l -44.138,44.138 c -1.724,1.725 -3.983,2.587 -6.242,2.587 z"
       style="fill:#82889d;stroke-width:4.3819323;stroke:#141414;stroke-opacity:1;stroke-miterlimit:4;stroke-dasharray:none"
       inkscape:connector-curvature="0" />
    <g
       id="g13000"
       style="opacity:0.97000002;stroke-width:4.3819323;stroke:#141414;stroke-opacity:1;stroke-miterlimit:4;stroke-dasharray:none">
	<path
   id="path12998"
   d="m 317.793,273.655 h -70.621 c -4.875,0 -8.828,-3.953 -8.828,-8.828 v 0 c 0,-4.875 3.953,-8.828 8.828,-8.828 h 70.621 c 4.875,0 8.828,3.953 8.828,8.828 v 0 c 0,4.876 -3.953,8.828 -8.828,8.828 z"
   style="fill:#afb9d2;stroke-width:4.3819323;stroke:#141414;stroke-opacity:1;stroke-miterlimit:4;stroke-dasharray:none"
   inkscape:connector-curvature="0" />

</g>
    <g
       id="g13004"
       style="opacity:0.97000002;stroke-width:4.3819323;stroke:#141414;stroke-opacity:1;stroke-miterlimit:4;stroke-dasharray:none">
	<path
   id="path13002"
   d="M 361.931,308.966 H 247.172 c -4.875,0 -8.828,-3.953 -8.828,-8.828 v 0 c 0,-4.875 3.953,-8.828 8.828,-8.828 h 114.759 c 4.875,0 8.828,3.953 8.828,8.828 v 0 c 0,4.875 -3.953,8.828 -8.828,8.828 z"
   style="fill:#c7cfe2;stroke-width:4.3819323;stroke:#141414;stroke-opacity:1;stroke-miterlimit:4;stroke-dasharray:none"
   inkscape:connector-curvature="0" />

</g>
    <g
       id="g13006"
       style="stroke-width:4.3819323;stroke:#141414;stroke-opacity:1;stroke-miterlimit:4;stroke-dasharray:none">
</g>
    <g
       id="g13008"
       style="stroke-width:4.3819323;stroke:#141414;stroke-opacity:1;stroke-miterlimit:4;stroke-dasharray:none">
</g>
    <g
       id="g13010"
       style="stroke-width:4.3819323;stroke:#141414;stroke-opacity:1;stroke-miterlimit:4;stroke-dasharray:none">
</g>
    <g
       id="g13012"
       style="stroke-width:4.3819323;stroke:#141414;stroke-opacity:1;stroke-miterlimit:4;stroke-dasharray:none">
</g>
    <g
       id="g13014"
       style="stroke-width:4.3819323;stroke:#141414;stroke-opacity:1;stroke-miterlimit:4;stroke-dasharray:none">
</g>
    <g
       id="g13016"
       style="stroke-width:4.3819323;stroke:#141414;stroke-opacity:1;stroke-miterlimit:4;stroke-dasharray:none">
</g>
    <g
       id="g13018"
       style="stroke-width:4.3819323;stroke:#141414;stroke-opacity:1;stroke-miterlimit:4;stroke-dasharray:none">
</g>
    <g
       id="g13020"
       style="stroke-width:4.3819323;stroke:#141414;stroke-opacity:1;stroke-miterlimit:4;stroke-dasharray:none">
</g>
    <g
       id="g13022"
       style="stroke-width:4.3819323;stroke:#141414;stroke-opacity:1;stroke-miterlimit:4;stroke-dasharray:none">
</g>
    <g
       id="g13024"
       style="stroke-width:4.3819323;stroke:#141414;stroke-opacity:1;stroke-miterlimit:4;stroke-dasharray:none">
</g>
    <g
       id="g13026"
       style="stroke-width:4.3819323;stroke:#141414;stroke-opacity:1;stroke-miterlimit:4;stroke-dasharray:none">
</g>
    <g
       id="g13028"
       style="stroke-width:4.3819323;stroke:#141414;stroke-opacity:1;stroke-miterlimit:4;stroke-dasharray:none">
</g>
    <g
       id="g13030"
       style="stroke-width:4.3819323;stroke:#141414;stroke-opacity:1;stroke-miterlimit:4;stroke-dasharray:none">
</g>
    <g
       id="g13032"
       style="stroke-width:4.3819323;stroke:#141414;stroke-opacity:1;stroke-miterlimit:4;stroke-dasharray:none">
</g>
    <g
       id="g13034"
       style="stroke-width:4.3819323;stroke:#141414;stroke-opacity:1;stroke-miterlimit:4;stroke-dasharray:none">
</g>
  </g>
</svg>
