<?xml version="1.0" encoding="UTF-8" standalone="no"?>
<svg
   xmlns:dc="http://purl.org/dc/elements/1.1/"
   xmlns:cc="http://creativecommons.org/ns#"
   xmlns:rdf="http://www.w3.org/1999/02/22-rdf-syntax-ns#"
   xmlns:svg="http://www.w3.org/2000/svg"
   xmlns="http://www.w3.org/2000/svg"
   xmlns:sodipodi="http://sodipodi.sourceforge.net/DTD/sodipodi-0.dtd"
   xmlns:inkscape="http://www.inkscape.org/namespaces/inkscape"
   width="1em"
   height="1em"
   viewBox="0 0 16 16"
   class="bi bi-align-middle"
   fill="currentColor"
   version="1.1"
   id="svg4"
   sodipodi:docname="employee.svg"
   inkscape:version="0.92.3 (2405546, 2018-03-11)">
  <metadata
     id="metadata10">
    <rdf:RDF>
      <cc:Work
         rdf:about="">
        <dc:format>image/svg+xml</dc:format>
        <dc:type
           rdf:resource="http://purl.org/dc/dcmitype/StillImage" />
        <dc:title></dc:title>
      </cc:Work>
    </rdf:RDF>
  </metadata>
  <defs
     id="defs8" />
  <sodipodi:namedview
     pagecolor="#ffffff"
     bordercolor="#666666"
     borderopacity="1"
     objecttolerance="10"
     gridtolerance="10"
     guidetolerance="10"
     inkscape:pageopacity="0"
     inkscape:pageshadow="2"
     inkscape:window-width="1600"
     inkscape:window-height="847"
     id="namedview6"
     showgrid="false"
     inkscape:zoom="41.7193"
     inkscape:cx="7.6557794"
     inkscape:cy="7.1178568"
     inkscape:window-x="-8"
     inkscape:window-y="-8"
     inkscape:window-maximized="1"
     inkscape:current-layer="svg4" />
  <path
     style="stroke-width:0.1;fill:#ffcc00;stroke:#000000;stroke-opacity:1;stroke-miterlimit:4;stroke-dasharray:none"
     inkscape:connector-curvature="0"
     d="m 5.9900086,6.6416771 c -1.8414543,0 -3.3395979,-1.494498 -3.3395979,-3.3314712 0,-1.8369732 1.4981436,-3.33147113 3.3395979,-3.33147113 1.8414543,0 3.339598,1.49449793 3.339598,3.33147113 0,1.8369732 -1.4981437,3.3314712 -3.339598,3.3314712 z"
     id="path832" />
  <path
     style="stroke-width:0.1;fill:#ffcc00;stroke-miterlimit:4;stroke-dasharray:none;stroke:#000000;stroke-opacity:1"
     inkscape:connector-curvature="0"
     d="m 3.1513504,7.9742655 c -1.7499494,0 -3.17261809,1.4192067 -3.17261809,3.1648975 v 2.33203 c 0,0.273181 0.22709266,0.499721 0.50093969,0.499721 h 6.1782562 v -2.165457 c 0,-1.252633 0.9350874,-2.2853889 2.1440219,-2.4652883 C 8.9756092,8.8337851 9.3028898,8.4073568 9.7236791,8.1008614 9.0557595,7.9103013 9.0196919,7.9742655 3.1513504,7.9742655 Z"
     id="path834" />
  <path
     style="stroke-width:0.1;fill:#008080;stroke:#000000;stroke-opacity:1;stroke-miterlimit:4;stroke-dasharray:none"
     inkscape:connector-curvature="0"
     d="m 14.839943,10.639442 h -0.834899 v -0.49972 c 0,-0.6429742 -0.524317,-1.1660151 -1.16886,-1.1660151 h -1.669799 c -0.644542,0 -1.1688588,0.5230409 -1.1688588,1.1660151 v 0.49972 H 9.1626267 c -0.3286165,0 -0.6245048,0.136591 -0.8369033,0.355135 l 3.6755616,1.912931 3.675561,-1.912931 C 15.464448,10.776033 15.16856,10.639442 14.839943,10.639442 Z m -3.840537,0 v -0.49972 c 0,-0.09195 0.07481,-0.1665738 0.166979,-0.1665738 h 1.669799 c 0.09217,0 0.16698,0.074625 0.16698,0.1665738 v 0.49972 z"
     id="path836" />
  <path
     style="stroke-width:0.1;fill:#008080;stroke-miterlimit:4;stroke-dasharray:none;stroke:#000000;stroke-opacity:1"
     inkscape:connector-curvature="0"
     d="m 12.233053,13.914279 c -0.144939,0.07529 -0.318598,0.07529 -0.462868,0 L 7.9937674,11.948711 v 2.85507 c 0,0.642974 0.5243169,1.166015 1.1688593,1.166015 h 5.6773163 c 0.644543,0 1.168859,-0.523041 1.168859,-1.166015 v -2.85507 z"
     id="path838" />
</svg>
