<?xml version="1.0" encoding="UTF-8" standalone="no"?>
<svg
   xmlns:dc="http://purl.org/dc/elements/1.1/"
   xmlns:cc="http://creativecommons.org/ns#"
   xmlns:rdf="http://www.w3.org/1999/02/22-rdf-syntax-ns#"
   xmlns:svg="http://www.w3.org/2000/svg"
   xmlns="http://www.w3.org/2000/svg"
   xmlns:sodipodi="http://sodipodi.sourceforge.net/DTD/sodipodi-0.dtd"
   xmlns:inkscape="http://www.inkscape.org/namespaces/inkscape"
   width="1em"
   height="1em"
   viewBox="0 0 16 16"
   class="bi bi-alarm"
   fill="currentColor"
   version="1.1"
   id="svg6797"
   sodipodi:docname="impuesto_add.svg"
   inkscape:version="0.92.3 (2405546, 2018-03-11)">
  <metadata
     id="metadata6803">
    <rdf:RDF>
      <cc:Work
         rdf:about="">
        <dc:format>image/svg+xml</dc:format>
        <dc:type
           rdf:resource="http://purl.org/dc/dcmitype/StillImage" />
        <dc:title />
      </cc:Work>
    </rdf:RDF>
  </metadata>
  <defs
     id="defs6801" />
  <sodipodi:namedview
     pagecolor="#ffffff"
     bordercolor="#666666"
     borderopacity="1"
     objecttolerance="10"
     gridtolerance="10"
     guidetolerance="10"
     inkscape:pageopacity="0"
     inkscape:pageshadow="2"
     inkscape:window-width="1600"
     inkscape:window-height="847"
     id="namedview6799"
     showgrid="true"
     inkscape:zoom="29.5"
     inkscape:cx="0.95104051"
     inkscape:cy="7.2661667"
     inkscape:window-x="-8"
     inkscape:window-y="-8"
     inkscape:window-maximized="1"
     inkscape:current-layer="svg6797"
     inkscape:snap-global="false"
     showguides="false">
    <inkscape:grid
       type="xygrid"
       id="grid8461" />
  </sodipodi:namedview>
  <g
     style="fill:#000000;stroke:#141414;stroke-width:4.5188427;stroke-miterlimit:4;stroke-dasharray:none;stroke-opacity:1"
     id="g7673"
     transform="matrix(0.02130141,0,0,0.0229899,0.05986501,0.01799283)" />
  <g
     style="fill:#000000;stroke:#141414;stroke-width:4.5188427;stroke-miterlimit:4;stroke-dasharray:none;stroke-opacity:1"
     id="g7675"
     transform="matrix(0.02130141,0,0,0.0229899,0.05986501,0.01799283)" />
  <g
     style="fill:#000000;stroke:#141414;stroke-width:4.5188427;stroke-miterlimit:4;stroke-dasharray:none;stroke-opacity:1"
     id="g7677"
     transform="matrix(0.02130141,0,0,0.0229899,0.05986501,0.01799283)" />
  <g
     style="fill:#000000;stroke:#141414;stroke-width:4.5188427;stroke-miterlimit:4;stroke-dasharray:none;stroke-opacity:1"
     id="g7679"
     transform="matrix(0.02130141,0,0,0.0229899,0.05986501,0.01799283)" />
  <g
     style="fill:#000000;stroke:#141414;stroke-width:4.5188427;stroke-miterlimit:4;stroke-dasharray:none;stroke-opacity:1"
     id="g7681"
     transform="matrix(0.02130141,0,0,0.0229899,0.05986501,0.01799283)" />
  <g
     style="fill:#000000;stroke:#141414;stroke-width:4.5188427;stroke-miterlimit:4;stroke-dasharray:none;stroke-opacity:1"
     id="g7683"
     transform="matrix(0.02130141,0,0,0.0229899,0.05986501,0.01799283)" />
  <g
     style="fill:#000000;stroke:#141414;stroke-width:4.5188427;stroke-miterlimit:4;stroke-dasharray:none;stroke-opacity:1"
     id="g7685"
     transform="matrix(0.02130141,0,0,0.0229899,0.05986501,0.01799283)" />
  <g
     style="fill:#000000;stroke:#141414;stroke-width:4.5188427;stroke-miterlimit:4;stroke-dasharray:none;stroke-opacity:1"
     id="g7687"
     transform="matrix(0.02130141,0,0,0.0229899,0.05986501,0.01799283)" />
  <g
     style="fill:#000000;stroke:#141414;stroke-width:4.5188427;stroke-miterlimit:4;stroke-dasharray:none;stroke-opacity:1"
     id="g7689"
     transform="matrix(0.02130141,0,0,0.0229899,0.05986501,0.01799283)" />
  <g
     style="fill:#000000;stroke:#141414;stroke-width:4.5188427;stroke-miterlimit:4;stroke-dasharray:none;stroke-opacity:1"
     id="g7691"
     transform="matrix(0.02130141,0,0,0.0229899,0.05986501,0.01799283)" />
  <g
     style="fill:#000000;stroke:#141414;stroke-width:4.5188427;stroke-miterlimit:4;stroke-dasharray:none;stroke-opacity:1"
     id="g7693"
     transform="matrix(0.02130141,0,0,0.0229899,0.05986501,0.01799283)" />
  <g
     style="fill:#000000;stroke:#141414;stroke-width:4.5188427;stroke-miterlimit:4;stroke-dasharray:none;stroke-opacity:1"
     id="g7695"
     transform="matrix(0.02130141,0,0,0.0229899,0.05986501,0.01799283)" />
  <g
     style="fill:#000000;stroke:#141414;stroke-width:4.5188427;stroke-miterlimit:4;stroke-dasharray:none;stroke-opacity:1"
     id="g7697"
     transform="matrix(0.02130141,0,0,0.0229899,0.05986501,0.01799283)" />
  <g
     style="fill:#000000;stroke:#141414;stroke-width:4.5188427;stroke-miterlimit:4;stroke-dasharray:none;stroke-opacity:1"
     id="g7699"
     transform="matrix(0.02130141,0,0,0.0229899,0.05986501,0.01799283)" />
  <g
     style="fill:#000000;stroke:#141414;stroke-width:4.5188427;stroke-miterlimit:4;stroke-dasharray:none;stroke-opacity:1"
     id="g7701"
     transform="matrix(0.02130141,0,0,0.0229899,0.05986501,0.01799283)" />
  <g
     style="stroke:#141414;stroke-width:5.85344696;stroke-miterlimit:4;stroke-dasharray:none;stroke-opacity:1"
     id="g13006"
     transform="matrix(0.03751047,0,0,0.03112319,-1.6196299,0.03246986)" />
  <g
     style="stroke:#141414;stroke-width:5.85344696;stroke-miterlimit:4;stroke-dasharray:none;stroke-opacity:1"
     id="g13008"
     transform="matrix(0.03751047,0,0,0.03112319,-1.6196299,0.03246986)" />
  <g
     style="stroke:#141414;stroke-width:5.85344696;stroke-miterlimit:4;stroke-dasharray:none;stroke-opacity:1"
     id="g13010"
     transform="matrix(0.03751047,0,0,0.03112319,-1.6196299,0.03246986)" />
  <g
     style="stroke:#141414;stroke-width:5.85344696;stroke-miterlimit:4;stroke-dasharray:none;stroke-opacity:1"
     id="g13012"
     transform="matrix(0.03751047,0,0,0.03112319,-1.6196299,0.03246986)" />
  <g
     style="stroke:#141414;stroke-width:5.85344696;stroke-miterlimit:4;stroke-dasharray:none;stroke-opacity:1"
     id="g13014"
     transform="matrix(0.03751047,0,0,0.03112319,-1.6196299,0.03246986)" />
  <g
     style="stroke:#141414;stroke-width:5.85344696;stroke-miterlimit:4;stroke-dasharray:none;stroke-opacity:1"
     id="g13016"
     transform="matrix(0.03751047,0,0,0.03112319,-1.6196299,0.03246986)" />
  <g
     style="stroke:#141414;stroke-width:5.85344696;stroke-miterlimit:4;stroke-dasharray:none;stroke-opacity:1"
     id="g13018"
     transform="matrix(0.03751047,0,0,0.03112319,-1.6196299,0.03246986)" />
  <g
     style="stroke:#141414;stroke-width:5.85344696;stroke-miterlimit:4;stroke-dasharray:none;stroke-opacity:1"
     id="g13020"
     transform="matrix(0.03751047,0,0,0.03112319,-1.6196299,0.03246986)" />
  <g
     style="stroke:#141414;stroke-width:5.85344696;stroke-miterlimit:4;stroke-dasharray:none;stroke-opacity:1"
     id="g13022"
     transform="matrix(0.03751047,0,0,0.03112319,-1.6196299,0.03246986)" />
  <g
     style="stroke:#141414;stroke-width:5.85344696;stroke-miterlimit:4;stroke-dasharray:none;stroke-opacity:1"
     id="g13024"
     transform="matrix(0.03751047,0,0,0.03112319,-1.6196299,0.03246986)" />
  <g
     style="stroke:#141414;stroke-width:5.85344696;stroke-miterlimit:4;stroke-dasharray:none;stroke-opacity:1"
     id="g13026"
     transform="matrix(0.03751047,0,0,0.03112319,-1.6196299,0.03246986)" />
  <g
     style="stroke:#141414;stroke-width:5.85344696;stroke-miterlimit:4;stroke-dasharray:none;stroke-opacity:1"
     id="g13028"
     transform="matrix(0.03751047,0,0,0.03112319,-1.6196299,0.03246986)" />
  <g
     style="stroke:#141414;stroke-width:5.85344696;stroke-miterlimit:4;stroke-dasharray:none;stroke-opacity:1"
     id="g13030"
     transform="matrix(0.03751047,0,0,0.03112319,-1.6196299,0.03246986)" />
  <g
     style="stroke:#141414;stroke-width:5.85344696;stroke-miterlimit:4;stroke-dasharray:none;stroke-opacity:1"
     id="g13032"
     transform="matrix(0.03751047,0,0,0.03112319,-1.6196299,0.03246986)" />
  <g
     style="stroke:#141414;stroke-width:5.85344696;stroke-miterlimit:4;stroke-dasharray:none;stroke-opacity:1"
     id="g13034"
     transform="matrix(0.03751047,0,0,0.03112319,-1.6196299,0.03246986)" />
  <g
     style="stroke-width:30.24335861"
     id="g13263"
     transform="matrix(0.03484422,0,0,0.03137685,-0.92637169,-0.00538878)" />
  <g
     style="stroke-width:30.24335861"
     id="g13265"
     transform="matrix(0.03484422,0,0,0.03137685,-0.92637169,-0.00538878)" />
  <g
     style="stroke-width:30.24335861"
     id="g13267"
     transform="matrix(0.03484422,0,0,0.03137685,-0.92637169,-0.00538878)" />
  <g
     style="stroke-width:30.24335861"
     id="g13269"
     transform="matrix(0.03484422,0,0,0.03137685,-0.92637169,-0.00538878)" />
  <g
     style="stroke-width:30.24335861"
     id="g13271"
     transform="matrix(0.03484422,0,0,0.03137685,-0.92637169,-0.00538878)" />
  <g
     style="stroke-width:30.24335861"
     id="g13273"
     transform="matrix(0.03484422,0,0,0.03137685,-0.92637169,-0.00538878)" />
  <g
     style="stroke-width:30.24335861"
     id="g13275"
     transform="matrix(0.03484422,0,0,0.03137685,-0.92637169,-0.00538878)" />
  <g
     style="stroke-width:30.24335861"
     id="g13277"
     transform="matrix(0.03484422,0,0,0.03137685,-0.92637169,-0.00538878)" />
  <g
     style="stroke-width:30.24335861"
     id="g13279"
     transform="matrix(0.03484422,0,0,0.03137685,-0.92637169,-0.00538878)" />
  <g
     style="stroke-width:30.24335861"
     id="g13281"
     transform="matrix(0.03484422,0,0,0.03137685,-0.92637169,-0.00538878)" />
  <g
     style="stroke-width:30.24335861"
     id="g13283"
     transform="matrix(0.03484422,0,0,0.03137685,-0.92637169,-0.00538878)" />
  <g
     style="stroke-width:30.24335861"
     id="g13285"
     transform="matrix(0.03484422,0,0,0.03137685,-0.92637169,-0.00538878)" />
  <g
     style="stroke-width:30.24335861"
     id="g13287"
     transform="matrix(0.03484422,0,0,0.03137685,-0.92637169,-0.00538878)" />
  <g
     style="stroke-width:30.24335861"
     id="g13289"
     transform="matrix(0.03484422,0,0,0.03137685,-0.92637169,-0.00538878)" />
  <g
     style="stroke-width:30.24335861"
     id="g13291"
     transform="matrix(0.03484422,0,0,0.03137685,-0.92637169,-0.00538878)" />
  <g
     id="g14593"
     transform="translate(-22.377629,-19.009672)" />
  <g
     id="g14595"
     transform="translate(-22.377629,-19.009672)" />
  <g
     id="g14597"
     transform="translate(-22.377629,-19.009672)" />
  <g
     id="g14599"
     transform="translate(-22.377629,-19.009672)" />
  <g
     id="g14601"
     transform="translate(-22.377629,-19.009672)" />
  <g
     id="g14603"
     transform="translate(-22.377629,-19.009672)" />
  <g
     id="g14605"
     transform="translate(-22.377629,-19.009672)" />
  <g
     id="g14607"
     transform="translate(-22.377629,-19.009672)" />
  <g
     id="g14609"
     transform="translate(-22.377629,-19.009672)" />
  <g
     id="g14611"
     transform="translate(-22.377629,-19.009672)" />
  <g
     id="g14613"
     transform="translate(-22.377629,-19.009672)" />
  <g
     id="g14615"
     transform="translate(-22.377629,-19.009672)" />
  <g
     id="g14617"
     transform="translate(-22.377629,-19.009672)" />
  <g
     id="g14619"
     transform="translate(-22.377629,-19.009672)" />
  <g
     id="g14621"
     transform="translate(-22.377629,-19.009672)" />
  <g
     style="stroke-width:30.97005463"
     id="g21244"
     transform="matrix(0.03418616,0,0,0.0304976,0.01001144,3.404141)" />
  <g
     style="stroke-width:30.97005463"
     id="g21246"
     transform="matrix(0.03418616,0,0,0.0304976,0.01001144,3.404141)" />
  <g
     style="stroke-width:30.97005463"
     id="g21248"
     transform="matrix(0.03418616,0,0,0.0304976,0.01001144,3.404141)" />
  <g
     style="stroke-width:30.97005463"
     id="g21250"
     transform="matrix(0.03418616,0,0,0.0304976,0.01001144,3.404141)" />
  <g
     style="stroke-width:30.97005463"
     id="g21252"
     transform="matrix(0.03418616,0,0,0.0304976,0.01001144,3.404141)" />
  <g
     style="stroke-width:30.97005463"
     id="g21254"
     transform="matrix(0.03418616,0,0,0.0304976,0.01001144,3.404141)" />
  <g
     style="stroke-width:30.97005463"
     id="g21256"
     transform="matrix(0.03418616,0,0,0.0304976,0.01001144,3.404141)" />
  <g
     style="stroke-width:30.97005463"
     id="g21258"
     transform="matrix(0.03418616,0,0,0.0304976,0.01001144,3.404141)" />
  <g
     style="stroke-width:30.97005463"
     id="g21260"
     transform="matrix(0.03418616,0,0,0.0304976,0.01001144,3.404141)" />
  <g
     style="stroke-width:30.97005463"
     id="g21262"
     transform="matrix(0.03418616,0,0,0.0304976,0.01001144,3.404141)" />
  <g
     style="stroke-width:30.97005463"
     id="g21264"
     transform="matrix(0.03418616,0,0,0.0304976,0.01001144,3.404141)" />
  <g
     style="stroke-width:30.97005463"
     id="g21266"
     transform="matrix(0.03418616,0,0,0.0304976,0.01001144,3.404141)" />
  <g
     style="stroke-width:30.97005463"
     id="g21268"
     transform="matrix(0.03418616,0,0,0.0304976,0.01001144,3.404141)" />
  <g
     style="stroke-width:30.97005463"
     id="g21270"
     transform="matrix(0.03418616,0,0,0.0304976,0.01001144,3.404141)" />
  <g
     style="stroke-width:30.97005463"
     id="g21272"
     transform="matrix(0.03418616,0,0,0.0304976,0.01001144,3.404141)" />
  <g
     id="g21728"
     transform="matrix(0.82434882,0,0,0.74764062,-0.26274924,4.0869857)"
     style="stroke-width:1.2737906">
    <path
       style="fill:#edf9ff;stroke:#141414;stroke-width:0.12737904;stroke-miterlimit:4;stroke-dasharray:none;stroke-opacity:1"
       inkscape:connector-curvature="0"
       d="M 7.7968931,-0.05828684 H 0.43526747 V 15.92645 H 12.397909 V 4.6247417 Z"
       id="path2" />
    <path
       style="fill:#c0e1f0;stroke:none;stroke-width:0.12737904;stroke-miterlimit:4;stroke-dasharray:none;stroke-opacity:1"
       inkscape:connector-curvature="0"
       d="M 12.262316,4.6767809 V 15.858653 H 6.4165883 V 0.04340807 h 1.3490141 z"
       id="path4" />
    <path
       style="fill:#8fc3d9;stroke:#141414;stroke-width:0.12737904;stroke-miterlimit:4;stroke-dasharray:none;stroke-opacity:1"
       inkscape:connector-curvature="0"
       d="M 7.7968931,7.4345588 H 10.557503 V 8.3711645 H 7.7968931 Z"
       id="path6" />
    <path
       style="fill:#8fc3d9;stroke:#141414;stroke-width:0.12737904;stroke-miterlimit:4;stroke-dasharray:none;stroke-opacity:1"
       inkscape:connector-curvature="0"
       d="M 12.397909,3.9597204 V 4.6247417 H 7.7968931 V -0.05828684 H 8.450268 Z"
       id="path8" />
    <g
       transform="matrix(0.03067344,0,0,0.03122019,-1.4358124,-0.05828684)"
       id="g20"
       style="stroke:none;stroke-width:4.11622381;stroke-miterlimit:4;stroke-dasharray:none;stroke-opacity:1">
      <g
         id="g12"
         style="stroke:none;stroke-width:4.11622381;stroke-miterlimit:4;stroke-dasharray:none;stroke-opacity:1">
        <path
           style="fill:#97de3d;stroke:none;stroke-width:4.11622381;stroke-miterlimit:4;stroke-dasharray:none;stroke-opacity:1"
           inkscape:connector-curvature="0"
           d="m 166,150 c -8.276,0 -15,-6.724 -15,-15 0,-8.276 6.724,-15 15,-15 8.276,0 15,6.724 15,15 h 30 C 211,115.435 198.437,98.952 181,92.754 V 60 h -15 -15 v 32.754 c -17.437,6.198 -30,22.681 -30,42.246 0,24.853 20.147,45 45,45 8.276,0 15,6.724 15,15 0,8.276 -6.724,15 -15,15 -8.276,0 -15,-6.724 -15,-15 h -30 c 0,19.565 12.563,36.048 30,42.246 V 270 h 15 15 v -32.754 c 17.437,-6.198 30,-22.681 30,-42.246 0,-24.853 -20.147,-45 -45,-45 z"
           id="path10" />
      </g>
      <g
         style="fill:#59c36a;stroke:none;stroke-width:4.11622381;stroke-miterlimit:4;stroke-dasharray:none;stroke-opacity:1"
         id="g18">
        <path
           inkscape:connector-curvature="0"
           d="m 181,237.246 c 17.437,-6.198 30,-22.681 30,-42.246 0,-24.853 -20.147,-45 -45,-45 v 30 c 8.276,0 15,6.724 15,15 0,8.276 -6.724,15 -15,15 v 60 h 15 z"
           id="path14"
           style="stroke:none;stroke-width:4.11622381;stroke-miterlimit:4;stroke-dasharray:none;stroke-opacity:1" />
        <path
           inkscape:connector-curvature="0"
           d="m 181,135 h 30 C 211,115.435 198.437,98.952 181,92.754 V 60 h -15 v 60 c 8.276,0 15,6.724 15,15 z"
           id="path16"
           style="stroke:none;stroke-width:4.11622381;stroke-miterlimit:4;stroke-dasharray:none;stroke-opacity:1" />
      </g>
    </g>
    <g
       transform="matrix(0.03067344,0,0,0.03122019,-1.4358124,-0.05828684)"
       style="fill:#c0e1f0;stroke:#141414;stroke-width:4.11622381;stroke-miterlimit:4;stroke-dasharray:none;stroke-opacity:1"
       id="g30">
      <path
         inkscape:connector-curvature="0"
         d="m 121,300 h 270 v 30 H 121 Z"
         id="path22"
         style="stroke:#141414;stroke-width:4.11622381;stroke-miterlimit:4;stroke-dasharray:none;stroke-opacity:1" />
      <path
         inkscape:connector-curvature="0"
         d="m 121,360 h 270 v 30 H 121 Z"
         id="path24"
         style="stroke:#141414;stroke-width:4.11622381;stroke-miterlimit:4;stroke-dasharray:none;stroke-opacity:1" />
      <path
         inkscape:connector-curvature="0"
         d="m 121,420 h 270 v 30 H 121 Z"
         id="path26"
         style="stroke:#141414;stroke-width:4.11622381;stroke-miterlimit:4;stroke-dasharray:none;stroke-opacity:1" />
      <path
         inkscape:connector-curvature="0"
         d="m 241,240 h 30 v 30 h -30 z"
         id="path28"
         style="stroke:#141414;stroke-width:4.11622381;stroke-miterlimit:4;stroke-dasharray:none;stroke-opacity:1" />
    </g>
    <path
       style="fill:#8fc3d9;stroke:none;stroke-width:0.12737904;stroke-miterlimit:4;stroke-dasharray:none;stroke-opacity:1"
       inkscape:connector-curvature="0"
       d="M 6.38269,7.5023554 H 6.8427916 V 8.3033679 H 6.38269 Z"
       id="path32" />
    <path
       style="fill:#8fc3d9;stroke:none;stroke-width:0.12737904;stroke-miterlimit:4;stroke-dasharray:none;stroke-opacity:1"
       inkscape:connector-curvature="0"
       d="M 6.4504866,9.3416685 H 10.42191 V 10.14268 H 6.4504866 Z"
       id="path34" />
    <path
       style="fill:#8fc3d9;stroke:none;stroke-width:0.12737904;stroke-miterlimit:4;stroke-dasharray:none;stroke-opacity:1"
       inkscape:connector-curvature="0"
       d="m 6.5227626,11.226612 h 3.9714244 v 0.801012 H 6.5227626 Z"
       id="path34-7" />
    <path
       style="fill:#8fc3d9;stroke:none;stroke-width:0.12737904;stroke-miterlimit:4;stroke-dasharray:none;stroke-opacity:1"
       inkscape:connector-curvature="0"
       d="m 6.4888646,13.091019 h 3.9714234 v 0.801012 H 6.4888646 Z"
       id="path34-6" />
  </g>
  <g
     transform="matrix(0.63036756,0,0,0.62824327,5.9633964,-0.00243862)"
     id="g8432"
     style="opacity:0.8;stroke-width:1.58905566">
    <ellipse
       ry="7.9786086"
       rx="7.9786081"
       cy="8.0165396"
       cx="8.0168352"
       id="path5896"
       style="opacity:1;fill:#43b05c;fill-opacity:1;stroke:#000000;stroke-width:0;stroke-miterlimit:4;stroke-dasharray:none;stroke-opacity:1;paint-order:markers fill stroke" />
    <g
       style="stroke-width:1.12087989"
       transform="matrix(1.4319886,0,0,1.4035264,15.539903,-12.805223)"
       id="g5904">
      <rect
         style="opacity:1;fill:#ffffff;fill-opacity:1;stroke:#000000;stroke-width:0;stroke-miterlimit:4;stroke-dasharray:none;stroke-opacity:1;paint-order:markers fill stroke"
         id="rect5898"
         width="1.168082"
         height="7.0752397"
         x="-5.8070364"
         y="11.294298" />
      <rect
         style="opacity:1;fill:#ffffff;fill-opacity:1;stroke:#000000;stroke-width:0;stroke-miterlimit:4;stroke-dasharray:none;stroke-opacity:1;paint-order:markers fill stroke"
         id="rect5900"
         width="7.008492"
         height="1.1013345"
         x="-8.7773018"
         y="14.364685" />
    </g>
  </g>
</svg>
