<?xml version="1.0" encoding="UTF-8" standalone="no"?>
<svg
   xmlns:dc="http://purl.org/dc/elements/1.1/"
   xmlns:cc="http://creativecommons.org/ns#"
   xmlns:rdf="http://www.w3.org/1999/02/22-rdf-syntax-ns#"
   xmlns:svg="http://www.w3.org/2000/svg"
   xmlns="http://www.w3.org/2000/svg"
   xmlns:sodipodi="http://sodipodi.sourceforge.net/DTD/sodipodi-0.dtd"
   xmlns:inkscape="http://www.inkscape.org/namespaces/inkscape"
   width="1em"
   height="1em"
   viewBox="0 0 16 16"
   class="bi bi-alarm"
   fill="currentColor"
   version="1.1"
   id="svg6797"
   sodipodi:docname="impuesto.svg"
   inkscape:version="0.92.3 (2405546, 2018-03-11)">
  <metadata
     id="metadata6803">
    <rdf:RDF>
      <cc:Work
         rdf:about="">
        <dc:format>image/svg+xml</dc:format>
        <dc:type
           rdf:resource="http://purl.org/dc/dcmitype/StillImage" />
        <dc:title></dc:title>
      </cc:Work>
    </rdf:RDF>
  </metadata>
  <defs
     id="defs6801">
	
	
	
	
	
	
	
	
	
	
	
	
	
	
	
	
	
	
	
</defs>
  <sodipodi:namedview
     pagecolor="#ffffff"
     bordercolor="#666666"
     borderopacity="1"
     objecttolerance="10"
     gridtolerance="10"
     guidetolerance="10"
     inkscape:pageopacity="0"
     inkscape:pageshadow="2"
     inkscape:window-width="1600"
     inkscape:window-height="847"
     id="namedview6799"
     showgrid="true"
     inkscape:zoom="29.5"
     inkscape:cx="7.2052778"
     inkscape:cy="7.2661667"
     inkscape:window-x="-8"
     inkscape:window-y="-8"
     inkscape:window-maximized="1"
     inkscape:current-layer="svg6797"
     inkscape:snap-global="false"
     showguides="false">
    <inkscape:grid
       type="xygrid"
       id="grid8461" />
  </sodipodi:namedview>
  <g
     style="fill:#000000;stroke:#141414;stroke-width:4.5188427;stroke-miterlimit:4;stroke-dasharray:none;stroke-opacity:1"
     id="g7673"
     transform="matrix(0.02130141,0,0,0.0229899,0.05986501,0.01799283)" />
  <g
     style="fill:#000000;stroke:#141414;stroke-width:4.5188427;stroke-miterlimit:4;stroke-dasharray:none;stroke-opacity:1"
     id="g7675"
     transform="matrix(0.02130141,0,0,0.0229899,0.05986501,0.01799283)" />
  <g
     style="fill:#000000;stroke:#141414;stroke-width:4.5188427;stroke-miterlimit:4;stroke-dasharray:none;stroke-opacity:1"
     id="g7677"
     transform="matrix(0.02130141,0,0,0.0229899,0.05986501,0.01799283)" />
  <g
     style="fill:#000000;stroke:#141414;stroke-width:4.5188427;stroke-miterlimit:4;stroke-dasharray:none;stroke-opacity:1"
     id="g7679"
     transform="matrix(0.02130141,0,0,0.0229899,0.05986501,0.01799283)" />
  <g
     style="fill:#000000;stroke:#141414;stroke-width:4.5188427;stroke-miterlimit:4;stroke-dasharray:none;stroke-opacity:1"
     id="g7681"
     transform="matrix(0.02130141,0,0,0.0229899,0.05986501,0.01799283)" />
  <g
     style="fill:#000000;stroke:#141414;stroke-width:4.5188427;stroke-miterlimit:4;stroke-dasharray:none;stroke-opacity:1"
     id="g7683"
     transform="matrix(0.02130141,0,0,0.0229899,0.05986501,0.01799283)" />
  <g
     style="fill:#000000;stroke:#141414;stroke-width:4.5188427;stroke-miterlimit:4;stroke-dasharray:none;stroke-opacity:1"
     id="g7685"
     transform="matrix(0.02130141,0,0,0.0229899,0.05986501,0.01799283)" />
  <g
     style="fill:#000000;stroke:#141414;stroke-width:4.5188427;stroke-miterlimit:4;stroke-dasharray:none;stroke-opacity:1"
     id="g7687"
     transform="matrix(0.02130141,0,0,0.0229899,0.05986501,0.01799283)" />
  <g
     style="fill:#000000;stroke:#141414;stroke-width:4.5188427;stroke-miterlimit:4;stroke-dasharray:none;stroke-opacity:1"
     id="g7689"
     transform="matrix(0.02130141,0,0,0.0229899,0.05986501,0.01799283)" />
  <g
     style="fill:#000000;stroke:#141414;stroke-width:4.5188427;stroke-miterlimit:4;stroke-dasharray:none;stroke-opacity:1"
     id="g7691"
     transform="matrix(0.02130141,0,0,0.0229899,0.05986501,0.01799283)" />
  <g
     style="fill:#000000;stroke:#141414;stroke-width:4.5188427;stroke-miterlimit:4;stroke-dasharray:none;stroke-opacity:1"
     id="g7693"
     transform="matrix(0.02130141,0,0,0.0229899,0.05986501,0.01799283)" />
  <g
     style="fill:#000000;stroke:#141414;stroke-width:4.5188427;stroke-miterlimit:4;stroke-dasharray:none;stroke-opacity:1"
     id="g7695"
     transform="matrix(0.02130141,0,0,0.0229899,0.05986501,0.01799283)" />
  <g
     style="fill:#000000;stroke:#141414;stroke-width:4.5188427;stroke-miterlimit:4;stroke-dasharray:none;stroke-opacity:1"
     id="g7697"
     transform="matrix(0.02130141,0,0,0.0229899,0.05986501,0.01799283)" />
  <g
     style="fill:#000000;stroke:#141414;stroke-width:4.5188427;stroke-miterlimit:4;stroke-dasharray:none;stroke-opacity:1"
     id="g7699"
     transform="matrix(0.02130141,0,0,0.0229899,0.05986501,0.01799283)" />
  <g
     style="fill:#000000;stroke:#141414;stroke-width:4.5188427;stroke-miterlimit:4;stroke-dasharray:none;stroke-opacity:1"
     id="g7701"
     transform="matrix(0.02130141,0,0,0.0229899,0.05986501,0.01799283)" />
  <g
     style="stroke:#141414;stroke-width:5.85344696;stroke-miterlimit:4;stroke-dasharray:none;stroke-opacity:1"
     id="g13006"
     transform="matrix(0.03751047,0,0,0.03112319,-1.6196299,0.03246986)">
</g>
  <g
     style="stroke:#141414;stroke-width:5.85344696;stroke-miterlimit:4;stroke-dasharray:none;stroke-opacity:1"
     id="g13008"
     transform="matrix(0.03751047,0,0,0.03112319,-1.6196299,0.03246986)">
</g>
  <g
     style="stroke:#141414;stroke-width:5.85344696;stroke-miterlimit:4;stroke-dasharray:none;stroke-opacity:1"
     id="g13010"
     transform="matrix(0.03751047,0,0,0.03112319,-1.6196299,0.03246986)">
</g>
  <g
     style="stroke:#141414;stroke-width:5.85344696;stroke-miterlimit:4;stroke-dasharray:none;stroke-opacity:1"
     id="g13012"
     transform="matrix(0.03751047,0,0,0.03112319,-1.6196299,0.03246986)">
</g>
  <g
     style="stroke:#141414;stroke-width:5.85344696;stroke-miterlimit:4;stroke-dasharray:none;stroke-opacity:1"
     id="g13014"
     transform="matrix(0.03751047,0,0,0.03112319,-1.6196299,0.03246986)">
</g>
  <g
     style="stroke:#141414;stroke-width:5.85344696;stroke-miterlimit:4;stroke-dasharray:none;stroke-opacity:1"
     id="g13016"
     transform="matrix(0.03751047,0,0,0.03112319,-1.6196299,0.03246986)">
</g>
  <g
     style="stroke:#141414;stroke-width:5.85344696;stroke-miterlimit:4;stroke-dasharray:none;stroke-opacity:1"
     id="g13018"
     transform="matrix(0.03751047,0,0,0.03112319,-1.6196299,0.03246986)">
</g>
  <g
     style="stroke:#141414;stroke-width:5.85344696;stroke-miterlimit:4;stroke-dasharray:none;stroke-opacity:1"
     id="g13020"
     transform="matrix(0.03751047,0,0,0.03112319,-1.6196299,0.03246986)">
</g>
  <g
     style="stroke:#141414;stroke-width:5.85344696;stroke-miterlimit:4;stroke-dasharray:none;stroke-opacity:1"
     id="g13022"
     transform="matrix(0.03751047,0,0,0.03112319,-1.6196299,0.03246986)">
</g>
  <g
     style="stroke:#141414;stroke-width:5.85344696;stroke-miterlimit:4;stroke-dasharray:none;stroke-opacity:1"
     id="g13024"
     transform="matrix(0.03751047,0,0,0.03112319,-1.6196299,0.03246986)">
</g>
  <g
     style="stroke:#141414;stroke-width:5.85344696;stroke-miterlimit:4;stroke-dasharray:none;stroke-opacity:1"
     id="g13026"
     transform="matrix(0.03751047,0,0,0.03112319,-1.6196299,0.03246986)">
</g>
  <g
     style="stroke:#141414;stroke-width:5.85344696;stroke-miterlimit:4;stroke-dasharray:none;stroke-opacity:1"
     id="g13028"
     transform="matrix(0.03751047,0,0,0.03112319,-1.6196299,0.03246986)">
</g>
  <g
     style="stroke:#141414;stroke-width:5.85344696;stroke-miterlimit:4;stroke-dasharray:none;stroke-opacity:1"
     id="g13030"
     transform="matrix(0.03751047,0,0,0.03112319,-1.6196299,0.03246986)">
</g>
  <g
     style="stroke:#141414;stroke-width:5.85344696;stroke-miterlimit:4;stroke-dasharray:none;stroke-opacity:1"
     id="g13032"
     transform="matrix(0.03751047,0,0,0.03112319,-1.6196299,0.03246986)">
</g>
  <g
     style="stroke:#141414;stroke-width:5.85344696;stroke-miterlimit:4;stroke-dasharray:none;stroke-opacity:1"
     id="g13034"
     transform="matrix(0.03751047,0,0,0.03112319,-1.6196299,0.03246986)">
</g>
  <g
     style="stroke-width:30.24335861"
     id="g13263"
     transform="matrix(0.03484422,0,0,0.03137685,-0.92637169,-0.00538878)">
</g>
  <g
     style="stroke-width:30.24335861"
     id="g13265"
     transform="matrix(0.03484422,0,0,0.03137685,-0.92637169,-0.00538878)">
</g>
  <g
     style="stroke-width:30.24335861"
     id="g13267"
     transform="matrix(0.03484422,0,0,0.03137685,-0.92637169,-0.00538878)">
</g>
  <g
     style="stroke-width:30.24335861"
     id="g13269"
     transform="matrix(0.03484422,0,0,0.03137685,-0.92637169,-0.00538878)">
</g>
  <g
     style="stroke-width:30.24335861"
     id="g13271"
     transform="matrix(0.03484422,0,0,0.03137685,-0.92637169,-0.00538878)">
</g>
  <g
     style="stroke-width:30.24335861"
     id="g13273"
     transform="matrix(0.03484422,0,0,0.03137685,-0.92637169,-0.00538878)">
</g>
  <g
     style="stroke-width:30.24335861"
     id="g13275"
     transform="matrix(0.03484422,0,0,0.03137685,-0.92637169,-0.00538878)">
</g>
  <g
     style="stroke-width:30.24335861"
     id="g13277"
     transform="matrix(0.03484422,0,0,0.03137685,-0.92637169,-0.00538878)">
</g>
  <g
     style="stroke-width:30.24335861"
     id="g13279"
     transform="matrix(0.03484422,0,0,0.03137685,-0.92637169,-0.00538878)">
</g>
  <g
     style="stroke-width:30.24335861"
     id="g13281"
     transform="matrix(0.03484422,0,0,0.03137685,-0.92637169,-0.00538878)">
</g>
  <g
     style="stroke-width:30.24335861"
     id="g13283"
     transform="matrix(0.03484422,0,0,0.03137685,-0.92637169,-0.00538878)">
</g>
  <g
     style="stroke-width:30.24335861"
     id="g13285"
     transform="matrix(0.03484422,0,0,0.03137685,-0.92637169,-0.00538878)">
</g>
  <g
     style="stroke-width:30.24335861"
     id="g13287"
     transform="matrix(0.03484422,0,0,0.03137685,-0.92637169,-0.00538878)">
</g>
  <g
     style="stroke-width:30.24335861"
     id="g13289"
     transform="matrix(0.03484422,0,0,0.03137685,-0.92637169,-0.00538878)">
</g>
  <g
     style="stroke-width:30.24335861"
     id="g13291"
     transform="matrix(0.03484422,0,0,0.03137685,-0.92637169,-0.00538878)">
</g>
  <g
     id="g14593"
     transform="translate(-22.377629,-19.009672)">
</g>
  <g
     id="g14595"
     transform="translate(-22.377629,-19.009672)">
</g>
  <g
     id="g14597"
     transform="translate(-22.377629,-19.009672)">
</g>
  <g
     id="g14599"
     transform="translate(-22.377629,-19.009672)">
</g>
  <g
     id="g14601"
     transform="translate(-22.377629,-19.009672)">
</g>
  <g
     id="g14603"
     transform="translate(-22.377629,-19.009672)">
</g>
  <g
     id="g14605"
     transform="translate(-22.377629,-19.009672)">
</g>
  <g
     id="g14607"
     transform="translate(-22.377629,-19.009672)">
</g>
  <g
     id="g14609"
     transform="translate(-22.377629,-19.009672)">
</g>
  <g
     id="g14611"
     transform="translate(-22.377629,-19.009672)">
</g>
  <g
     id="g14613"
     transform="translate(-22.377629,-19.009672)">
</g>
  <g
     id="g14615"
     transform="translate(-22.377629,-19.009672)">
</g>
  <g
     id="g14617"
     transform="translate(-22.377629,-19.009672)">
</g>
  <g
     id="g14619"
     transform="translate(-22.377629,-19.009672)">
</g>
  <g
     id="g14621"
     transform="translate(-22.377629,-19.009672)">
</g>
  <g
     style="stroke-width:30.97005463"
     id="g21244"
     transform="matrix(0.03418616,0,0,0.0304976,0.01001144,3.404141)">
</g>
  <g
     style="stroke-width:30.97005463"
     id="g21246"
     transform="matrix(0.03418616,0,0,0.0304976,0.01001144,3.404141)">
</g>
  <g
     style="stroke-width:30.97005463"
     id="g21248"
     transform="matrix(0.03418616,0,0,0.0304976,0.01001144,3.404141)">
</g>
  <g
     style="stroke-width:30.97005463"
     id="g21250"
     transform="matrix(0.03418616,0,0,0.0304976,0.01001144,3.404141)">
</g>
  <g
     style="stroke-width:30.97005463"
     id="g21252"
     transform="matrix(0.03418616,0,0,0.0304976,0.01001144,3.404141)">
</g>
  <g
     style="stroke-width:30.97005463"
     id="g21254"
     transform="matrix(0.03418616,0,0,0.0304976,0.01001144,3.404141)">
</g>
  <g
     style="stroke-width:30.97005463"
     id="g21256"
     transform="matrix(0.03418616,0,0,0.0304976,0.01001144,3.404141)">
</g>
  <g
     style="stroke-width:30.97005463"
     id="g21258"
     transform="matrix(0.03418616,0,0,0.0304976,0.01001144,3.404141)">
</g>
  <g
     style="stroke-width:30.97005463"
     id="g21260"
     transform="matrix(0.03418616,0,0,0.0304976,0.01001144,3.404141)">
</g>
  <g
     style="stroke-width:30.97005463"
     id="g21262"
     transform="matrix(0.03418616,0,0,0.0304976,0.01001144,3.404141)">
</g>
  <g
     style="stroke-width:30.97005463"
     id="g21264"
     transform="matrix(0.03418616,0,0,0.0304976,0.01001144,3.404141)">
</g>
  <g
     style="stroke-width:30.97005463"
     id="g21266"
     transform="matrix(0.03418616,0,0,0.0304976,0.01001144,3.404141)">
</g>
  <g
     style="stroke-width:30.97005463"
     id="g21268"
     transform="matrix(0.03418616,0,0,0.0304976,0.01001144,3.404141)">
</g>
  <g
     style="stroke-width:30.97005463"
     id="g21270"
     transform="matrix(0.03418616,0,0,0.0304976,0.01001144,3.404141)">
</g>
  <g
     style="stroke-width:30.97005463"
     id="g21272"
     transform="matrix(0.03418616,0,0,0.0304976,0.01001144,3.404141)">
</g>
  <path
     id="path2"
     d="M 9.3562151,0.00950977 H 1.9945895 V 15.994247 H 13.957231 V 4.6925383 Z"
     inkscape:connector-curvature="0"
     style="fill:#edf9ff;stroke:#141414;stroke-width:0.09999999;stroke-miterlimit:4;stroke-dasharray:none;stroke-opacity:1" />
  <path
     id="path4"
     d="M 13.821638,4.7445775 V 15.92645 H 7.9759103 V 0.11120468 h 1.3490141 z"
     inkscape:connector-curvature="0"
     style="fill:#c0e1f0;stroke:none;stroke-width:0.09999999;stroke-miterlimit:4;stroke-dasharray:none;stroke-opacity:1" />
  <path
     id="path6"
     d="M 9.3562151,7.5023554 H 12.116825 V 8.4389611 H 9.3562151 Z"
     inkscape:connector-curvature="0"
     style="fill:#8fc3d9;stroke:#141414;stroke-width:0.09999999;stroke-miterlimit:4;stroke-dasharray:none;stroke-opacity:1" />
  <path
     id="path8"
     d="M 13.957231,4.027517 V 4.6925383 H 9.3562151 V 0.00950977 H 10.00959 Z"
     inkscape:connector-curvature="0"
     style="fill:#8fc3d9;stroke:#141414;stroke-width:0.09999999;stroke-miterlimit:4;stroke-dasharray:none;stroke-opacity:1" />
  <g
     style="stroke:none;stroke-width:3.23147631;stroke-miterlimit:4;stroke-dasharray:none;stroke-opacity:1"
     id="g20"
     transform="matrix(0.03067344,0,0,0.03122019,0.12350968,0.00950977)">
    <g
       style="stroke:none;stroke-width:3.23147631;stroke-miterlimit:4;stroke-dasharray:none;stroke-opacity:1"
       id="g12">
      <path
         id="path10"
         d="m 166,150 c -8.276,0 -15,-6.724 -15,-15 0,-8.276 6.724,-15 15,-15 8.276,0 15,6.724 15,15 h 30 C 211,115.435 198.437,98.952 181,92.754 V 60 h -15 -15 v 32.754 c -17.437,6.198 -30,22.681 -30,42.246 0,24.853 20.147,45 45,45 8.276,0 15,6.724 15,15 0,8.276 -6.724,15 -15,15 -8.276,0 -15,-6.724 -15,-15 h -30 c 0,19.565 12.563,36.048 30,42.246 V 270 h 15 15 v -32.754 c 17.437,-6.198 30,-22.681 30,-42.246 0,-24.853 -20.147,-45 -45,-45 z"
         inkscape:connector-curvature="0"
         style="fill:#97de3d;stroke:none;stroke-width:3.23147631;stroke-miterlimit:4;stroke-dasharray:none;stroke-opacity:1" />
    </g>
    <g
       id="g18"
       style="fill:#59c36a;stroke:none;stroke-width:3.23147631;stroke-miterlimit:4;stroke-dasharray:none;stroke-opacity:1">
      <path
         style="stroke:none;stroke-width:3.23147631;stroke-miterlimit:4;stroke-dasharray:none;stroke-opacity:1"
         id="path14"
         d="m 181,237.246 c 17.437,-6.198 30,-22.681 30,-42.246 0,-24.853 -20.147,-45 -45,-45 v 30 c 8.276,0 15,6.724 15,15 0,8.276 -6.724,15 -15,15 v 60 h 15 z"
         inkscape:connector-curvature="0" />
      <path
         style="stroke:none;stroke-width:3.23147631;stroke-miterlimit:4;stroke-dasharray:none;stroke-opacity:1"
         id="path16"
         d="m 181,135 h 30 C 211,115.435 198.437,98.952 181,92.754 V 60 h -15 v 60 c 8.276,0 15,6.724 15,15 z"
         inkscape:connector-curvature="0" />
    </g>
  </g>
  <g
     id="g30"
     style="fill:#c0e1f0;stroke:#141414;stroke-width:3.23147631;stroke-miterlimit:4;stroke-dasharray:none;stroke-opacity:1"
     transform="matrix(0.03067344,0,0,0.03122019,0.12350968,0.00950977)">
    <path
       style="stroke:#141414;stroke-width:3.23147631;stroke-miterlimit:4;stroke-dasharray:none;stroke-opacity:1"
       id="path22"
       d="m 121,300 h 270 v 30 H 121 Z"
       inkscape:connector-curvature="0" />
    <path
       style="stroke:#141414;stroke-width:3.23147631;stroke-miterlimit:4;stroke-dasharray:none;stroke-opacity:1"
       id="path24"
       d="m 121,360 h 270 v 30 H 121 Z"
       inkscape:connector-curvature="0" />
    <path
       style="stroke:#141414;stroke-width:3.23147631;stroke-miterlimit:4;stroke-dasharray:none;stroke-opacity:1"
       id="path26"
       d="m 121,420 h 270 v 30 H 121 Z"
       inkscape:connector-curvature="0" />
    <path
       style="stroke:#141414;stroke-width:3.23147631;stroke-miterlimit:4;stroke-dasharray:none;stroke-opacity:1"
       id="path28"
       d="m 241,240 h 30 v 30 h -30 z"
       inkscape:connector-curvature="0" />
  </g>
  <path
     id="path32"
     d="M 7.942012,7.570152 H 8.4021136 V 8.3711645 H 7.942012 Z"
     inkscape:connector-curvature="0"
     style="fill:#8fc3d9;stroke:none;stroke-width:0.09999999;stroke-miterlimit:4;stroke-dasharray:none;stroke-opacity:1" />
  <path
     id="path34"
     d="M 8.0098086,9.4094651 H 11.981232 V 10.210477 H 8.0098086 Z"
     inkscape:connector-curvature="0"
     style="fill:#8fc3d9;stroke:none;stroke-width:0.09999999;stroke-miterlimit:4;stroke-dasharray:none;stroke-opacity:1" />
  <path
     id="path34-7"
     d="m 8.0820846,11.294409 h 3.9714244 v 0.801012 H 8.0820846 Z"
     inkscape:connector-curvature="0"
     style="fill:#8fc3d9;stroke:none;stroke-width:0.09999999;stroke-miterlimit:4;stroke-dasharray:none;stroke-opacity:1" />
  <path
     id="path34-6"
     d="M 8.0481866,13.158816 H 12.01961 v 0.801012 H 8.0481866 Z"
     inkscape:connector-curvature="0"
     style="fill:#8fc3d9;stroke:none;stroke-width:0.09999999;stroke-miterlimit:4;stroke-dasharray:none;stroke-opacity:1" />
</svg>
