<?xml version="1.0" encoding="UTF-8" standalone="no"?>
<svg
   xmlns:dc="http://purl.org/dc/elements/1.1/"
   xmlns:cc="http://creativecommons.org/ns#"
   xmlns:rdf="http://www.w3.org/1999/02/22-rdf-syntax-ns#"
   xmlns:svg="http://www.w3.org/2000/svg"
   xmlns="http://www.w3.org/2000/svg"
   xmlns:sodipodi="http://sodipodi.sourceforge.net/DTD/sodipodi-0.dtd"
   xmlns:inkscape="http://www.inkscape.org/namespaces/inkscape"
   width="1em"
   height="1em"
   viewBox="0 0 16 16"
   class="bi bi-align-middle"
   fill="currentColor"
   version="1.1"
   id="svg4"
   sodipodi:docname="inventario.svg"
   inkscape:version="0.92.3 (2405546, 2018-03-11)">
  <metadata
     id="metadata10">
    <rdf:RDF>
      <cc:Work
         rdf:about="">
        <dc:format>image/svg+xml</dc:format>
        <dc:type
           rdf:resource="http://purl.org/dc/dcmitype/StillImage" />
        <dc:title></dc:title>
      </cc:Work>
    </rdf:RDF>
  </metadata>
  <defs
     id="defs8" />
  <sodipodi:namedview
     pagecolor="#ffffff"
     bordercolor="#666666"
     borderopacity="1"
     objecttolerance="10"
     gridtolerance="10"
     guidetolerance="10"
     inkscape:pageopacity="0"
     inkscape:pageshadow="2"
     inkscape:window-width="1600"
     inkscape:window-height="847"
     id="namedview6"
     showgrid="false"
     inkscape:zoom="41.7193"
     inkscape:cx="7.4809819"
     inkscape:cy="8.4989149"
     inkscape:window-x="-8"
     inkscape:window-y="-8"
     inkscape:window-maximized="1"
     inkscape:current-layer="svg4" />
  <g
     id="g961"
     transform="matrix(0.13446637,0,0,0.13467357,-0.61923846,-0.62586251)"
     style="stroke-width:29.72432327;fill:#1a1a1a">
    <path
       id="path953"
       d="m 86.8,79.115 a 1.753,1.753 0 0 0 -2.08,-1.341 l -3.194,0.689 a 1.75,1.75 0 1 0 0.738,3.421 l 3.195,-0.689 a 1.75,1.75 0 0 0 1.341,-2.08 z"
       inkscape:connector-curvature="0"
       style="stroke-width:29.72432327;fill:#1a1a1a" />
    <path
       id="path955"
       d="m 75.436,79.776 -8.855,1.91 a 1.75,1.75 0 1 0 0.738,3.421 l 8.855,-1.91 a 1.75,1.75 0 0 0 -0.738,-3.421 z"
       inkscape:connector-curvature="0"
       style="stroke-width:29.72432327;fill:#1a1a1a" />
    <path
       id="path957"
       d="m 47.744,91.767 a 11.026,11.026 0 1 0 13.1,8.454 11.037,11.037 0 0 0 -13.1,-8.454 z m 3.911,18.133 a 7.526,7.526 0 1 1 5.769,-8.944 7.536,7.536 0 0 1 -5.769,8.944 z"
       inkscape:connector-curvature="0"
       style="stroke-width:29.72432327;fill:#1a1a1a" />
    <path
       id="path959"
       d="m 123.4,86.729 -1.493,-6.924 a 1.75,1.75 0 0 0 -2.08,-1.342 L 113.234,79.885 101.443,25.2 A 1.751,1.751 0 0 0 99.364,23.859 L 64.3,31.419 44.678,35.651 38.27,5.938 A 1.751,1.751 0 0 0 36.559,4.557 H 6.307 a 1.749,1.749 0 0 0 -1.75,1.75 v 7.083 a 1.75,1.75 0 0 0 1.75,1.75 h 23.121 l 14.543,67.436 a 20.887,20.887 0 1 0 26.8,17.293 L 122.058,88.808 A 1.75,1.75 0 0 0 123.4,86.729 Z M 54.717,82.2 48.5,53.386 66.412,49.523 69.041,61.7 a 1.747,1.747 0 0 0 1.377,1.349 1.722,1.722 0 0 0 0.333,0.032 1.751,1.751 0 0 0 1.45,-0.77 l 4.706,-6.96 6.593,4.464 A 1.75,1.75 0 0 0 86.192,58 l -2.626,-12.177 17.912,-3.863 8.339,38.663 -43.127,9.3 A 21,21 0 0 0 54.717,82.2 Z m 22.341,-49.952 2.718,12.6 2.075,9.62 -4.432,-3 a 1.751,1.751 0 0 0 -2.431,0.469 L 71.6,56.952 66.749,34.471 Z M 100.74,38.539 82.828,42.4 80.479,31.51 98.391,27.647 Z M 63.328,35.209 65.677,46.1 47.765,49.965 45.416,39.072 Z M 30.84,11.64 H 8.057 V 8.057 h 27.089 l 6.479,30.043 9.4,43.592 a 20.775,20.775 0 0 0 -3.636,0.143 L 32.551,13.021 A 1.75,1.75 0 0 0 30.84,11.64 Z m 22.9,107.909 A 17.4,17.4 0 1 1 67.072,98.878 17.417,17.417 0 0 1 53.735,119.549 Z m 16.3,-23.1 a 20.739,20.739 0 0 0 -1.369,-3.371 l 50.189,-10.824 0.756,3.5 z"
       inkscape:connector-curvature="0"
       style="stroke-width:29.72432327;fill:#1a1a1a" />
  </g>
</svg>
