<?xml version="1.0" encoding="UTF-8" standalone="no"?>
<svg
   xmlns:dc="http://purl.org/dc/elements/1.1/"
   xmlns:cc="http://creativecommons.org/ns#"
   xmlns:rdf="http://www.w3.org/1999/02/22-rdf-syntax-ns#"
   xmlns:svg="http://www.w3.org/2000/svg"
   xmlns="http://www.w3.org/2000/svg"
   xmlns:sodipodi="http://sodipodi.sourceforge.net/DTD/sodipodi-0.dtd"
   xmlns:inkscape="http://www.inkscape.org/namespaces/inkscape"
   width="1em"
   height="1em"
   viewBox="0 0 16 16"
   class="bi bi-alarm"
   fill="currentColor"
   version="1.1"
   id="svg6797"
   sodipodi:docname="medida_grupo_add.svg"
   inkscape:version="0.92.3 (2405546, 2018-03-11)">
  <metadata
     id="metadata6803">
    <rdf:RDF>
      <cc:Work
         rdf:about="">
        <dc:format>image/svg+xml</dc:format>
        <dc:type
           rdf:resource="http://purl.org/dc/dcmitype/StillImage" />
        <dc:title></dc:title>
      </cc:Work>
    </rdf:RDF>
  </metadata>
  <defs
     id="defs6801" />
  <sodipodi:namedview
     pagecolor="#ffffff"
     bordercolor="#666666"
     borderopacity="1"
     objecttolerance="10"
     gridtolerance="10"
     guidetolerance="10"
     inkscape:pageopacity="0"
     inkscape:pageshadow="2"
     inkscape:window-width="1600"
     inkscape:window-height="847"
     id="namedview6799"
     showgrid="true"
     inkscape:zoom="29.5"
     inkscape:cx="12.004992"
     inkscape:cy="5.9179011"
     inkscape:window-x="-8"
     inkscape:window-y="-8"
     inkscape:window-maximized="1"
     inkscape:current-layer="svg6797"
     inkscape:snap-global="false">
    <inkscape:grid
       type="xygrid"
       id="grid8461" />
  </sodipodi:namedview>
  <g
     style="fill:#000000;stroke:#141414;stroke-width:4.5188427;stroke-miterlimit:4;stroke-dasharray:none;stroke-opacity:1"
     id="g7673"
     transform="matrix(0.02130141,0,0,0.0229899,0.05986501,0.01799283)" />
  <g
     style="fill:#000000;stroke:#141414;stroke-width:4.5188427;stroke-miterlimit:4;stroke-dasharray:none;stroke-opacity:1"
     id="g7675"
     transform="matrix(0.02130141,0,0,0.0229899,0.05986501,0.01799283)" />
  <g
     style="fill:#000000;stroke:#141414;stroke-width:4.5188427;stroke-miterlimit:4;stroke-dasharray:none;stroke-opacity:1"
     id="g7677"
     transform="matrix(0.02130141,0,0,0.0229899,0.05986501,0.01799283)" />
  <g
     style="fill:#000000;stroke:#141414;stroke-width:4.5188427;stroke-miterlimit:4;stroke-dasharray:none;stroke-opacity:1"
     id="g7679"
     transform="matrix(0.02130141,0,0,0.0229899,0.05986501,0.01799283)" />
  <g
     style="fill:#000000;stroke:#141414;stroke-width:4.5188427;stroke-miterlimit:4;stroke-dasharray:none;stroke-opacity:1"
     id="g7681"
     transform="matrix(0.02130141,0,0,0.0229899,0.05986501,0.01799283)" />
  <g
     style="fill:#000000;stroke:#141414;stroke-width:4.5188427;stroke-miterlimit:4;stroke-dasharray:none;stroke-opacity:1"
     id="g7683"
     transform="matrix(0.02130141,0,0,0.0229899,0.05986501,0.01799283)" />
  <g
     style="fill:#000000;stroke:#141414;stroke-width:4.5188427;stroke-miterlimit:4;stroke-dasharray:none;stroke-opacity:1"
     id="g7685"
     transform="matrix(0.02130141,0,0,0.0229899,0.05986501,0.01799283)" />
  <g
     style="fill:#000000;stroke:#141414;stroke-width:4.5188427;stroke-miterlimit:4;stroke-dasharray:none;stroke-opacity:1"
     id="g7687"
     transform="matrix(0.02130141,0,0,0.0229899,0.05986501,0.01799283)" />
  <g
     style="fill:#000000;stroke:#141414;stroke-width:4.5188427;stroke-miterlimit:4;stroke-dasharray:none;stroke-opacity:1"
     id="g7689"
     transform="matrix(0.02130141,0,0,0.0229899,0.05986501,0.01799283)" />
  <g
     style="fill:#000000;stroke:#141414;stroke-width:4.5188427;stroke-miterlimit:4;stroke-dasharray:none;stroke-opacity:1"
     id="g7691"
     transform="matrix(0.02130141,0,0,0.0229899,0.05986501,0.01799283)" />
  <g
     style="fill:#000000;stroke:#141414;stroke-width:4.5188427;stroke-miterlimit:4;stroke-dasharray:none;stroke-opacity:1"
     id="g7693"
     transform="matrix(0.02130141,0,0,0.0229899,0.05986501,0.01799283)" />
  <g
     style="fill:#000000;stroke:#141414;stroke-width:4.5188427;stroke-miterlimit:4;stroke-dasharray:none;stroke-opacity:1"
     id="g7695"
     transform="matrix(0.02130141,0,0,0.0229899,0.05986501,0.01799283)" />
  <g
     style="fill:#000000;stroke:#141414;stroke-width:4.5188427;stroke-miterlimit:4;stroke-dasharray:none;stroke-opacity:1"
     id="g7697"
     transform="matrix(0.02130141,0,0,0.0229899,0.05986501,0.01799283)" />
  <g
     style="fill:#000000;stroke:#141414;stroke-width:4.5188427;stroke-miterlimit:4;stroke-dasharray:none;stroke-opacity:1"
     id="g7699"
     transform="matrix(0.02130141,0,0,0.0229899,0.05986501,0.01799283)" />
  <g
     style="fill:#000000;stroke:#141414;stroke-width:4.5188427;stroke-miterlimit:4;stroke-dasharray:none;stroke-opacity:1"
     id="g7701"
     transform="matrix(0.02130141,0,0,0.0229899,0.05986501,0.01799283)" />
  <g
     id="g943"
     transform="matrix(0.02359312,0,0,0.02364927,0.02009863,4.6985345)"
     style="stroke-width:42.33488464">
    <g
       id="g886"
       style="stroke-width:42.33488464">
	<path
   id="path882"
   d="m 483.298,116.943 c -2.802,-1.786 -5.934,-2.274 -9.021,-2.162 l 4.121,-6.576 c 1.706,-2.695 2.239,-5.968 1.536,-9.07 -0.704,-3.115 -2.631,-5.81 -5.339,-7.516 l -2.354,-1.489 16.805,-26.811 c 3.431,-5.45 1.773,-12.653 -3.681,-16.083 L 464.1,33.892 c -2.617,-1.644 -5.796,-2.177 -8.801,-1.488 -3.026,0.69 -5.638,2.552 -7.283,5.167 l -16.822,26.813 -2.397,-1.488 c -2.692,-1.69 -5.982,-2.252 -9.065,-1.537 -3.119,0.723 -5.81,2.638 -7.503,5.343 L 260.711,308.288 c -0.989,1.584 -1.601,3.352 -1.786,5.215 L 255.367,349.681 123.535,19.86 c -1.174,-2.96 -3.478,-5.342 -6.421,-6.594 -2.929,-1.252 -6.25,-1.303 -9.21,-0.109 L 7.562,53.279 c -6.17,2.46 -9.161,9.461 -6.703,15.631 l 160.702,402.064 c 1.877,4.699 6.403,7.566 11.18,7.566 1.474,0 2.991,-0.267 4.447,-0.863 l 100.355,-40.09 c 2.96,-1.174 5.326,-3.494 6.597,-6.421 1.249,-2.93 1.298,-6.249 0.11,-9.21 l -14.474,-36.221 c 0.471,-0.205 1.003,-0.146 1.443,-0.41 l 51.743,-31.682 c 1.583,-0.972 2.912,-2.287 3.915,-3.869 l 74.204,-118.318 c 1.254,2.834 3.07,5.434 5.89,7.203 2.63,1.676 5.572,2.458 8.488,2.458 5.353,0 10.555,-2.663 13.608,-7.514 l 59.307,-94.563 c 4.695,-7.503 2.445,-17.398 -5.076,-22.097 z M 179.444,450.879 27.658,71.149 105.68,39.952 l 12.029,30.116 -23.9,9.552 c -4.117,1.646 -6.122,6.297 -4.478,10.416 1.253,3.133 4.257,5.044 7.455,5.044 0.985,0 1.988,-0.188 2.973,-0.581 l 23.899,-9.552 11.435,28.626 -23.899,9.556 c -4.104,1.628 -6.109,6.296 -4.464,10.412 1.253,3.133 4.276,5.046 7.438,5.046 1.002,0 2.005,-0.189 2.977,-0.565 l 23.9,-9.554 11.448,28.63 -23.917,9.554 c -4.104,1.645 -6.104,6.294 -4.464,10.414 1.254,3.131 4.279,5.042 7.442,5.042 1.002,0 2.005,-0.189 2.973,-0.579 l 23.899,-9.553 11.466,28.645 -23.899,9.555 c -4.103,1.625 -6.109,6.293 -4.464,10.411 1.253,3.133 4.275,5.046 7.441,5.046 0.999,0 2.001,-0.191 2.974,-0.583 l 23.899,-9.538 11.435,28.63 -23.898,9.568 c -4.104,1.646 -6.109,6.314 -4.464,10.415 1.252,3.133 4.274,5.044 7.437,5.044 1.003,0 2.005,-0.187 2.977,-0.579 l 23.9,-9.556 11.461,28.646 -23.913,9.568 c -4.121,1.645 -6.109,6.315 -4.464,10.416 1.253,3.131 4.257,5.041 7.454,5.041 0.986,0 2.006,-0.189 2.974,-0.581 l 23.898,-9.565 11.434,28.628 -23.899,9.538 c -4.12,1.642 -6.122,6.311 -4.48,10.43 1.253,3.131 4.261,5.044 7.455,5.044 0.99,0 1.992,-0.191 2.977,-0.565 l 23.9,-9.538 29.427,73.622 z m 246.77,-361.203 25.417,15.943 -137.567,219.3 -25.399,-15.941 z m -145.003,243.012 14.768,9.272 -16.695,10.228 z"
   inkscape:connector-curvature="0"
   style="stroke-width:42.33488464" />

	<path
   id="path884"
   d="m 217.861,401.332 c -2.489,-6.173 -9.491,-9.194 -15.679,-6.735 -6.202,2.506 -9.192,9.49 -6.733,15.708 2.476,6.186 9.491,9.176 15.693,6.704 6.187,-2.477 9.177,-9.477 6.719,-15.677 z"
   inkscape:connector-curvature="0"
   style="stroke-width:42.33488464" />

</g>
    <g
       id="g888"
       style="stroke-width:42.33488464">
</g>
    <g
       id="g890"
       style="stroke-width:42.33488464">
</g>
    <g
       id="g892"
       style="stroke-width:42.33488464">
</g>
    <g
       id="g894"
       style="stroke-width:42.33488464">
</g>
    <g
       id="g896"
       style="stroke-width:42.33488464">
</g>
    <g
       id="g898"
       style="stroke-width:42.33488464">
</g>
    <g
       id="g900"
       style="stroke-width:42.33488464">
</g>
    <g
       id="g902"
       style="stroke-width:42.33488464">
</g>
    <g
       id="g904"
       style="stroke-width:42.33488464">
</g>
    <g
       id="g906"
       style="stroke-width:42.33488464">
</g>
    <g
       id="g908"
       style="stroke-width:42.33488464">
</g>
    <g
       id="g910"
       style="stroke-width:42.33488464">
</g>
    <g
       id="g912"
       style="stroke-width:42.33488464">
</g>
    <g
       id="g914"
       style="stroke-width:42.33488464">
</g>
    <g
       id="g916"
       style="stroke-width:42.33488464">
</g>
  </g>
  <g
     transform="matrix(0.56451351,0,0,0.56451353,6.9489648,-2.1429831e-5)"
     id="g8432"
     style="opacity:0.8;stroke-width:1.77143681">
    <ellipse
       ry="7.9786086"
       rx="7.9786081"
       cy="8.0165396"
       cx="8.0168352"
       id="path5896"
       style="opacity:1;fill:#43b05c;fill-opacity:1;stroke:#000000;stroke-width:0;stroke-miterlimit:4;stroke-dasharray:none;stroke-opacity:1;paint-order:markers fill stroke" />
    <g
       style="stroke-width:1.24952674"
       transform="matrix(1.4319886,0,0,1.4035264,15.539903,-12.805223)"
       id="g5904">
      <rect
         style="opacity:1;fill:#ffffff;fill-opacity:1;stroke:#000000;stroke-width:0;stroke-miterlimit:4;stroke-dasharray:none;stroke-opacity:1;paint-order:markers fill stroke"
         id="rect5898"
         width="1.168082"
         height="7.0752397"
         x="-5.8070364"
         y="11.294298" />
      <rect
         style="opacity:1;fill:#ffffff;fill-opacity:1;stroke:#000000;stroke-width:0;stroke-miterlimit:4;stroke-dasharray:none;stroke-opacity:1;paint-order:markers fill stroke"
         id="rect5900"
         width="7.008492"
         height="1.1013345"
         x="-8.7773018"
         y="14.364685" />
    </g>
  </g>
</svg>
