<?xml version="1.0" encoding="UTF-8" standalone="no"?>
<svg
   xmlns:dc="http://purl.org/dc/elements/1.1/"
   xmlns:cc="http://creativecommons.org/ns#"
   xmlns:rdf="http://www.w3.org/1999/02/22-rdf-syntax-ns#"
   xmlns:svg="http://www.w3.org/2000/svg"
   xmlns="http://www.w3.org/2000/svg"
   xmlns:sodipodi="http://sodipodi.sourceforge.net/DTD/sodipodi-0.dtd"
   xmlns:inkscape="http://www.inkscape.org/namespaces/inkscape"
   width="1em"
   height="1em"
   viewBox="0 0 16 16"
   class="bi bi-alarm"
   fill="currentColor"
   version="1.1"
   id="svg6797"
   sodipodi:docname="ncf.svg"
   inkscape:version="0.92.3 (2405546, 2018-03-11)">
  <metadata
     id="metadata6803">
    <rdf:RDF>
      <cc:Work
         rdf:about="">
        <dc:format>image/svg+xml</dc:format>
        <dc:type
           rdf:resource="http://purl.org/dc/dcmitype/StillImage" />
        <dc:title />
      </cc:Work>
    </rdf:RDF>
  </metadata>
  <defs
     id="defs6801" />
  <sodipodi:namedview
     pagecolor="#ffffff"
     bordercolor="#666666"
     borderopacity="1"
     objecttolerance="10"
     gridtolerance="10"
     guidetolerance="10"
     inkscape:pageopacity="0"
     inkscape:pageshadow="2"
     inkscape:window-width="1600"
     inkscape:window-height="847"
     id="namedview6799"
     showgrid="true"
     inkscape:zoom="29.5"
     inkscape:cx="4.5799447"
     inkscape:cy="7.9116281"
     inkscape:window-x="1358"
     inkscape:window-y="-8"
     inkscape:window-maximized="1"
     inkscape:current-layer="svg6797"
     inkscape:snap-global="false"
     showguides="false">
    <inkscape:grid
       type="xygrid"
       id="grid8461" />
  </sodipodi:namedview>
  <g
     style="fill:#000000;stroke:#141414;stroke-width:4.5188427;stroke-miterlimit:4;stroke-dasharray:none;stroke-opacity:1"
     id="g7673"
     transform="matrix(0.02130141,0,0,0.0229899,0.05986501,0.01799283)" />
  <g
     style="fill:#000000;stroke:#141414;stroke-width:4.5188427;stroke-miterlimit:4;stroke-dasharray:none;stroke-opacity:1"
     id="g7675"
     transform="matrix(0.02130141,0,0,0.0229899,0.05986501,0.01799283)" />
  <g
     style="fill:#000000;stroke:#141414;stroke-width:4.5188427;stroke-miterlimit:4;stroke-dasharray:none;stroke-opacity:1"
     id="g7677"
     transform="matrix(0.02130141,0,0,0.0229899,0.05986501,0.01799283)" />
  <g
     style="fill:#000000;stroke:#141414;stroke-width:4.5188427;stroke-miterlimit:4;stroke-dasharray:none;stroke-opacity:1"
     id="g7679"
     transform="matrix(0.02130141,0,0,0.0229899,0.05986501,0.01799283)" />
  <g
     style="fill:#000000;stroke:#141414;stroke-width:4.5188427;stroke-miterlimit:4;stroke-dasharray:none;stroke-opacity:1"
     id="g7681"
     transform="matrix(0.02130141,0,0,0.0229899,0.05986501,0.01799283)" />
  <g
     style="fill:#000000;stroke:#141414;stroke-width:4.5188427;stroke-miterlimit:4;stroke-dasharray:none;stroke-opacity:1"
     id="g7683"
     transform="matrix(0.02130141,0,0,0.0229899,0.05986501,0.01799283)" />
  <g
     style="fill:#000000;stroke:#141414;stroke-width:4.5188427;stroke-miterlimit:4;stroke-dasharray:none;stroke-opacity:1"
     id="g7685"
     transform="matrix(0.02130141,0,0,0.0229899,0.05986501,0.01799283)" />
  <g
     style="fill:#000000;stroke:#141414;stroke-width:4.5188427;stroke-miterlimit:4;stroke-dasharray:none;stroke-opacity:1"
     id="g7687"
     transform="matrix(0.02130141,0,0,0.0229899,0.05986501,0.01799283)" />
  <g
     style="fill:#000000;stroke:#141414;stroke-width:4.5188427;stroke-miterlimit:4;stroke-dasharray:none;stroke-opacity:1"
     id="g7689"
     transform="matrix(0.02130141,0,0,0.0229899,0.05986501,0.01799283)" />
  <g
     style="fill:#000000;stroke:#141414;stroke-width:4.5188427;stroke-miterlimit:4;stroke-dasharray:none;stroke-opacity:1"
     id="g7691"
     transform="matrix(0.02130141,0,0,0.0229899,0.05986501,0.01799283)" />
  <g
     style="fill:#000000;stroke:#141414;stroke-width:4.5188427;stroke-miterlimit:4;stroke-dasharray:none;stroke-opacity:1"
     id="g7693"
     transform="matrix(0.02130141,0,0,0.0229899,0.05986501,0.01799283)" />
  <g
     style="fill:#000000;stroke:#141414;stroke-width:4.5188427;stroke-miterlimit:4;stroke-dasharray:none;stroke-opacity:1"
     id="g7695"
     transform="matrix(0.02130141,0,0,0.0229899,0.05986501,0.01799283)" />
  <g
     style="fill:#000000;stroke:#141414;stroke-width:4.5188427;stroke-miterlimit:4;stroke-dasharray:none;stroke-opacity:1"
     id="g7697"
     transform="matrix(0.02130141,0,0,0.0229899,0.05986501,0.01799283)" />
  <g
     style="fill:#000000;stroke:#141414;stroke-width:4.5188427;stroke-miterlimit:4;stroke-dasharray:none;stroke-opacity:1"
     id="g7699"
     transform="matrix(0.02130141,0,0,0.0229899,0.05986501,0.01799283)" />
  <g
     style="fill:#000000;stroke:#141414;stroke-width:4.5188427;stroke-miterlimit:4;stroke-dasharray:none;stroke-opacity:1"
     id="g7701"
     transform="matrix(0.02130141,0,0,0.0229899,0.05986501,0.01799283)" />
  <g
     style="stroke:#141414;stroke-width:5.85344696;stroke-miterlimit:4;stroke-dasharray:none;stroke-opacity:1"
     id="g13006"
     transform="matrix(0.03751047,0,0,0.03112319,-1.6196299,0.03246986)" />
  <g
     style="stroke:#141414;stroke-width:5.85344696;stroke-miterlimit:4;stroke-dasharray:none;stroke-opacity:1"
     id="g13008"
     transform="matrix(0.03751047,0,0,0.03112319,-1.6196299,0.03246986)" />
  <g
     style="stroke:#141414;stroke-width:5.85344696;stroke-miterlimit:4;stroke-dasharray:none;stroke-opacity:1"
     id="g13010"
     transform="matrix(0.03751047,0,0,0.03112319,-1.6196299,0.03246986)" />
  <g
     style="stroke:#141414;stroke-width:5.85344696;stroke-miterlimit:4;stroke-dasharray:none;stroke-opacity:1"
     id="g13012"
     transform="matrix(0.03751047,0,0,0.03112319,-1.6196299,0.03246986)" />
  <g
     style="stroke:#141414;stroke-width:5.85344696;stroke-miterlimit:4;stroke-dasharray:none;stroke-opacity:1"
     id="g13014"
     transform="matrix(0.03751047,0,0,0.03112319,-1.6196299,0.03246986)" />
  <g
     style="stroke:#141414;stroke-width:5.85344696;stroke-miterlimit:4;stroke-dasharray:none;stroke-opacity:1"
     id="g13016"
     transform="matrix(0.03751047,0,0,0.03112319,-1.6196299,0.03246986)" />
  <g
     style="stroke:#141414;stroke-width:5.85344696;stroke-miterlimit:4;stroke-dasharray:none;stroke-opacity:1"
     id="g13018"
     transform="matrix(0.03751047,0,0,0.03112319,-1.6196299,0.03246986)" />
  <g
     style="stroke:#141414;stroke-width:5.85344696;stroke-miterlimit:4;stroke-dasharray:none;stroke-opacity:1"
     id="g13020"
     transform="matrix(0.03751047,0,0,0.03112319,-1.6196299,0.03246986)" />
  <g
     style="stroke:#141414;stroke-width:5.85344696;stroke-miterlimit:4;stroke-dasharray:none;stroke-opacity:1"
     id="g13022"
     transform="matrix(0.03751047,0,0,0.03112319,-1.6196299,0.03246986)" />
  <g
     style="stroke:#141414;stroke-width:5.85344696;stroke-miterlimit:4;stroke-dasharray:none;stroke-opacity:1"
     id="g13024"
     transform="matrix(0.03751047,0,0,0.03112319,-1.6196299,0.03246986)" />
  <g
     style="stroke:#141414;stroke-width:5.85344696;stroke-miterlimit:4;stroke-dasharray:none;stroke-opacity:1"
     id="g13026"
     transform="matrix(0.03751047,0,0,0.03112319,-1.6196299,0.03246986)" />
  <g
     style="stroke:#141414;stroke-width:5.85344696;stroke-miterlimit:4;stroke-dasharray:none;stroke-opacity:1"
     id="g13028"
     transform="matrix(0.03751047,0,0,0.03112319,-1.6196299,0.03246986)" />
  <g
     style="stroke:#141414;stroke-width:5.85344696;stroke-miterlimit:4;stroke-dasharray:none;stroke-opacity:1"
     id="g13030"
     transform="matrix(0.03751047,0,0,0.03112319,-1.6196299,0.03246986)" />
  <g
     style="stroke:#141414;stroke-width:5.85344696;stroke-miterlimit:4;stroke-dasharray:none;stroke-opacity:1"
     id="g13032"
     transform="matrix(0.03751047,0,0,0.03112319,-1.6196299,0.03246986)" />
  <g
     style="stroke:#141414;stroke-width:5.85344696;stroke-miterlimit:4;stroke-dasharray:none;stroke-opacity:1"
     id="g13034"
     transform="matrix(0.03751047,0,0,0.03112319,-1.6196299,0.03246986)" />
  <g
     style="stroke-width:30.24335861"
     id="g13263"
     transform="matrix(0.03484422,0,0,0.03137685,-0.92637169,-0.00538878)" />
  <g
     style="stroke-width:30.24335861"
     id="g13265"
     transform="matrix(0.03484422,0,0,0.03137685,-0.92637169,-0.00538878)" />
  <g
     style="stroke-width:30.24335861"
     id="g13267"
     transform="matrix(0.03484422,0,0,0.03137685,-0.92637169,-0.00538878)" />
  <g
     style="stroke-width:30.24335861"
     id="g13269"
     transform="matrix(0.03484422,0,0,0.03137685,-0.92637169,-0.00538878)" />
  <g
     style="stroke-width:30.24335861"
     id="g13271"
     transform="matrix(0.03484422,0,0,0.03137685,-0.92637169,-0.00538878)" />
  <g
     style="stroke-width:30.24335861"
     id="g13273"
     transform="matrix(0.03484422,0,0,0.03137685,-0.92637169,-0.00538878)" />
  <g
     style="stroke-width:30.24335861"
     id="g13275"
     transform="matrix(0.03484422,0,0,0.03137685,-0.92637169,-0.00538878)" />
  <g
     style="stroke-width:30.24335861"
     id="g13277"
     transform="matrix(0.03484422,0,0,0.03137685,-0.92637169,-0.00538878)" />
  <g
     style="stroke-width:30.24335861"
     id="g13279"
     transform="matrix(0.03484422,0,0,0.03137685,-0.92637169,-0.00538878)" />
  <g
     style="stroke-width:30.24335861"
     id="g13281"
     transform="matrix(0.03484422,0,0,0.03137685,-0.92637169,-0.00538878)" />
  <g
     style="stroke-width:30.24335861"
     id="g13283"
     transform="matrix(0.03484422,0,0,0.03137685,-0.92637169,-0.00538878)" />
  <g
     style="stroke-width:30.24335861"
     id="g13285"
     transform="matrix(0.03484422,0,0,0.03137685,-0.92637169,-0.00538878)" />
  <g
     style="stroke-width:30.24335861"
     id="g13287"
     transform="matrix(0.03484422,0,0,0.03137685,-0.92637169,-0.00538878)" />
  <g
     style="stroke-width:30.24335861"
     id="g13289"
     transform="matrix(0.03484422,0,0,0.03137685,-0.92637169,-0.00538878)" />
  <g
     style="stroke-width:30.24335861"
     id="g13291"
     transform="matrix(0.03484422,0,0,0.03137685,-0.92637169,-0.00538878)" />
  <g
     id="g14593"
     transform="translate(-22.377629,-19.009672)" />
  <g
     id="g14595"
     transform="translate(-22.377629,-19.009672)" />
  <g
     id="g14597"
     transform="translate(-22.377629,-19.009672)" />
  <g
     id="g14599"
     transform="translate(-22.377629,-19.009672)" />
  <g
     id="g14601"
     transform="translate(-22.377629,-19.009672)" />
  <g
     id="g14603"
     transform="translate(-22.377629,-19.009672)" />
  <g
     id="g14605"
     transform="translate(-22.377629,-19.009672)" />
  <g
     id="g14607"
     transform="translate(-22.377629,-19.009672)" />
  <g
     id="g14609"
     transform="translate(-22.377629,-19.009672)" />
  <g
     id="g14611"
     transform="translate(-22.377629,-19.009672)" />
  <g
     id="g14613"
     transform="translate(-22.377629,-19.009672)" />
  <g
     id="g14615"
     transform="translate(-22.377629,-19.009672)" />
  <g
     id="g14617"
     transform="translate(-22.377629,-19.009672)" />
  <g
     id="g14619"
     transform="translate(-22.377629,-19.009672)" />
  <g
     id="g14621"
     transform="translate(-22.377629,-19.009672)" />
  <g
     style="stroke-width:30.97005463"
     id="g21244"
     transform="matrix(0.03418616,0,0,0.0304976,0.01001144,3.404141)" />
  <g
     style="stroke-width:30.97005463"
     id="g21246"
     transform="matrix(0.03418616,0,0,0.0304976,0.01001144,3.404141)" />
  <g
     style="stroke-width:30.97005463"
     id="g21248"
     transform="matrix(0.03418616,0,0,0.0304976,0.01001144,3.404141)" />
  <g
     style="stroke-width:30.97005463"
     id="g21250"
     transform="matrix(0.03418616,0,0,0.0304976,0.01001144,3.404141)" />
  <g
     style="stroke-width:30.97005463"
     id="g21252"
     transform="matrix(0.03418616,0,0,0.0304976,0.01001144,3.404141)" />
  <g
     style="stroke-width:30.97005463"
     id="g21254"
     transform="matrix(0.03418616,0,0,0.0304976,0.01001144,3.404141)" />
  <g
     style="stroke-width:30.97005463"
     id="g21256"
     transform="matrix(0.03418616,0,0,0.0304976,0.01001144,3.404141)" />
  <g
     style="stroke-width:30.97005463"
     id="g21258"
     transform="matrix(0.03418616,0,0,0.0304976,0.01001144,3.404141)" />
  <g
     style="stroke-width:30.97005463"
     id="g21260"
     transform="matrix(0.03418616,0,0,0.0304976,0.01001144,3.404141)" />
  <g
     style="stroke-width:30.97005463"
     id="g21262"
     transform="matrix(0.03418616,0,0,0.0304976,0.01001144,3.404141)" />
  <g
     style="stroke-width:30.97005463"
     id="g21264"
     transform="matrix(0.03418616,0,0,0.0304976,0.01001144,3.404141)" />
  <g
     style="stroke-width:30.97005463"
     id="g21266"
     transform="matrix(0.03418616,0,0,0.0304976,0.01001144,3.404141)" />
  <g
     style="stroke-width:30.97005463"
     id="g21268"
     transform="matrix(0.03418616,0,0,0.0304976,0.01001144,3.404141)" />
  <g
     style="stroke-width:30.97005463"
     id="g21270"
     transform="matrix(0.03418616,0,0,0.0304976,0.01001144,3.404141)" />
  <g
     style="stroke-width:30.97005463"
     id="g21272"
     transform="matrix(0.03418616,0,0,0.0304976,0.01001144,3.404141)" />
  <path
     sodipodi:type="star"
     style="opacity:1;fill:#ffe680;fill-opacity:1;stroke:none;stroke-width:0.01729907;stroke-miterlimit:4;stroke-dasharray:none;stroke-dashoffset:0;stroke-opacity:1;paint-order:markers fill stroke"
     id="path21623"
     sodipodi:sides="3"
     sodipodi:cx="1.893608"
     sodipodi:cy="15.017241"
     sodipodi:r1="1.6903328"
     sodipodi:r2="0.84516639"
     sodipodi:arg1="-1.25353"
     sodipodi:arg2="-0.2063325"
     inkscape:flatsided="true"
     inkscape:rounded="0"
     inkscape:randomized="0"
     d="m 2.4209419,13.411269 0.599811,2.865642 -2.78162383,-0.913369 z"
     inkscape:transform-center-x="2.4509221"
     inkscape:transform-center-y="-6.8601166"
     transform="matrix(4.1543511,-1.8475989,4.7095685,5.9490791,-73.230951,-75.235057)" />
  <text
     xml:space="preserve"
     style="font-style:normal;font-variant:normal;font-weight:bold;font-stretch:normal;font-size:2.68589282px;line-height:1.25;font-family:sans-serif;-inkscape-font-specification:'sans-serif Bold';text-align:center;letter-spacing:0px;word-spacing:0px;text-anchor:middle;fill:#4d4d4d;fill-opacity:1;stroke:none;stroke-width:0.99999994"
     x="11.704749"
     y="2.6645401"
     id="text21535-99"
     transform="matrix(0.67665728,6.9883192e-5,0.00168819,1.4778532,0,0)"><tspan
       sodipodi:role="line"
       id="tspan21533-6"
       x="11.704749"
       y="2.6645401"
       style="font-style:normal;font-variant:normal;font-weight:bold;font-stretch:normal;font-family:sans-serif;-inkscape-font-specification:'sans-serif Bold';text-align:center;text-anchor:middle;fill:#4d4d4d;stroke-width:0.99999994">B0100000001</tspan></text>
  <text
     xml:space="preserve"
     style="font-style:normal;font-variant:normal;font-weight:bold;font-stretch:normal;font-size:8.45388508px;line-height:1.25;font-family:sans-serif;-inkscape-font-specification:'sans-serif Bold';text-align:center;letter-spacing:0px;word-spacing:0px;text-anchor:middle;fill:#4d4d4d;fill-opacity:1;stroke:none;stroke-width:0.99999994"
     x="9.9729528"
     y="10.800477"
     id="text21535-0-3"
     transform="matrix(0.78288697,5.7193998e-5,0.00206273,1.2773237,0,0)"><tspan
       sodipodi:role="line"
       id="tspan21533-5-4"
       x="9.9729528"
       y="10.800477"
       style="font-style:normal;font-variant:normal;font-weight:bold;font-stretch:normal;font-family:sans-serif;-inkscape-font-specification:'sans-serif Bold';text-align:center;text-anchor:middle;fill:#4d4d4d;stroke-width:0.99999994">NCF</tspan></text>
</svg>
