<?xml version="1.0" encoding="UTF-8" standalone="no"?>
<svg
   xmlns:osb="http://www.openswatchbook.org/uri/2009/osb"
   xmlns:dc="http://purl.org/dc/elements/1.1/"
   xmlns:cc="http://creativecommons.org/ns#"
   xmlns:rdf="http://www.w3.org/1999/02/22-rdf-syntax-ns#"
   xmlns:svg="http://www.w3.org/2000/svg"
   xmlns="http://www.w3.org/2000/svg"
   xmlns:sodipodi="http://sodipodi.sourceforge.net/DTD/sodipodi-0.dtd"
   xmlns:inkscape="http://www.inkscape.org/namespaces/inkscape"
   width="1em"
   height="1em"
   viewBox="0 0 16 16"
   class="bi bi-person-fill"
   fill="currentColor"
   version="1.1"
   id="svg2926"
   sodipodi:docname="user.svg"
   inkscape:version="0.92.3 (2405546, 2018-03-11)">
  <metadata
     id="metadata2932">
    <rdf:RDF>
      <cc:Work
         rdf:about="">
        <dc:format>image/svg+xml</dc:format>
        <dc:type
           rdf:resource="http://purl.org/dc/dcmitype/StillImage" />
        <dc:title></dc:title>
      </cc:Work>
    </rdf:RDF>
  </metadata>
  <defs
     id="defs2930">
    <linearGradient
       id="linearGradient4400"
       osb:paint="solid">
      <stop
         style="stop-color:#4d4d4d;stop-opacity:1;"
         offset="0"
         id="stop4398" />
    </linearGradient>
  </defs>
  <sodipodi:namedview
     pagecolor="#ffffff"
     bordercolor="#666666"
     borderopacity="1"
     objecttolerance="10"
     gridtolerance="10"
     guidetolerance="10"
     inkscape:pageopacity="0"
     inkscape:pageshadow="2"
     inkscape:window-width="1600"
     inkscape:window-height="847"
     id="namedview2928"
     showgrid="true"
     showguides="true"
     inkscape:zoom="42.375"
     inkscape:cx="11.540738"
     inkscape:cy="9.5336329"
     inkscape:window-x="-8"
     inkscape:window-y="-8"
     inkscape:window-maximized="1"
     inkscape:current-layer="svg2926">
    <inkscape:grid
       type="xygrid"
       id="grid2938" />
  </sodipodi:namedview>
  <g
     id="g5164"
     transform="translate(10,-2)">
    <path
       style="fill:#4d4d4d;fill-opacity:1;fill-rule:evenodd;stroke-width:1"
       id="path2924-6"
       d="m 7.7381601,12.435281 c 0,0 -0.727273,0 -0.727273,-0.760821 0,-0.760822 0.727273,-3.0432852 4.3636369,-3.0432852 3.636363,0 4.363636,2.2824632 4.363636,3.0432852 0,0.760821 -0.727273,0.760821 -0.727273,0.760821 z M 11.374524,7.8703528 a 2.1818182,2.2824639 0 1 0 0,-4.5649277 2.1818182,2.2824639 0 0 0 0,4.5649277 z"
       inkscape:connector-curvature="0" />
    <path
       transform="matrix(0.20457679,0,0,0.61890376,9.8799571,3.4791596)"
       inkscape:transform-center-y="0.17912152"
       inkscape:transform-center-x="-0.00086050934"
       d="M 5.4749264,8.9203536 9.087118,8.9043503 10.218567,12.334803 7.3056488,14.470943 4.3739179,12.360697 Z"
       inkscape:randomized="0"
       inkscape:rounded="0"
       inkscape:flatsided="true"
       sodipodi:arg2="-1.5752266"
       sodipodi:arg1="-2.2035452"
       sodipodi:r2="2.4859021"
       sodipodi:r1="3.0727439"
       sodipodi:cy="11.39823"
       sodipodi:cx="7.2920356"
       sodipodi:sides="5"
       id="path2936-4"
       style="opacity:1;fill:#ff0000;fill-opacity:1;stroke:#000000;stroke-width:0;stroke-miterlimit:4;stroke-dasharray:none;stroke-opacity:1;paint-order:markers fill stroke"
       sodipodi:type="star" />
  </g>
  <g
     id="g5168"
     transform="matrix(1.3333333,0,0,1.3333332,0,-5.3333323)"
     style="stroke-width:0.75">
    <path
       inkscape:connector-curvature="0"
       style="fill:#4d4d4d;fill-opacity:1;fill-rule:evenodd;stroke-width:0.75"
       id="path2924"
       d="m 1,16 c 0,0 -1,0 -1,-1 0,-1 1,-4 6,-4 5,0 6,3 6,4 0,1 -1,1 -1,1 z m 5,-6 a 3,3 0 1 0 0,-6 3,3 0 0 0 0,6 z" />
    <path
       transform="matrix(0.28129309,0,0,0.81346796,3.9449715,4.2283512)"
       inkscape:transform-center-y="0.2354317"
       inkscape:transform-center-x="-0.0011833527"
       d="M 5.4749264,8.9203536 9.087118,8.9043503 10.218567,12.334803 7.3056488,14.470943 4.3739179,12.360697 Z"
       inkscape:randomized="0"
       inkscape:rounded="0"
       inkscape:flatsided="true"
       sodipodi:arg2="-1.5752266"
       sodipodi:arg1="-2.2035452"
       sodipodi:r2="2.4859021"
       sodipodi:r1="3.0727439"
       sodipodi:cy="11.39823"
       sodipodi:cx="7.2920356"
       sodipodi:sides="5"
       id="path2936"
       style="opacity:1;fill:#ff0000;fill-opacity:1;stroke:#000000;stroke-width:0;stroke-miterlimit:4;stroke-dasharray:none;stroke-opacity:1;paint-order:markers fill stroke"
       sodipodi:type="star" />
  </g>
</svg>
